<svg width="22" height="15" viewBox="0 0 22 15" fill="none" xmlns="http://www.w3.org/2000/svg">
<path d="M20.0059 8.31044H1.00586V6.31044H20.0059V8.31044ZM0.295898 8.02046C0.202169 7.9275 0.127794 7.81688 0.0770264 7.69502C0.0262585 7.57316 0.00012207 7.44245 0.00012207 7.31044C0.00012207 7.17843 0.0262585 7.04771 0.0770264 6.92586C0.127794 6.804 0.202169 6.69338 0.295898 6.60042L6.66589 0.240431C6.85719 0.0766047 7.10318 -0.00897517 7.35486 0.000745981C7.60653 0.0104671 7.84534 0.114766 8.02344 0.29286C8.20153 0.470955 8.30583 0.709702 8.31555 0.961378C8.32527 1.21305 8.23963 1.45916 8.07581 1.65047L2.41589 7.31044L8.07581 12.9704C8.23963 13.1617 8.32527 13.4078 8.31555 13.6595C8.30583 13.9112 8.20153 14.1499 8.02344 14.328C7.84534 14.5061 7.60653 14.6104 7.35486 14.6201C7.10318 14.6299 6.85719 14.5443 6.66589 14.3804L0.295898 8.02046ZM20.0059 6.31044C20.2711 6.31044 20.5255 6.41581 20.713 6.60335C20.9005 6.79088 21.0059 7.04522 21.0059 7.31044C21.0059 7.57565 20.9005 7.82999 20.713 8.01753C20.5255 8.20507 20.2711 8.31044 20.0059 8.31044V6.31044Z" fill="#02628C"/>
</svg>
