<svg width="27" height="19" viewBox="0 0 27 19" fill="none" xmlns="http://www.w3.org/2000/svg">
<path d="M25.7146 10.7995H1.29274V8.20049H25.7146V10.7995ZM0.38018 10.4227C0.259706 10.3019 0.164106 10.1581 0.0988503 9.99977C0.0335941 9.84141 0 9.67155 0 9.5C0 9.32845 0.0335941 9.15859 0.0988503 9.00023C0.164106 8.84187 0.259706 8.69812 0.38018 8.57732L8.56794 0.312443C8.81383 0.0995487 9.13001 -0.0116633 9.45351 0.000969411C9.777 0.0136022 10.084 0.149139 10.3129 0.380575C10.5418 0.612011 10.6759 0.922266 10.6883 1.24932C10.7008 1.57638 10.5908 1.8962 10.3802 2.1448L3.10514 9.5L10.3802 16.8552C10.5908 17.1038 10.7008 17.4236 10.6883 17.7507C10.6759 18.0777 10.5418 18.388 10.3129 18.6194C10.084 18.8509 9.777 18.9864 9.45351 18.999C9.13001 19.0117 8.81383 18.9005 8.56794 18.6876L0.38018 10.4227ZM25.7146 8.20049C26.0555 8.20049 26.3825 8.33742 26.6236 8.58113C26.8646 8.82483 27 9.15535 27 9.5C27 9.84465 26.8646 10.1752 26.6236 10.4189C26.3825 10.6626 26.0555 10.7995 25.7146 10.7995V8.20049Z" fill="white"/>
</svg>
