<svg width="153" height="120" viewBox="0 0 153 120" fill="none" xmlns="http://www.w3.org/2000/svg">
<path d="M13.8056 69.6338L18.2668 59.9492L22.7279 69.6338C22.9561 70.1292 23.3536 70.5266 23.8489 70.7548L33.5335 75.216L23.8489 79.6771C23.3536 79.9053 22.9561 80.3027 22.7279 80.7981L18.2668 90.4827L13.8056 80.7981C13.5774 80.3027 13.18 79.9053 12.6846 79.6771L3 75.216L12.6846 70.7548C13.18 70.5266 13.5774 70.1292 13.8056 69.6338Z" stroke="#02628C" stroke-width="2.5"/>
<path d="M32.1108 33.0235L36.5719 23.3389L41.0331 33.0235C41.2613 33.5188 41.6587 33.9163 42.1541 34.1445L51.8387 38.6056L42.1541 43.0668C41.6587 43.295 41.2613 43.6924 41.0331 44.1878L36.5719 53.8724L32.1108 44.1878C31.8826 43.6924 31.4851 43.295 30.9898 43.0668L21.3052 38.6056L30.9898 34.1445C31.4851 33.9163 31.8826 33.5188 32.1108 33.0235Z" stroke="#02628C" stroke-width="2.5"/>
<path d="M71.7719 12.6846L76.2331 3L80.6942 12.6846C80.9224 13.18 81.3198 13.5774 81.8152 13.8056L91.4998 18.2668L81.8152 22.7279C81.3198 22.9561 80.9224 23.3536 80.6942 23.8489L76.2331 33.5335L71.7719 23.8489C71.5437 23.3536 71.1463 22.9561 70.6509 22.7279L60.9663 18.2668L70.6509 13.8056C71.1463 13.5774 71.5437 13.18 71.7719 12.6846Z" stroke="#02628C" stroke-width="2.5"/>
<path d="M111.433 33.0235L115.894 23.3389L120.356 33.0235C120.583 33.5188 120.981 33.9163 121.476 34.1445L131.161 38.6056L121.476 43.0668C120.981 43.295 120.583 43.6924 120.356 44.1878L115.894 53.8724L111.433 44.1878C111.205 43.6924 110.807 43.295 110.312 43.0668L100.627 38.6056L110.312 34.1445C110.807 33.9163 111.205 33.5188 111.433 33.0235Z" stroke="#02628C" stroke-width="2.5"/>
<path d="M129.738 69.6338L134.199 59.9492L138.66 69.6338C138.888 70.1292 139.286 70.5266 139.781 70.7548L149.465 75.216L139.781 79.6771C139.286 79.9053 138.888 80.3027 138.66 80.7981L134.199 90.4827L129.738 80.7981C129.51 80.3027 129.112 79.9053 128.617 79.6771L118.933 75.216L128.617 70.7548C129.112 70.5266 129.51 70.1292 129.738 69.6338Z" stroke="#02628C" stroke-width="2.5"/>
<path d="M65.3145 105.568C65.3145 101.254 65.2914 96.9406 65.3335 92.6283C65.3417 91.7686 65.0845 91.3526 64.4068 91.0214C60.8491 89.2835 57.6725 86.8877 54.9479 83.7617C50.0823 78.1799 47.1222 71.4934 45.9967 63.7624C45.817 62.5268 45.8837 61.3419 46.7493 60.4022C47.555 59.5271 48.5132 59.259 49.5733 59.6226C50.6064 59.977 51.2514 60.7657 51.5114 61.9782C51.9592 64.069 52.2667 66.2228 52.935 68.2211C55.5249 75.9675 60.3006 81.4631 67.096 84.4088C76.5902 88.5255 85.6149 87.2559 93.7659 80.2366C98.8927 75.8212 101.866 69.8157 102.865 62.5945C103.177 60.336 104.611 59.1018 106.437 59.584C107.736 59.9277 108.657 61.2372 108.534 62.8318C108.431 64.1798 108.228 65.5356 107.916 66.8406C105.503 76.9766 100.13 84.418 91.8959 89.2265C91.2113 89.6271 90.5417 90.0739 89.8313 90.402C89.1699 90.7086 89.0296 91.1986 89.0324 91.9566C89.0569 98.8372 89.046 105.72 89.046 112.6C89.046 114.731 89.0446 116.861 89.046 118.994C89.046 119.946 89.0555 119.961 89.8667 119.96C91.4808 119.955 91.2766 120.12 91.278 118.348C91.2834 110.004 91.2889 101.658 91.2657 93.3139C91.2644 92.619 91.455 92.2508 92.0061 91.9612C96.0891 89.8181 99.6699 86.8816 102.678 83.0839C107.161 77.4204 109.925 70.8386 110.769 63.2739C111.123 60.0956 109.144 57.421 106.209 56.9588C103.721 56.5675 101.167 58.7413 100.756 61.6763C100.323 64.7715 99.5691 67.7419 98.2109 70.4796C94.7526 77.445 89.5169 81.7681 82.6561 83.429C75.3136 85.2054 68.4788 83.7063 62.4292 78.5636C57.4997 74.3729 54.6852 68.6971 53.742 61.8058C53.3392 58.8615 51.0147 56.7293 48.5226 56.9234C45.8225 57.1344 43.6626 59.4855 43.6912 62.5283C43.7075 64.2723 44.0477 66.0518 44.4574 67.7481C47.1944 79.0842 53.0738 87.5595 62.4633 92.7669C63.0021 93.0659 63.0906 93.4572 63.0893 94.041C63.0797 102.154 63.0825 110.269 63.0825 118.382C63.0825 118.613 63.0934 118.844 63.0825 119.075C63.0552 119.611 63.2226 119.867 63.7452 119.853C65.6057 119.804 65.3023 120.094 65.3104 118.118C65.3267 113.934 65.3158 109.748 65.3145 105.564V105.568Z" fill="#02628C"/>
<path d="M77.2908 79.2843C82.8682 79.2774 87.4237 74.7029 87.4196 69.1128C87.4154 63.5517 82.8185 58.9522 77.2563 58.9453C71.7203 58.9371 67.0861 63.5683 67.0806 69.1128C67.0751 74.7111 71.6706 79.2912 77.2908 79.2843ZM77.3005 77.0143C72.9121 77.0212 69.3742 73.5256 69.3494 69.1598C69.3245 64.8062 72.9589 61.1891 77.3157 61.2319C81.6461 61.2734 85.1507 64.8117 85.1507 69.1418C85.1507 73.4718 81.6254 77.0074 77.3005 77.0143Z" fill="#02628C"/>
</svg>
