<svg width="150" height="118" viewBox="0 0 150 118" fill="none" xmlns="http://www.w3.org/2000/svg">
<path d="M13.6132 68.5109L18 58.9877L22.3868 68.5109C22.6112 68.998 23.002 69.3888 23.4891 69.6132L33.0123 74L23.4891 78.3868C23.002 78.6112 22.6112 79.002 22.3868 79.4891L18 89.0123L13.6132 79.4891C13.3888 79.002 12.998 78.6112 12.5109 78.3868L2.98767 74L12.5109 69.6132C12.998 69.3888 13.3888 68.998 13.6132 68.5109Z" stroke="#02628C" stroke-width="2.5"/>
<path d="M31.6132 32.5109L36 22.9877L40.3868 32.5109C40.6112 32.998 41.002 33.3888 41.4891 33.6132L51.0123 38L41.4891 42.3868C41.002 42.6112 40.6112 43.002 40.3868 43.4891L36 53.0123L31.6132 43.4891C31.3888 43.002 30.998 42.6112 30.5109 42.3868L20.9877 38L30.5109 33.6132C30.998 33.3888 31.3888 32.998 31.6132 32.5109Z" stroke="#02628C" stroke-width="2.5"/>
<path d="M70.6132 12.5109L75 2.98767L79.3868 12.5109C79.6112 12.998 80.002 13.3888 80.4891 13.6132L90.0123 18L80.4891 22.3868C80.002 22.6112 79.6112 23.002 79.3868 23.4891L75 33.0123L70.6132 23.4891C70.3888 23.002 69.998 22.6112 69.5109 22.3868L59.9877 18L69.5109 13.6132C69.998 13.3888 70.3888 12.998 70.6132 12.5109Z" stroke="#02628C" stroke-width="2.5"/>
<path d="M109.613 32.5109L114 22.9877L118.387 32.5109C118.611 32.998 119.002 33.3888 119.489 33.6132L129.012 38L119.489 42.3868C119.002 42.6112 118.611 43.002 118.387 43.4891L114 53.0123L109.613 43.4891C109.389 43.002 108.998 42.6112 108.511 42.3868L98.9877 38L108.511 33.6132C108.998 33.3888 109.389 32.998 109.613 32.5109Z" stroke="#02628C" stroke-width="2.5"/>
<path d="M127.613 68.5109L132 58.9877L136.387 68.5109C136.611 68.998 137.002 69.3888 137.489 69.6132L147.012 74L137.489 78.3868C137.002 78.6112 136.611 79.002 136.387 79.4891L132 89.0123L127.613 79.4891C127.389 79.002 126.998 78.6112 126.511 78.3868L116.988 74L126.511 69.6132C126.998 69.3888 127.389 68.998 127.613 68.5109Z" stroke="#02628C" stroke-width="2.5"/>
<path d="M44.5252 62.845L44.5252 62.8451C45.651 70.5784 48.6176 77.2901 53.504 82.8959C56.2502 86.0466 59.4545 88.4634 63.0412 90.2156C63.2982 90.3412 63.3874 90.4398 63.4319 90.5158C63.4812 90.6 63.5353 90.7593 63.532 91.1146C63.5013 94.2505 63.5057 97.3889 63.5101 100.523C63.5117 101.63 63.5132 102.736 63.5132 103.842C63.5132 103.842 63.5132 103.842 63.5132 103.842L44.5252 62.845ZM44.5252 62.845C44.3378 61.5564 44.3722 60.1013 45.4558 58.9248M44.5252 62.845L45.4558 58.9248M45.4558 58.9248C45.9268 58.4132 46.4763 58.0433 47.1019 57.8701C47.731 57.6958 48.3826 57.7356 49.0277 57.9569L49.0278 57.9569C50.3324 58.4044 51.1222 59.4201 51.4235 60.8255L51.4235 60.8257C51.5541 61.4355 51.6706 62.0366 51.7853 62.6289C52.0705 64.1015 52.3452 65.5198 52.8013 66.8836L52.8013 66.8836C55.2893 74.325 59.8503 79.5496 66.3133 82.3513L66.3134 82.3513C70.8734 84.3285 75.2834 84.9974 79.51 84.3531C83.7367 83.7087 87.8323 81.7432 91.751 78.3686C96.6332 74.1636 99.484 68.435 100.445 61.4859C100.616 60.2493 101.107 59.1994 101.901 58.5259C102.716 57.8345 103.774 57.6081 104.892 57.9033L104.892 57.9033C106.56 58.3444 107.655 59.9943 107.51 61.8794L45.4558 58.9248ZM106.884 65.9383C107.201 64.6131 107.406 63.2406 107.51 61.8795L106.884 65.9383ZM106.884 65.9383C104.468 76.0872 99.0681 83.5841 90.7803 88.4241C90.6162 88.5202 90.4444 88.6246 90.2666 88.7327C89.7723 89.033 89.2324 89.3611 88.6868 89.6132C88.4964 89.7014 88.4446 89.7796 88.4152 89.8436C88.3698 89.9426 88.3346 90.115 88.3358 90.4587L87.5858 90.4614L88.3358 90.4587C88.3542 95.6343 88.3523 100.811 88.3504 105.986C88.3498 107.578 88.3492 109.169 88.3492 110.761C88.3492 111.459 88.349 112.158 88.3489 112.856C88.3486 114.253 88.3483 115.65 88.3492 117.047V117.048C88.3492 117.123 88.3492 117.189 88.3497 117.248C88.3672 117.248 88.3856 117.248 88.4047 117.248M106.884 65.9383L104.36 56.7878C106.818 57.1751 108.522 59.415 108.214 62.1737C107.4 69.4727 104.737 75.8121 100.416 81.2709C97.5231 84.9232 94.0836 87.7432 90.1614 89.8018L90.1611 89.802C89.8029 89.9902 89.4885 90.244 89.2825 90.6247C89.0837 90.9922 89.0312 91.3963 89.0319 91.7975V91.7981C89.0547 100.002 89.0493 108.207 89.044 116.413M88.4047 117.248C88.4045 117.248 88.4043 117.248 88.404 117.248L88.4062 117.998L88.4047 117.248ZM88.4047 117.248C88.5712 117.247 88.7068 117.248 88.8207 117.249C88.9096 117.25 88.9851 117.25 89.0517 117.25M89.0517 117.25C89.0518 117.167 89.0504 117.076 89.0488 116.97C89.0465 116.822 89.0438 116.644 89.044 116.413M89.0517 117.25C89.1257 117.25 89.1885 117.248 89.2461 117.245C89.2855 117.242 89.3098 117.239 89.3224 117.237M89.0517 117.25C89.0516 117.293 89.0511 117.335 89.05 117.375C89.0488 117.422 89.0468 117.457 89.0444 117.483C89.0432 117.496 89.042 117.505 89.0411 117.512L89.0399 117.519C89.0396 117.521 89.0394 117.522 89.0394 117.522L89.0401 117.519L89.0423 117.511C89.0444 117.504 89.0481 117.494 89.0539 117.481C89.0658 117.453 89.0862 117.416 89.1189 117.377C89.2005 117.279 89.2918 117.245 89.3224 117.237M89.044 116.413L89.794 116.413L89.044 116.413ZM89.3224 117.237C89.33 117.236 89.3332 117.235 89.3329 117.235C89.3326 117.234 89.3289 117.235 89.3224 117.237ZM97.2831 69.676L97.2832 69.6758C98.6655 66.8894 99.424 63.8844 99.8567 60.7898L97.2831 69.676ZM97.2831 69.676C93.7936 76.7041 88.4746 81.1146 81.4923 82.8049L81.4922 82.8049M97.2831 69.676L81.4922 82.8049M81.4922 82.8049C74.0417 84.6074 67.074 83.0773 60.9402 77.863C55.9307 73.6044 53.0889 67.8441 52.1406 60.9148L52.8836 60.8131M81.4922 82.8049L52.8836 60.8131M52.8836 60.8131L52.1406 60.9147C51.7847 58.3137 49.771 56.6071 47.8097 56.7598L52.8836 60.8131ZM62.6558 91.4839C62.8067 91.8358 62.8258 92.2042 62.8251 92.512L47.8095 56.7598C45.5754 56.9345 43.7256 58.8901 43.7502 61.5165C43.7655 63.1457 44.0842 64.8299 44.4828 66.4803C47.1331 77.4579 52.8026 85.5994 61.8232 90.6024C62.2061 90.8147 62.491 91.0998 62.6558 91.4839ZM104.36 56.7878C102.426 56.4838 100.218 58.2125 99.8567 60.7896L104.36 56.7878Z" fill="#02628C" stroke="#02628C" stroke-width="1.5"/>
<path d="M76.0507 76.5178L76.0508 76.5178C80.7182 76.5104 84.519 72.6972 84.519 68.0265C84.519 63.3572 80.7414 59.5433 76.0719 59.4985L76.0507 76.5178ZM76.0507 76.5178C71.3259 76.5252 67.5078 72.7581 67.481 68.0484M76.0507 76.5178L67.481 68.0484M67.481 68.0484C67.4542 63.3483 71.3695 59.4524 76.0717 59.4985L67.481 68.0484ZM76.0052 58.75L76.005 58.75C70.9769 58.7425 66.755 62.9598 66.75 67.9987C66.745 73.0865 70.9251 77.2563 76.0391 77.25C81.1079 77.2437 85.2538 73.0829 85.25 67.9985C85.2462 62.9438 81.0611 58.7563 76.0052 58.75Z" fill="#02628C" stroke="#02628C" stroke-width="1.5"/>
</svg>
