<svg width="102" height="102" viewBox="0 0 102 102" fill="none" xmlns="http://www.w3.org/2000/svg">
<path d="M23.7204 0C24.9818 0 26.2406 0 27.4993 0C27.6879 0.0531117 27.8711 0.132779 28.065 0.154024C36.3052 1.12331 42.668 5.11466 47.1453 12.0829C47.9526 13.339 48.5714 14.7173 49.2857 16.0583C49.8009 15.0226 50.2736 14.0029 50.8074 13.0177C55.6592 4.06305 66.3744 -1.22688 76.4205 0.358504C83.7234 1.51103 89.5152 5.08013 93.7801 11.1428C94.0988 11.5943 94.7202 11.8598 95.238 12.1413C96.4967 12.8318 97.883 13.3443 99.0275 14.1835C100.703 15.4104 101.354 17.3303 101.84 19.2822V24.0516C101.773 24.7023 101.683 25.3529 101.643 26.0061C101.144 33.8375 99.6914 41.4909 97.2483 48.9451C92.9781 61.9734 86.1665 73.5119 76.8109 83.5314C75.2786 85.1726 73.5923 86.6703 71.9379 88.2743C72.8381 88.8745 73.0267 89.5941 73.0214 90.4466C72.9975 93.4607 73.0161 96.4748 73.0107 99.4888C73.0081 101.18 72.4239 101.77 70.7429 101.77C50.2072 101.77 29.6716 101.77 9.13596 101.77C7.44435 101.77 6.8495 101.183 6.84419 99.5101C6.83622 96.5279 6.83888 93.5483 6.84419 90.5661C6.84685 88.7523 7.38593 88.1867 9.2289 88.2345C10.0654 88.2557 10.3682 88.0539 10.4053 87.159C10.7399 79.0488 12.721 71.3503 16.3113 64.0713C17.1107 62.4487 17.9897 60.866 18.8607 59.2089C17.7586 58.3724 16.6831 57.5518 15.6023 56.7392C9.60069 52.2327 5.17383 46.5179 2.55011 39.4753C0.234438 33.2612 -0.80124 26.8294 0.709788 20.286C2.92986 10.6861 8.84916 4.28877 18.2207 1.19501C19.992 0.610785 21.8854 0.390371 23.7204 0ZM64.2261 57.3181C64.2845 57.3766 64.3456 57.4376 64.404 57.4961C65.6017 56.5666 66.802 55.6398 67.997 54.7051C75.1113 49.1443 80.0879 42.091 82.863 33.4843C84.2996 29.0282 84.8175 24.4447 84.9396 19.7921C84.9848 18.0872 85.5345 16.4859 86.687 15.251C87.7413 14.1197 89.0319 13.2062 90.2641 12.1599C90.2083 12.0856 90.0437 11.8439 89.8578 11.6155C86.3497 7.30552 81.8671 4.68976 76.3833 3.72047C67.0463 2.0687 57.3162 7.04261 53.216 15.583C51.8032 18.5227 51.0411 21.6058 50.9641 24.8616C50.9588 25.0608 50.9641 25.2599 50.9402 25.4564C50.8286 26.4603 50.186 27.0923 49.2804 27.1029C48.3324 27.1162 47.6951 26.4549 47.5676 25.4033C47.3445 23.5683 47.2649 21.6935 46.8134 19.9116C44.1259 9.29986 33.8727 2.29708 23.2716 3.56911C15.998 4.44014 10.4452 8.09422 6.62909 14.3189C3.85931 18.8361 3.10247 23.7967 3.60969 29.0229C4.47275 37.9403 8.087 45.53 14.726 51.529C17.8118 54.3173 21.264 56.7047 24.5596 59.2594C26.2804 60.5925 28.0225 61.8937 29.7699 63.2189C30.4869 62.4116 31.1109 61.6335 31.8093 60.9324C39.075 53.6269 46.3487 46.3346 53.6276 39.0424C54.095 38.575 54.5757 38.113 55.0909 37.7013C58.0757 35.3246 61.4032 34.836 64.8767 36.3072C68.2493 37.7359 70.148 40.4233 70.5862 44.0694C70.8889 46.5869 70.1029 48.8336 68.6742 50.889C67.187 53.0267 65.7105 55.1724 64.2287 57.3155L64.2261 57.3181ZM23.9329 88.1787C24.2091 88.1973 24.3711 88.2159 24.5304 88.2159C38.5439 88.2159 52.5574 88.2212 66.571 88.1973C66.948 88.1973 67.4154 88.0008 67.6916 87.7379C69.8028 85.7276 71.9698 83.7651 73.9508 81.6327C89.8525 64.4909 98.0051 44.2075 98.4433 20.8278C98.5017 17.7048 96.4224 15.3758 93.5597 15.2962C90.5589 15.2112 88.4477 17.341 88.2751 20.5277C88.1555 22.7398 88.0626 24.9678 87.7386 27.156C85.9859 38.992 80.4809 48.7698 71.2634 56.3807C66.7436 60.1118 62.0405 63.6172 57.4172 67.2208C57.21 67.3828 56.971 67.6404 56.7586 67.6324C56.1425 67.6059 55.4308 67.6298 54.9421 67.3297C54.3128 66.9446 54.1826 66.1905 54.5385 65.4708C54.7138 65.1176 54.9368 64.783 55.1599 64.459C58.6971 59.339 62.2423 54.2191 65.7796 49.0991C66.0611 48.6902 66.3319 48.2706 66.563 47.8351C68.0767 44.9564 67.0038 41.3395 64.1703 39.7408C61.5439 38.259 58.7529 38.7184 56.4027 41.066C49.6469 47.8058 42.923 54.5749 36.1486 61.2936C31.6102 65.7948 28.1181 70.9466 26.0308 77.012C24.7959 80.5997 24.0816 84.2856 23.9355 88.1814L23.9329 88.1787ZM23.8585 98.3124H69.5718V91.6681H23.8612V98.3124H23.8585ZM21.6358 61.3095C16.6991 69.656 14.0514 78.5283 13.7275 88.2185C15.7643 88.2185 17.6763 88.1814 19.5883 88.2371C20.3558 88.2584 20.5125 87.9689 20.5497 87.2705C20.956 80.0951 23.0831 73.4614 26.8832 67.3616C27.1727 66.8968 27.4542 66.4295 27.7516 65.9461C25.6829 64.3793 23.7072 62.8816 21.6331 61.3095H21.6358ZM10.2858 98.331H20.3346V91.692H10.2858V98.331Z" fill="#02628C"/>
<path d="M21.6386 61.3096C23.7126 62.8817 25.6884 64.3768 27.7571 65.9462C27.4596 66.4295 27.1755 66.8996 26.8887 67.3617C23.0859 73.4589 20.9588 80.0952 20.5551 87.2706C20.5153 87.9716 20.3613 88.2611 19.5938 88.2372C17.6844 88.1841 15.7724 88.2186 13.7329 88.2186C14.0569 78.5257 16.7045 69.6561 21.6412 61.3096H21.6386Z" fill="white"/>
<path d="M25.4678 6.84824V10.1571C21.7553 10.2766 18.5341 11.5566 15.9183 14.1777C13.3291 16.7722 12.0545 19.9589 11.9323 23.6714H8.73498C8.02328 16.5252 14.7605 6.76061 25.4678 6.84824Z" fill="#02628C"/>
<path d="M11.9084 30.4762H8.65527V27.2178H11.9084V30.4762Z" fill="#02628C"/>
</svg>
