<svg width="100" height="100" viewBox="0 0 100 100" fill="none" xmlns="http://www.w3.org/2000/svg">
<path d="M23.2919 0C24.5305 0 25.7665 0 27.0025 0C27.1877 0.052188 27.3676 0.13047 27.558 0.151345C35.6494 1.10378 41.8972 5.0257 46.2936 11.8728C47.0864 13.107 47.6939 14.4613 48.3954 15.779C48.9013 14.7614 49.3654 13.7594 49.8895 12.7913C54.6536 3.99238 65.1754 -1.20554 75.0399 0.352269C82.2109 1.48475 87.8981 4.99178 92.0859 10.949C92.3988 11.3926 93.009 11.6536 93.5175 11.9302C94.7535 12.6086 96.1147 13.1122 97.2385 13.9368C98.8839 15.1423 99.5228 17.0289 100 18.9468V23.6333C99.9348 24.2726 99.8462 24.9119 99.807 25.5538C99.3168 33.249 97.8904 40.7692 95.4914 48.0938C91.2984 60.8955 84.6099 72.2334 75.4233 82.0786C73.9187 83.6912 72.2628 85.163 70.6383 86.739C71.5223 87.3288 71.7074 88.0359 71.7022 88.8735C71.6787 91.8352 71.697 94.7969 71.6918 97.7585C71.6892 99.4207 71.1155 100 69.4649 100C49.3002 100 29.1356 100 8.97091 100C7.30987 100 6.72576 99.4233 6.72055 97.7794C6.71272 94.849 6.71533 91.9213 6.72055 88.9909C6.72315 87.2087 7.2525 86.6529 9.06218 86.6999C9.88358 86.7208 10.1808 86.5224 10.2174 85.6431C10.5459 77.674 12.4912 70.1093 16.0167 62.957C16.8016 61.3626 17.6647 59.8074 18.52 58.1792C17.4378 57.3572 16.3817 56.5509 15.3204 55.7524C9.42725 51.3243 5.08036 45.7088 2.50404 38.7887C0.230203 32.6827 -0.786766 26.3628 0.696965 19.9332C2.87693 10.5002 8.68929 4.21418 17.8916 1.17423C19.6308 0.600162 21.4901 0.383582 23.2919 0ZM63.0658 56.3213C63.1232 56.3787 63.1831 56.4387 63.2405 56.4961C64.4165 55.5828 65.5952 54.6721 66.7686 53.7536C73.7544 48.2895 78.6411 41.359 81.366 32.9019C82.7767 28.5233 83.2852 24.0195 83.4052 19.4479C83.4495 17.7726 83.9893 16.1991 85.121 14.9858C86.1562 13.8742 87.4235 12.9765 88.6334 11.9484C88.5787 11.8754 88.417 11.6379 88.2345 11.4135C84.7898 7.17846 80.3882 4.6082 75.0034 3.65577C65.8351 2.03272 56.2808 6.92013 52.2546 15.312C50.8674 18.2006 50.119 21.2301 50.0434 24.4292C50.0382 24.6249 50.0434 24.8206 50.0199 25.0137C49.9104 26.0001 49.2794 26.6211 48.3902 26.6315C47.4593 26.6446 46.8334 25.9948 46.7083 24.9615C46.4892 23.1584 46.411 21.3162 45.9677 19.5653C43.3288 9.13812 33.2608 2.25713 22.8512 3.50703C15.709 4.36291 10.2565 7.95345 6.50933 14.0699C3.78959 18.5085 3.04642 23.3828 3.54448 28.5181C4.39195 37.2805 7.94091 44.7381 14.4599 50.6328C17.49 53.3726 20.8799 55.7185 24.1159 58.2287C25.8056 59.5387 27.5162 60.8173 29.232 62.1194C29.9361 61.3261 30.5489 60.5615 31.2347 59.8727C38.3691 52.6942 45.5114 45.5288 52.6588 38.3634C53.1178 37.9041 53.5897 37.4501 54.0956 37.0456C57.0266 34.7102 60.2939 34.2301 63.7047 35.6757C67.0163 37.0796 68.8808 39.7203 69.311 43.303C69.6083 45.7767 68.8364 47.9842 67.4335 50.0039C65.9733 52.1045 64.5235 54.2129 63.0684 56.3187L63.0658 56.3213ZM23.5005 86.6451C23.7717 86.6634 23.9308 86.6816 24.0872 86.6816C37.8476 86.6816 51.608 86.6868 65.3683 86.6634C65.7386 86.6634 66.1975 86.4703 66.4687 86.2119C68.5418 84.2366 70.6696 82.3083 72.6149 80.2129C88.2292 63.3693 96.2346 43.4387 96.6649 20.4655C96.7222 17.3969 94.6805 15.1084 91.8695 15.0301C88.9229 14.9466 86.8498 17.0394 86.6803 20.1707C86.563 22.3443 86.4717 24.5336 86.1536 26.6837C84.4326 38.3138 79.027 47.9216 69.976 55.4001C65.5378 59.0664 60.9197 62.5108 56.3799 66.0517C56.1765 66.2109 55.9418 66.464 55.7332 66.4562C55.1282 66.4301 54.4294 66.4536 53.9496 66.1587C53.3316 65.7803 53.2038 65.0393 53.5532 64.3321C53.7253 63.9851 53.9444 63.6563 54.1634 63.3379C57.6368 58.307 61.1179 53.2761 64.5913 48.2452C64.8677 47.8433 65.1336 47.431 65.3605 47.0031C66.8468 44.1745 65.7934 40.6205 63.011 39.0497C60.4321 37.5936 57.6915 38.045 55.3838 40.3517C48.75 46.9744 42.1475 53.6258 35.4955 60.2275C31.0391 64.6505 27.6101 69.7127 25.5605 75.6726C24.348 79.1979 23.6465 82.8197 23.5031 86.6477L23.5005 86.6451ZM23.4275 96.6026H68.3149V90.0738H23.4301V96.6026H23.4275ZM21.2449 60.2432C16.3974 68.4445 13.7976 77.1625 13.4795 86.6842C15.4795 86.6842 17.357 86.6477 19.2345 86.7025C19.9881 86.7234 20.1419 86.439 20.1784 85.7527C20.5774 78.7021 22.6661 72.1838 26.3976 66.19C26.6818 65.7334 26.9582 65.2741 27.2503 64.7992C25.2189 63.2597 23.2789 61.788 21.2423 60.2432H21.2449ZM10.1 96.6208H19.9672V90.0973H10.1V96.6208Z" fill="#02628C"/>
<path d="M21.2477 60.2432C23.2843 61.7879 25.2243 63.257 27.2557 64.7992C26.9636 65.2741 26.6846 65.736 26.403 66.19C22.6689 72.1812 20.5802 78.7021 20.1838 85.7526C20.1447 86.4415 19.9935 86.7259 19.2399 86.7025C17.365 86.6503 15.4875 86.6842 13.4849 86.6842C13.803 77.1599 16.4028 68.4445 21.2503 60.2432H21.2477Z" fill="white"/>
<path d="M25.0079 6.72909V9.9804C21.3624 10.0978 18.1994 11.3556 15.6309 13.931C13.0885 16.4804 11.8368 19.6117 11.7169 23.2596H8.57731C7.87847 16.2377 14.494 6.64298 25.0079 6.72909Z" fill="#02628C"/>
<path d="M11.6933 29.9459H8.49902V26.7441H11.6933V29.9459Z" fill="#02628C"/>
</svg>
