<?xml version="1.0" encoding="utf-8"?>
<!-- Generator: Adobe Illustrator 22.1.0, SVG Export Plug-In . SVG Version: 6.00 Build 0)  -->
<svg version="1.1" xmlns="http://www.w3.org/2000/svg" xmlns:xlink="http://www.w3.org/1999/xlink" x="0px" y="0px"
	 viewBox="0 0 100 100" style="enable-background:new 0 0 100 100;" xml:space="preserve">
<style type="text/css">
	.st0{display:none;}
	.st1{display:inline;fill:#02628C;}
	.st2{display:inline;fill:#FFFFFF;}
	.st3{fill:#02628C;}
	.st4{display:inline;}
	.st5{fill:none;stroke:#D02300;stroke-width:1.5028;stroke-linecap:round;stroke-miterlimit:10;}
	.st6{fill:none;stroke:#D02300;stroke-width:1.5028;stroke-linecap:round;stroke-miterlimit:1;}
	.st7{fill:none;stroke:#D02300;stroke-width:1.5028;stroke-miterlimit:10;}
</style>
<g id="Слой_1" class="st0">
	<path class="st1" d="M27.4,7.7c1,0,2.1,0,3.1,0c0.2,0,0.3,0.1,0.5,0.1c6.9,0.8,12.1,4.1,15.9,9.9c0.7,1,1.2,2.2,1.8,3.3
		c0.4-0.9,0.8-1.7,1.3-2.5C53.9,11,62.8,6.6,71.2,8c6.1,1,10.9,3.9,14.4,9c0.3,0.4,0.8,0.6,1.2,0.8c1,0.6,2.2,1,3.2,1.7
		c1.4,1,1.9,2.6,2.3,4.2v4c-0.1,0.5-0.1,1.1-0.2,1.6c-0.4,6.5-1.6,12.9-3.7,19.1c-3.6,10.8-9.2,20.4-17,28.8
		c-1.3,1.4-2.7,2.6-4.1,3.9c0.7,0.5,0.9,1.1,0.9,1.8c0,2.5,0,5,0,7.5c0,1.4-0.5,1.9-1.9,1.9c-17.1,0-34.1,0-51.2,0
		c-1.4,0-1.9-0.5-1.9-1.9c0-2.5,0-5,0-7.4c0-1.5,0.5-2,2-1.9c0.7,0,0.9-0.2,1-0.9c0.3-6.7,1.9-13.2,4.9-19.2c0.7-1.3,1.4-2.7,2.1-4
		c-0.9-0.7-1.8-1.4-2.7-2.1c-5-3.7-8.7-8.5-10.9-14.4C7.9,35.3,7,30,8.3,24.5c1.8-8,6.8-13.3,14.6-15.9C24.3,8.2,25.9,8,27.4,7.7z
		 M61.1,55.4c0,0,0.1,0.1,0.1,0.1c1-0.8,2-1.5,3-2.3c5.9-4.6,10.1-10.5,12.4-17.7c1.2-3.7,1.6-7.5,1.7-11.4c0-1.4,0.5-2.8,1.5-3.8
		c0.9-0.9,1.9-1.7,3-2.6c0-0.1-0.2-0.3-0.3-0.5c-2.9-3.6-6.6-5.8-11.2-6.6c-7.8-1.4-15.9,2.8-19.3,9.9c-1.2,2.4-1.8,5-1.9,7.7
		c0,0.2,0,0.3,0,0.5c-0.1,0.8-0.6,1.4-1.4,1.4c-0.8,0-1.3-0.5-1.4-1.4c-0.2-1.5-0.3-3.1-0.6-4.6C44.4,15.4,35.8,9.6,27,10.6
		c-6,0.7-10.7,3.8-13.8,8.9c-2.3,3.8-2.9,7.9-2.5,12.2c0.7,7.4,3.7,13.7,9.2,18.7c2.6,2.3,5.4,4.3,8.2,6.4c1.4,1.1,2.9,2.2,4.3,3.3
		c0.6-0.7,1.1-1.3,1.7-1.9c6-6.1,12.1-12.1,18.1-18.2c0.4-0.4,0.8-0.8,1.2-1.1c2.5-2,5.2-2.4,8.1-1.2c2.8,1.2,4.4,3.4,4.7,6.5
		c0.3,2.1-0.4,4-1.6,5.7C63.5,51.8,62.3,53.6,61.1,55.4L61.1,55.4z M27.6,81c0.2,0,0.4,0,0.5,0c11.7,0,23.3,0,35,0
		c0.3,0,0.7-0.2,0.9-0.4c1.8-1.7,3.6-3.3,5.2-5.1c13.2-14.3,20-31.1,20.4-50.6c0-2.6-1.7-4.5-4.1-4.6c-2.5-0.1-4.3,1.7-4.4,4.4
		c-0.1,1.8-0.2,3.7-0.4,5.5c-1.5,9.8-6,18-13.7,24.3c-3.8,3.1-7.7,6-11.5,9c-0.2,0.1-0.4,0.3-0.5,0.3c-0.5,0-1.1,0-1.5-0.3
		c-0.5-0.3-0.6-0.9-0.3-1.5c0.1-0.3,0.3-0.6,0.5-0.8c2.9-4.3,5.9-8.5,8.8-12.8c0.2-0.3,0.5-0.7,0.7-1.1c1.3-2.4,0.4-5.4-2-6.7
		c-2.2-1.2-4.5-0.9-6.5,1.1c-5.6,5.6-11.2,11.2-16.8,16.8c-3.8,3.7-6.7,8-8.4,13.1C28.3,74.7,27.7,77.8,27.6,81L27.6,81z M27.5,89.5
		h38v-5.5h-38L27.5,89.5L27.5,89.5z M25.7,58.7c-4.1,6.9-6.3,14.3-6.6,22.4c1.7,0,3.3,0,4.9,0c0.6,0,0.8-0.2,0.8-0.8
		c0.3-6,2.1-11.5,5.3-16.6c0.2-0.4,0.5-0.8,0.7-1.2C29,61.2,27.4,60,25.7,58.7L25.7,58.7z M16.2,89.5h8.4v-5.5h-8.4V89.5z"/>
	<path class="st2" d="M25.7,58.7c1.7,1.3,3.4,2.6,5.1,3.9c-0.2,0.4-0.5,0.8-0.7,1.2c-3.2,5.1-4.9,10.6-5.3,16.6
		c0,0.6-0.2,0.8-0.8,0.8c-1.6,0-3.2,0-4.9,0C19.4,73,21.6,65.6,25.7,58.7L25.7,58.7z"/>
	<path class="st1" d="M28.8,13.4v2.8c-3.1,0.1-5.8,1.2-7.9,3.3c-2.2,2.2-3.2,4.8-3.3,7.9h-2.7C14.3,21.4,19.9,13.3,28.8,13.4z"/>
	<path class="st3" d="M17.6,33h-2.7v-2.7h2.7V33z"/>
</g>
<g id="Слой_2">
	<path class="st3" d="M85.5,17.2c-0.1,0-0.2,0-0.3,0c-1.3-2.3-5.4-7.8-14.6-9c-1.3-0.2-2.6-0.2-4-0.1c-12.4,1.1-16.6,10-18,15.7
		C47,17.7,42.4,8,28.6,8c-0.1,0-0.3,0-0.4,0C8,8.3,8,31.1,8,31.3c0,0.5,0.1,12.5,10.2,20.6c2.4,1.9,4.5,3.5,6.2,4.9
		c-6.7,9.6-7.4,21.7-7.5,24.8h-1.4c-0.8,0-1.4,0.6-1.4,1.4v7.6c0,0.8,0.6,1.4,1.4,1.4H66c0.8,0,1.4-0.6,1.4-1.4V83
		c0-0.8-0.6-1.4-1.4-1.4h-0.7C92.4,57.8,92,24.6,92,24.3C92,24.2,92.3,17.8,85.5,17.2z M19.1,50.7c-9.6-7.6-9.7-19.3-9.7-19.4
		c0-0.9,0-21.6,18.8-21.8c0.1,0,0.2,0,0.4,0c18.4,0,19.3,18.2,19.3,19c0,0,0,0.1,0,0.1c0,0,0,0.1,0,0.1c0,0.1,0.1,0.1,0.1,0.2
		c0,0,0,0.1,0.1,0.1c0.1,0.1,0.1,0.1,0.2,0.2c0,0,0,0,0,0c0.1,0,0.1,0,0.2,0c0,0,0,0,0.1,0c0,0,0,0,0,0c0,0,0,0,0,0c0,0,0,0,0,0
		c0,0,0.1,0,0.1,0c0,0,0.1,0,0.1,0c0,0,0.1-0.1,0.1-0.1c0,0,0.1,0,0.1-0.1c0,0,0.1-0.1,0.1-0.1c0,0,0.1-0.1,0.1-0.1c0,0,0-0.1,0-0.1
		c0,0,0-0.1,0-0.1c0-0.7,0.4-17.4,17.3-18.9c1.2-0.1,2.5-0.1,3.7,0.1c7.8,1,11.6,5.3,13.1,7.6c-1,0.2-1.9,0.6-2.6,1.3
		c-2,1.9-1.8,5-1.8,5.1c0.3,12.1-5,19.2-7.9,23.1c-0.2,0.3-0.4,0.6-0.6,0.9c-1.7,2.3-8.9,8.2-13.4,11.9l6.6-9.1
		c0.9-1.2,1.5-2.6,1.9-3.9c0.8-3,0-5.6-2.1-7.4c-2.4-2.1-5-2-6.7-1.5c-1.4,0.4-2.7,1.2-3.9,2.3C49.4,43.5,37.4,55.5,32.4,61
		c0,0,0,0,0,0C31.1,60.1,27.4,57.3,19.1,50.7z M25.5,57.7c3.2,2.5,5,3.9,5.8,4.5c-6.3,7.8-6.5,18.1-6.4,19.4h-6.5
		C18.4,78.6,19.2,66.8,25.5,57.7z M24.9,90.5h-9.3v-7.4h2h0h7.3V90.5z M65.9,83.1v7.4H26.4v-7.4H65.9z M63.2,81.5
		c0,0-0.1,0.1-0.1,0.1H26.4c0-1.2,0.3-12.1,7.1-19.6c5-5.5,17-17.5,20.6-21c1-1,2.1-1.6,3.2-2c1.9-0.5,3.7-0.1,5.3,1.2
		c1.7,1.4,2.2,3.4,1.6,5.9c-0.3,1.2-0.8,2.3-1.6,3.4l-8.7,12c-0.3,0.4-0.2,1,0.1,1.3c0.4,0.3,0.9,0.4,1.3,0.1
		c4.3-3.3,14.4-11.4,16.5-14.4c0.2-0.3,0.4-0.5,0.6-0.9c2.9-4,8.4-11.4,8.1-24c0,0-0.1-2.5,1.4-3.9c0.8-0.8,2-1.1,3.5-1
		c5.4,0.4,5.2,5.3,5.2,5.5C90.5,24.6,90.9,58.1,63.2,81.5z"/>
	<path class="st3" d="M17,27.1l-1.5-0.1c0-0.1,1.3-13.4,12.9-13.4c0.2,0,0.3,0,0.5,0l0,1.5c-0.1,0-0.3,0-0.4,0
		C18.2,15.1,17,26.6,17,27.1z"/>
	<rect x="15.5" y="30.3" class="st3" width="1.5" height="1.7"/>
</g>
<g id="Слой_3" class="st0">
	<g class="st4">
		<path class="st5" d="M54.6,9.9c0,0,0.2-18.1,18-19.6c1.3-0.1,2.6-0.1,3.8,0.1c10.3,1.3,13.8,8.2,14.1,8.8"/>
		<path class="st5" d="M54.6,9.9c0,0-0.8-20-20.4-19.7C14.5-9.6,14.7,12.8,14.7,12.8s0,12,9.9,20c10.5,8.3,13.7,10.7,13.7,10.7"/>
		<path class="st5" d="M72,72.7H21.5c-0.4,0-0.7-0.3-0.7-0.7v-7.6c0-0.4,0.3-0.7,0.7-0.7H72c0.4,0,0.7,0.3,0.7,0.7V72
			C72.6,72.4,72.3,72.7,72,72.7z"/>
		<path class="st5" d="M23.6,63.8c0,0-0.2-14.7,7.6-25.6"/>
		<path class="st6" d="M31.6,72.1v-8.9c0,0-0.2-12,7.3-20.2c5.1-5.6,17.4-17.8,20.6-21.1c1-1,2.2-1.8,3.6-2.1c1.7-0.5,3.8-0.5,6,1.4
			c2.4,2,2.3,4.7,1.8,6.7c-0.3,1.3-0.9,2.5-1.7,3.6l-8.7,12c-0.2,0.2,0.1,0.5,0.4,0.3c3.8-3,14.3-11.3,16.4-14.3
			c2.6-3.6,8.9-11.1,8.6-24.4c0,0-0.3-6.2,5.6-5.7c6.2,0.5,5.9,6.3,5.9,6.3S98,39.6,69.6,63.5"/>
		<path class="st7" d="M22.2,8.4c0,0,1.1-13,12.6-12.7"/>
		<line class="st7" x1="22.2" y1="11.7" x2="22.2" y2="13.4"/>
		<path class="st7" d="M60.4,44.5"/>
	</g>
</g>
</svg>
