<svg width="80" height="80" viewBox="0 0 80 80" fill="none" xmlns="http://www.w3.org/2000/svg">
<path d="M40.0013 12.75C39.4516 12.75 39.0063 12.3182 39.0063 11.7851V0.964942C39.0063 0.431808 39.4516 0 40.0013 0C40.5511 0 40.9963 0.431808 40.9963 0.964942V11.7866C40.9963 12.3198 40.5511 12.7516 40.0013 12.7516V12.75Z" fill="#02628C"/>
<path d="M13.1469 38.7921C13.1469 39.3252 12.7016 39.757 12.1519 39.757H0.994977C0.445248 39.757 0 39.3252 0 38.7921C0 38.259 0.445248 37.8271 0.994977 37.8271H12.1535C12.7032 37.8271 13.1485 38.259 13.1485 38.7921H13.1469Z" fill="#02628C"/>
<path d="M80.0005 38.7921C80.0005 39.3252 79.5553 39.757 79.0056 39.757H67.847C67.2973 39.757 66.8521 39.3252 66.8521 38.7921C66.8521 38.259 67.2973 37.8271 67.847 37.8271H79.0056C79.5553 37.8271 80.0005 38.259 80.0005 38.7921Z" fill="#02628C"/>
<path d="M26.5728 16.2417C26.097 16.5082 25.4894 16.3492 25.2145 15.8878L19.6353 6.51588C19.3604 6.05445 19.5244 5.4652 20.0002 5.19863C20.4759 4.93206 21.0835 5.09107 21.3584 5.55249L26.9377 14.9244C27.2125 15.3859 27.0486 15.9751 26.5728 16.2417Z" fill="#02628C"/>
<path d="M53.4267 16.241C52.9509 15.9744 52.7885 15.3852 53.0618 14.9237L58.6411 5.5518C58.9159 5.09038 59.5235 4.93293 59.9993 5.19794C60.4751 5.4645 60.6375 6.05376 60.3642 6.51518L54.7849 15.8871C54.5101 16.3486 53.9025 16.506 53.4267 16.241Z" fill="#02628C"/>
<path d="M16.7464 25.7717C16.4716 26.2332 15.864 26.3906 15.3882 26.1256L5.72453 20.7148C5.24875 20.4482 5.0864 19.8589 5.35966 19.3975C5.63452 18.9361 6.24212 18.7786 6.7179 19.0436L16.3816 24.4545C16.8574 24.7211 17.0197 25.3103 16.7464 25.7717Z" fill="#02628C"/>
<path d="M74.6405 58.1877C74.3656 58.6492 73.758 58.8066 73.2822 58.5416L63.6186 53.1308C63.1428 52.8642 62.9804 52.2749 63.2537 51.8135C63.5286 51.3521 64.1362 51.1946 64.6119 51.4597L74.2756 56.8705C74.7514 57.1371 74.9137 57.7263 74.6405 58.1877Z" fill="#02628C"/>
<path d="M63.2544 25.7715C62.9795 25.31 63.1435 24.7208 63.6193 24.4542L73.283 19.0434C73.7587 18.7768 74.3663 18.9358 74.6412 19.3972C74.9161 19.8586 74.7521 20.4479 74.2763 20.7145L64.6127 26.1253C64.1369 26.3919 63.5293 26.2329 63.2544 25.7715Z" fill="#02628C"/>
<path d="M5.36037 58.1875C5.08551 57.726 5.24946 57.1368 5.72525 56.8702L15.3889 51.4594C15.8647 51.1928 16.4723 51.3518 16.7472 51.8132C17.022 52.2747 16.8581 52.8639 16.3823 53.1305L6.71862 58.5413C6.24283 58.8079 5.63523 58.6489 5.36037 58.1875Z" fill="#02628C"/>
<path d="M48.5098 66.9686C47.3476 66.9343 41.2926 67.0029 40.0002 67.0029C38.5037 67.0029 32.6512 66.9343 31.4907 66.9686C30.306 67.0044 29.5698 67.6171 29.5698 68.833C29.5698 70.0489 30.134 70.713 31.698 70.7021C32.9164 70.6927 37.4428 70.7021 40.0002 70.7021C42.5576 70.7021 47.0856 70.6927 48.3024 70.7021C49.8664 70.7146 50.4306 69.9928 50.4306 68.833C50.4306 67.6171 49.696 67.0044 48.5098 66.9686Z" fill="#02628C"/>
<path d="M47.2303 72.0672C46.2434 72.0329 41.0997 72.1015 40.0002 72.1015C38.7288 72.1015 33.7571 72.0329 32.7702 72.0672C31.7623 72.1031 31.1387 72.7142 31.1387 73.9285C31.1387 75.1429 31.6177 75.8054 32.947 75.7929C33.9822 75.7836 37.827 75.7929 40.0002 75.7929C42.1734 75.7929 46.0199 75.7836 47.0535 75.7929C48.3828 75.8054 48.8618 75.0836 48.8618 73.9285C48.8618 72.7157 48.2381 72.1031 47.2303 72.0672Z" fill="#02628C"/>
<path d="M44.1629 77.1484C43.1534 77.1484 41.845 77.1609 39.9997 77.1609C38.1545 77.1609 36.846 77.1484 35.8366 77.1484C35.1695 77.1484 35.0956 77.8655 35.7369 78.4766C36.6146 79.3122 37.9246 79.9996 40.0013 79.9996C42.0781 79.9996 43.3865 79.3122 44.2642 78.4766C44.9055 77.8655 44.8316 77.1484 44.1645 77.1484H44.1629Z" fill="#02628C"/>
<path d="M37.0609 66.0914C33.0761 66.0914 30.2102 65.9745 29.0143 64.7866C28.217 63.9947 28.0659 62.9222 27.9052 61.7858C27.836 61.2948 27.7637 60.7866 27.6399 60.2534C27.1111 57.9977 25.7368 55.6859 23.5539 53.3835C20.7555 50.431 17.5551 45.2134 18.1981 37.1276C18.9359 27.8491 27.8714 17.916 39.9976 17.916C52.1238 17.916 61.0593 27.8491 61.7971 37.1276C62.44 45.2134 59.2397 50.431 56.4412 53.3835C54.2584 55.6875 52.8841 57.9993 52.3552 60.2534C52.2299 60.7866 52.1591 61.2948 52.09 61.7858C51.9293 62.9222 51.7782 63.9947 50.9809 64.7866C49.642 66.1163 46.2118 66.1054 41.4651 66.0883C40.4991 66.0852 39.4929 66.0852 38.5268 66.0883C38.0221 66.0899 37.5318 66.0914 37.0593 66.0914H37.0609ZM39.9992 19.651C34.7318 19.651 29.7247 21.7088 25.9023 25.4454C22.522 28.7486 20.3102 33.1649 19.9855 37.2601C19.3924 44.7239 22.3162 49.5081 24.8736 52.2081C27.2702 54.7366 28.7876 57.315 29.3872 59.8684C29.5302 60.4763 29.6106 61.0469 29.6813 61.5504C29.8115 62.4686 29.9128 63.1919 30.297 63.5738C31.1055 64.3766 35.0452 64.3642 38.5236 64.3517C39.4945 64.3486 40.5039 64.3486 41.4748 64.3517C44.9516 64.3626 48.8929 64.3766 49.7014 63.5738C50.0856 63.1919 50.1885 62.467 50.3171 61.5504C50.3878 61.0469 50.4682 60.4748 50.6112 59.8684C51.2092 57.315 52.7282 54.7366 55.1248 52.2081C57.6821 49.5081 60.6076 44.7239 60.0129 37.2601C59.6866 33.1649 57.4748 28.7486 54.096 25.4454C50.2737 21.7088 45.2666 19.651 39.9992 19.651Z" fill="#02628C"/>
<path d="M36.5846 54.7288L31.7061 52.8113L32.505 47.943C32.2157 47.6936 31.9376 47.4286 31.6756 47.1511L26.6685 48.0007L24.6175 43.3007L28.7324 40.4058C28.7099 40.0302 28.7067 39.6529 28.7244 39.2772L24.5645 36.4448L26.5415 31.7151L31.5614 32.4899C31.8186 32.2093 32.0919 31.9396 32.378 31.6855L31.502 26.8296L36.3483 24.8405L39.3332 28.8312C39.7206 28.8094 40.1096 28.8063 40.497 28.8234L43.4176 24.7891L48.296 26.7065L47.4972 31.5748C47.7865 31.8243 48.0646 32.0893 48.3266 32.3667L53.3336 31.5172L55.3846 36.2172L51.2713 39.112C51.2938 39.4877 51.297 39.8649 51.2794 40.2406L55.4393 43.0731L53.4622 47.8027L48.4423 47.0279C48.1851 47.3085 47.9119 47.5782 47.6257 47.8323L48.5018 52.6882L43.6555 54.6773L40.6705 50.6882C40.2832 50.71 39.8958 50.7131 39.5068 50.696L36.5862 54.7303L36.5846 54.7288ZM33.6993 51.7217L35.9384 52.6009L38.6292 48.8845L39.1451 48.9298C39.7624 48.9843 40.3876 48.9796 41.0033 48.9173L41.5193 48.8643L44.2679 52.5385L46.4925 51.625L45.6856 47.1526L46.0843 46.8315C46.56 46.4465 46.9989 46.0147 47.3879 45.547L47.7125 45.1557L52.337 45.8697L53.2436 43.6982L49.4116 41.0886L49.4582 40.5882C49.5144 39.9896 49.5096 39.3832 49.4453 38.7862L49.3907 38.2858L53.1793 35.6201L52.2374 33.4626L47.6274 34.2452L47.2962 33.8586C46.9008 33.3972 46.454 32.9716 45.9717 32.5943L45.5683 32.2794L46.3045 27.7946L44.0654 26.9154L41.3746 30.6317L40.8586 30.5865C40.2414 30.5319 39.6161 30.5366 39.0005 30.6005L38.4845 30.6535L35.7358 26.9793L33.5112 27.8928L34.3181 32.3652L33.9195 32.6863C33.4437 33.0714 33.0049 33.5032 32.6159 33.9708L32.2912 34.3621L27.6667 33.6481L26.7602 35.8196L30.5922 38.4292L30.5456 38.9296C30.4893 39.5282 30.4941 40.1346 30.5584 40.7316L30.6131 41.232L26.8245 43.8977L27.7664 46.0552L32.378 45.2726L32.7091 45.6592C33.1045 46.1207 33.5514 46.5462 34.0336 46.9235L34.4371 47.2384L33.7009 51.7233L33.6993 51.7217ZM40.0019 45.9866C39.1853 45.9866 38.3704 45.8338 37.5908 45.5267C36.0027 44.9016 34.7586 43.7153 34.0915 42.1845C33.4228 40.6537 33.4099 38.9623 34.0545 37.4206C34.6991 35.8804 35.9223 34.6739 37.5008 34.0269C39.0792 33.3784 40.8232 33.366 42.413 33.9911C44.0011 34.6162 45.2452 35.8025 45.9123 37.3333C47.2914 40.4931 45.7628 44.1534 42.503 45.4909C41.6977 45.8214 40.8506 45.9866 40.0019 45.9866ZM40.0019 35.2694C39.3911 35.2694 38.7786 35.3894 38.1984 35.6263C37.0603 36.094 36.1779 36.9623 35.7133 38.0738C35.2488 39.1852 35.2585 40.4043 35.7407 41.508C36.734 43.787 39.4554 44.8564 41.8054 43.8915C44.1554 42.9265 45.2581 40.2889 44.2631 38.0099C43.7809 36.9062 42.8855 36.0504 41.7395 35.5998C41.1785 35.3785 40.5886 35.2694 40.0019 35.2694Z" fill="#02628C"/>
</svg>
