<svg width="90" height="90" viewBox="0 0 90 90" fill="none" xmlns="http://www.w3.org/2000/svg">
<path d="M45.0017 14.3438C44.3832 14.3438 43.8823 13.8581 43.8823 13.2583V1.08556C43.8823 0.485786 44.3832 0 45.0017 0C45.6201 0 46.121 0.485786 46.121 1.08556V13.26C46.121 13.8598 45.6201 14.3456 45.0017 14.3456V14.3438Z" fill="#02628C"/>
<path d="M14.7903 43.6412C14.7903 44.241 14.2894 44.7268 13.671 44.7268H1.11936C0.500907 44.7268 0 44.241 0 43.6412C0 43.0415 0.500907 42.5557 1.11936 42.5557H13.6728C14.2912 42.5557 14.7921 43.0415 14.7921 43.6412H14.7903Z" fill="#02628C"/>
<path d="M90.0006 43.6412C90.0006 44.241 89.4997 44.7268 88.8813 44.7268H76.3279C75.7094 44.7268 75.2085 44.241 75.2085 43.6412C75.2085 43.0415 75.7094 42.5557 76.3279 42.5557H88.8813C89.4997 42.5557 90.0006 43.0415 90.0006 43.6412Z" fill="#02628C"/>
<path d="M29.8942 18.2721C29.3589 18.572 28.6754 18.3931 28.3661 17.874L22.0894 7.33049C21.7802 6.81139 21.9647 6.14847 22.4999 5.84858C23.0352 5.54869 23.7187 5.72757 24.028 6.24668L30.3047 16.7902C30.6139 17.3093 30.4294 17.9722 29.8942 18.2721Z" fill="#02628C"/>
<path d="M60.1056 18.2713C59.5703 17.9714 59.3877 17.3085 59.6951 16.7894L65.9718 6.2459C66.281 5.72679 66.9646 5.54967 67.4998 5.8478C68.0351 6.14769 68.2177 6.81061 67.9103 7.32971L61.6336 17.8732C61.3244 18.3923 60.6408 18.5694 60.1056 18.2713Z" fill="#02628C"/>
<path d="M18.8397 28.9941C18.5305 29.5132 17.847 29.6903 17.3117 29.3922L6.44004 23.305C5.90478 23.0051 5.72214 22.3422 6.02955 21.823C6.33878 21.3039 7.02232 21.1268 7.55759 21.425L18.4293 27.5122C18.9645 27.8121 19.1472 28.475 18.8397 28.9941Z" fill="#02628C"/>
<path d="M83.9706 65.4609C83.6614 65.98 82.9778 66.1571 82.4426 65.859L71.5709 59.7718C71.0356 59.4719 70.853 58.809 71.1604 58.2898C71.4696 57.7707 72.1532 57.5936 72.6884 57.8917L83.5601 63.979C84.0954 64.2789 84.278 64.9418 83.9706 65.4609Z" fill="#02628C"/>
<path d="M71.1612 28.9939C70.852 28.4748 71.0364 27.8119 71.5717 27.512L82.4434 21.4248C82.9786 21.1249 83.6622 21.3037 83.9714 21.8229C84.2806 22.342 84.0962 23.0049 83.5609 23.3048L72.6893 29.392C72.154 29.6919 71.4704 29.513 71.1612 28.9939Z" fill="#02628C"/>
<path d="M6.03036 65.4607C5.72113 64.9416 5.90558 64.2787 6.44085 63.9788L17.3125 57.8915C17.8478 57.5917 18.5313 57.7705 18.8406 58.2897C19.1498 58.8088 18.9653 59.4717 18.4301 59.7716L7.55839 65.8588C7.02313 66.1587 6.33958 65.9798 6.03036 65.4607Z" fill="#02628C"/>
<path d="M54.5736 75.3399C53.2662 75.3013 46.4543 75.3785 45.0004 75.3785C43.3168 75.3785 36.7327 75.3013 35.4271 75.3399C34.0943 75.3802 33.2661 76.0695 33.2661 77.4374C33.2661 78.8053 33.9008 79.5524 35.6603 79.5401C37.0311 79.5296 42.1233 79.5401 45.0004 79.5401C47.8774 79.5401 52.9715 79.5296 54.3404 79.5401C56.0999 79.5541 56.7346 78.7422 56.7346 77.4374C56.7346 76.0695 55.9082 75.3802 54.5736 75.3399Z" fill="#02628C"/>
<path d="M53.1344 81.0762C52.0241 81.0377 46.2375 81.1148 45.0006 81.1148C43.5702 81.1148 37.977 81.0377 36.8667 81.0762C35.7329 81.1166 35.0312 81.804 35.0312 83.1702C35.0312 84.5364 35.5701 85.2817 37.0656 85.2677C38.2302 85.2572 42.5557 85.2677 45.0006 85.2677C47.4454 85.2677 51.7728 85.2572 52.9355 85.2677C54.431 85.2817 54.9699 84.4697 54.9699 83.1702C54.9699 81.8058 54.2682 81.1166 53.1344 81.0762Z" fill="#02628C"/>
<path d="M49.6837 86.792C48.548 86.792 47.0761 86.806 45.0001 86.806C42.9241 86.806 41.4522 86.792 40.3165 86.792C39.5661 86.792 39.4829 87.5987 40.2044 88.2862C41.1918 89.2262 42.6655 89.9996 45.0019 89.9996C47.3383 89.9996 48.8102 89.2262 49.7976 88.2862C50.5191 87.5987 50.4359 86.792 49.6855 86.792H49.6837Z" fill="#02628C"/>
<path d="M41.6934 74.3529C37.2106 74.3529 33.9863 74.2213 32.6409 72.885C31.744 71.9941 31.574 70.7875 31.3932 69.509C31.3154 68.9566 31.234 68.3849 31.0948 67.7851C30.4999 65.2474 28.9537 62.6466 26.498 60.0564C23.3497 56.7348 19.7493 50.865 20.4727 41.7684C21.3027 31.3301 31.3552 20.1553 44.9972 20.1553C58.6392 20.1553 68.6917 31.3301 69.5218 41.7684C70.2451 50.865 66.6447 56.7348 63.4964 60.0564C61.0407 62.6484 59.4946 65.2492 58.8996 67.7851C58.7586 68.3849 58.679 68.9566 58.6013 69.509C58.4204 70.7875 58.2505 71.9941 57.3535 72.885C55.8472 74.3809 51.9882 74.3686 46.6482 74.3493C45.5614 74.3458 44.4294 74.3458 43.3426 74.3493C42.7748 74.3511 42.2232 74.3529 41.6916 74.3529H41.6934ZM44.999 22.1072C39.0731 22.1072 33.4402 24.4221 29.14 28.6258C25.3371 32.342 22.8488 37.3104 22.4835 41.9174C21.8163 50.3143 25.1056 55.6966 27.9827 58.734C30.6789 61.5786 32.3859 64.4793 33.0604 67.3519C33.2214 68.0359 33.3118 68.6777 33.3914 69.2442C33.5378 70.2772 33.6518 71.0909 34.084 71.5206C34.9935 72.4237 39.4258 72.4097 43.339 72.3957C44.4312 72.3922 45.5668 72.3922 46.6591 72.3957C50.5705 72.408 55.0045 72.4237 55.9141 71.5206C56.3463 71.0909 56.462 70.2754 56.6067 69.2442C56.6863 68.6777 56.7767 68.0341 56.9376 67.3519C57.6103 64.4793 59.3192 61.5786 62.0154 58.734C64.8924 55.6966 68.1836 50.3143 67.5145 41.9174C67.1474 37.3104 64.6592 32.342 60.8581 28.6258C56.5579 24.4221 50.9249 22.1072 44.999 22.1072Z" fill="#02628C"/>
<path d="M41.1579 61.57L35.6697 59.4129L36.5684 53.936C36.2429 53.6554 35.9301 53.3573 35.6353 53.0451L30.0024 54.0009L27.6949 48.7134L32.3242 45.4567C32.2989 45.034 32.2953 44.6096 32.3152 44.187L27.6353 41.0004L29.8595 35.6796L35.5069 36.5512C35.7962 36.2355 36.1037 35.9321 36.4255 35.6462L35.44 30.1833L40.8921 27.9456L44.2502 32.4351C44.686 32.4106 45.1236 32.4071 45.5594 32.4264L48.8451 27.8877L54.3334 30.0448L53.4347 35.5217C53.7602 35.8023 54.073 36.1005 54.3678 36.4126L60.0007 35.4568L62.3081 40.7444L57.6806 44.0011C57.7059 44.4237 57.7096 44.8481 57.6897 45.2708L62.3696 48.4573L60.1454 53.7782L54.498 52.9065C54.2086 53.2222 53.9012 53.5256 53.5793 53.8115L54.5649 59.2744L49.1128 61.5121L45.7547 57.0243C45.3189 57.0489 44.8831 57.0524 44.4455 57.0331L41.1597 61.5718L41.1579 61.57ZM37.912 58.1871L40.431 59.1762L43.4581 54.9952L44.0386 55.0461C44.733 55.1075 45.4364 55.1022 46.129 55.0321L46.7095 54.9725L49.8017 59.106L52.3045 58.0783L51.3967 53.0468L51.8452 52.6856C52.3804 52.2524 52.8741 51.7666 53.3117 51.2405L53.677 50.8003L58.8795 51.6035L59.8994 49.1606L55.5884 46.2248L55.6408 45.6618C55.7041 44.9884 55.6987 44.3062 55.6264 43.6345L55.5649 43.0716L59.8271 40.0727L58.7674 37.6455L53.5811 38.5259L53.2086 38.091C52.7638 37.5718 52.2611 37.0931 51.7186 36.6687L51.2647 36.3144L52.0929 31.2689L49.5739 30.2798L46.5467 34.4607L45.9663 34.4099C45.2719 34.3485 44.5684 34.3537 43.8758 34.4256L43.2954 34.4853L40.2031 30.3517L37.7004 31.3794L38.6082 36.4109L38.1597 36.7721C37.6245 37.2053 37.1308 37.6911 36.6932 38.2172L36.3279 38.6574L31.1253 37.8542L30.1054 40.2972L34.4165 43.2329L34.364 43.7959C34.3007 44.4693 34.3062 45.1515 34.3785 45.8232L34.44 46.3861L30.1778 49.385L31.2374 51.8122L36.4255 50.9318L36.7981 51.3668C37.2429 51.8859 37.7456 52.3646 38.2881 52.789L38.742 53.1433L37.9138 58.1888L37.912 58.1871ZM45.0024 51.735C44.0838 51.735 43.167 51.5632 42.2899 51.2177C40.5033 50.5144 39.1037 49.1798 38.3532 47.4577C37.6009 45.7355 37.5865 43.8327 38.3116 42.0982C39.0368 40.3656 40.4129 39.0082 42.1887 38.2804C43.9645 37.5508 45.9265 37.5368 47.7149 38.24C49.5016 38.9433 50.9012 40.2779 51.6517 42C53.2032 45.5549 51.4835 49.6726 47.8162 51.1774C46.9102 51.5492 45.9572 51.735 45.0024 51.735ZM45.0024 39.6781C44.3153 39.6781 43.6263 39.8131 42.9735 40.0797C41.6932 40.6058 40.7004 41.5826 40.1778 42.8331C39.6552 44.0835 39.6661 45.4549 40.2086 46.6966C41.3261 49.2605 44.3876 50.4636 47.0314 49.378C49.6752 48.2925 50.9157 45.3251 49.7963 42.7612C49.2538 41.5195 48.2466 40.5567 46.9572 40.0499C46.3261 39.8008 45.6625 39.6781 45.0024 39.6781Z" fill="#02628C"/>
</svg>
