<svg width="310" height="75" viewBox="0 0 310 75" fill="none" xmlns="http://www.w3.org/2000/svg">
<path d="M92.4148 28.494V33.4406H96.3901C97.0576 33.4564 97.7042 33.2074 98.1888 32.7481C98.4248 32.5134 98.6098 32.2324 98.732 31.9229C98.8543 31.6134 98.9113 31.2819 98.8993 30.9493C98.9093 30.6243 98.8512 30.3008 98.7288 29.9996C98.6065 29.6984 98.4225 29.426 98.1888 29.2C97.9535 28.9649 97.6725 28.7806 97.3631 28.6584C97.0537 28.5362 96.7225 28.4787 96.3901 28.4895H92.4148V28.494ZM91.2861 22.5986H98.9803V23.6554H92.4058V27.4418H96.3811C96.8624 27.4277 97.3417 27.5104 97.7905 27.6849C98.2393 27.8595 98.6485 28.1224 98.9938 28.458C99.3392 28.7741 99.6133 29.1602 99.7978 29.5906C99.9824 30.0209 100.073 30.4857 100.064 30.9538C100.073 31.4246 99.982 31.8919 99.7976 32.3251C99.6131 32.7583 99.3392 33.1476 98.9938 33.4675C98.6488 33.804 98.2398 34.0677 97.791 34.2431C97.3422 34.4184 96.8627 34.5018 96.3811 34.4883H91.2861V22.5986Z" fill="#02628C"/>
<path d="M102.029 34.4885H101.535V33.4722H101.957C102.878 33.4722 103.338 32.5443 103.338 30.6886V25.6611H109.926V34.493H108.874V26.6864H104.377V30.8775C104.437 31.8192 104.218 32.7579 103.747 33.5756C103.563 33.8625 103.309 34.0972 103.008 34.2571C102.707 34.417 102.37 34.4967 102.029 34.4885Z" fill="#02628C"/>
<path d="M119.028 27.5769C118.713 27.2553 118.338 26.9998 117.924 26.8253C117.51 26.6509 117.065 26.561 116.615 26.561C116.165 26.561 115.721 26.6509 115.306 26.8253C114.892 26.9998 114.517 27.2553 114.202 27.5769C113.883 27.9075 113.633 28.2986 113.467 28.7272C113.301 29.1557 113.222 29.6132 113.236 30.0726C113.223 30.5347 113.302 30.9947 113.468 31.4261C113.634 31.8576 113.883 32.2519 114.202 32.5864C114.842 33.2259 115.71 33.5852 116.615 33.5852C117.52 33.5852 118.388 33.2259 119.028 32.5864C119.347 32.2521 119.597 31.8577 119.763 31.4263C119.929 30.9948 120.007 30.5347 119.994 30.0726C120.007 29.6133 119.928 29.1559 119.762 28.7274C119.596 28.2989 119.346 27.9078 119.028 27.5769ZM116.509 25.5083C117.201 25.4797 117.888 25.6303 118.504 25.9455C119.12 26.2606 119.644 26.7296 120.026 27.3071V25.6612H121.078V34.4886H120.026V32.8427C119.639 33.4014 119.12 33.8556 118.515 34.1648C117.895 34.4845 117.207 34.6481 116.509 34.6414C115.926 34.656 115.346 34.5474 114.808 34.3226C114.269 34.0979 113.784 33.7622 113.384 33.3374C112.584 32.4396 112.143 31.2794 112.143 30.0771C112.143 28.8749 112.584 27.7146 113.384 26.8169C113.784 26.3913 114.269 26.0547 114.807 25.8292C115.346 25.6037 115.926 25.4944 116.509 25.5083Z" fill="#02628C"/>
<path d="M124.882 26.677V34.4836H123.83V25.6562H129.465V26.6725H124.882V26.677Z" fill="#02628C"/>
<path d="M132.32 27.5589C131.716 28.1364 131.333 28.906 131.235 29.7355C131.136 30.5651 131.33 31.4029 131.782 32.1053C132.234 32.8077 132.917 33.3308 133.713 33.585C134.508 33.8392 135.368 33.8085 136.143 33.4983C136.919 33.188 137.562 32.6175 137.963 31.8847C138.364 31.1519 138.498 30.3024 138.341 29.482C138.184 28.6615 137.746 27.9213 137.103 27.3882C136.46 26.8552 135.651 26.5626 134.816 26.5606C134.354 26.5491 133.894 26.6317 133.465 26.8033C133.036 26.9749 132.647 27.232 132.32 27.5589ZM131.555 33.3329C130.764 32.5753 130.26 31.5657 130.132 30.4774C130.003 29.3891 130.258 28.29 130.851 27.3689C131.445 26.4477 132.341 25.762 133.385 25.4295C134.429 25.0969 135.556 25.1383 136.573 25.5465C137.59 25.9547 138.434 26.7043 138.958 27.6664C139.483 28.6286 139.656 29.7434 139.448 30.8194C139.24 31.8953 138.664 32.8653 137.819 33.5628C136.973 34.2602 135.912 34.6416 134.816 34.6414C134.212 34.6577 133.611 34.55 133.05 34.3249C132.489 34.0999 131.981 33.7622 131.555 33.3329Z" fill="#02628C"/>
<path d="M142.73 33.4677H148.009V26.6774H143.45V30.4638C143.502 31.5133 143.252 32.5559 142.73 33.4677ZM141.287 34.4885V37.0382H140.234V33.4722H141.458C142.078 33.0225 142.393 32.0332 142.393 30.4818V25.6611H149.062V33.4677H150.694V37.0337H149.642V34.4885H141.287Z" fill="#02628C"/>
<path d="M153.577 34.4884H152.525V25.661H153.577V34.4884ZM152.255 23.471C152.234 23.3309 152.261 23.188 152.33 23.0644C152.399 22.9408 152.507 22.8435 152.637 22.7875C152.765 22.7205 152.908 22.6855 153.053 22.6855C153.198 22.6855 153.341 22.7205 153.469 22.7875C153.598 22.8453 153.704 22.9429 153.773 23.066C153.842 23.1891 153.869 23.3312 153.851 23.471C153.857 23.5795 153.837 23.6878 153.794 23.7876C153.751 23.8873 153.686 23.976 153.604 24.0466C153.45 24.1784 153.254 24.2517 153.051 24.2535C152.847 24.2533 152.651 24.1798 152.498 24.0466C152.416 23.9755 152.352 23.8867 152.31 23.787C152.267 23.6872 152.249 23.5791 152.255 23.471Z" fill="#02628C"/>
<path d="M157.655 21.9424H158.555C158.551 22.1563 158.595 22.3683 158.683 22.5634C158.771 22.7585 158.9 22.9318 159.063 23.0711C159.416 23.3749 159.87 23.5354 160.335 23.5208C160.8 23.536 161.253 23.3754 161.603 23.0711C161.764 22.9308 161.892 22.757 161.978 22.562C162.064 22.367 162.107 22.1555 162.103 21.9424H163.002C163.01 22.2714 162.946 22.5983 162.814 22.8997C162.682 23.2012 162.485 23.47 162.238 23.6872C161.71 24.156 161.023 24.4054 160.317 24.3842C159.609 24.4008 158.919 24.1522 158.384 23.6872C158.141 23.4682 157.95 23.1982 157.824 22.8965C157.698 22.5948 157.64 22.269 157.655 21.9424ZM163.308 27.4016L157.246 34.4841H156.347V25.6568H157.39V32.7529L163.452 25.6568H164.351V34.4886H163.299L163.308 27.4016Z" fill="#02628C"/>
<path d="M168.165 30.4949V34.4836H167.112V25.6562H168.165V29.4741H174.042V25.6562H175.094V34.4836H174.042V30.4949H168.165Z" fill="#02628C"/>
<path d="M184.821 27.4055L178.759 34.4881H177.842V25.6562H178.894V32.7523L184.956 25.6562H185.873V34.4881H184.821V27.4055Z" fill="#02628C"/>
<path d="M189.952 21.9424H190.851C190.848 22.1563 190.892 22.3683 190.98 22.5634C191.067 22.7585 191.197 22.9318 191.359 23.0711C191.715 23.3744 192.17 23.5347 192.637 23.5208C193.099 23.5362 193.551 23.3755 193.9 23.0711C194.062 22.9316 194.191 22.7581 194.278 22.563C194.365 22.3679 194.408 22.156 194.404 21.9424H195.303C195.311 22.2714 195.247 22.5983 195.115 22.8997C194.983 23.2012 194.786 23.47 194.539 23.6872C194.011 24.156 193.324 24.4054 192.619 24.3842C191.91 24.4008 191.22 24.1522 190.685 23.6872C190.441 23.4691 190.248 23.1993 190.122 22.8975C189.995 22.5957 189.937 22.2694 189.952 21.9424ZM195.613 27.4016L189.552 34.4841H188.652V25.6568H189.709V32.7529L195.766 25.6568H196.666V34.4886H195.613V27.4016Z" fill="#02628C"/>
<path d="M210.579 26.5603C210.368 26.5616 210.158 26.5782 209.949 26.6097V33.5394C210.158 33.571 210.368 33.5875 210.579 33.5889C211.038 33.6003 211.495 33.5176 211.921 33.3459C212.347 33.1742 212.733 32.9171 213.057 32.5906C213.701 31.9121 214.06 31.0123 214.06 30.0768C214.06 29.1414 213.701 28.2416 213.057 27.5631C212.734 27.235 212.348 26.9767 211.922 26.8042C211.496 26.6317 211.038 26.5487 210.579 26.5603ZM208.285 26.5603C207.354 26.5603 206.461 26.9303 205.802 27.5889C205.143 28.2476 204.773 29.1409 204.773 30.0723C204.773 31.0038 205.143 31.8971 205.802 32.5557C206.461 33.2144 207.354 33.5844 208.285 33.5844C208.49 33.586 208.695 33.5694 208.897 33.5349V26.6097C208.695 26.5775 208.49 26.5609 208.285 26.5603ZM210.579 34.6546C210.368 34.6541 210.158 34.6421 209.949 34.6187V38.3196H208.897V34.5962C208.694 34.6208 208.49 34.6328 208.285 34.6322C207.674 34.6514 207.064 34.5474 206.493 34.3266C205.923 34.1057 205.402 33.7724 204.962 33.3465C204.523 32.9206 204.174 32.4107 203.935 31.8471C203.696 31.2835 203.573 30.6776 203.573 30.0656C203.573 29.4535 203.696 28.8477 203.935 28.2841C204.174 27.7205 204.523 27.2106 204.962 26.7847C205.402 26.3587 205.923 26.0255 206.493 25.8046C207.064 25.5837 207.674 25.4798 208.285 25.499C208.49 25.497 208.694 25.5075 208.897 25.5305V21.7441H209.949V25.5305C210.158 25.5086 210.369 25.4981 210.579 25.499C211.191 25.4798 211.8 25.5837 212.371 25.8046C212.942 26.0255 213.462 26.3587 213.902 26.7847C214.341 27.2106 214.691 27.7205 214.929 28.2841C215.168 28.8477 215.291 29.4535 215.291 30.0656C215.291 30.6776 215.168 31.2835 214.929 31.8471C214.691 32.4107 214.341 32.9206 213.902 33.3465C213.462 33.7724 212.942 34.1057 212.371 34.3266C211.8 34.5474 211.191 34.6514 210.579 34.6322V34.6546Z" fill="#02628C"/>
<path d="M218.952 27.5589C218.45 28.0491 218.106 28.6787 217.964 29.3663C217.823 30.054 217.891 30.7682 218.16 31.4168C218.429 32.0654 218.885 32.6186 219.472 33.005C220.058 33.3915 220.746 33.5934 221.448 33.5847C221.907 33.5961 222.364 33.5134 222.79 33.3417C223.216 33.17 223.603 32.913 223.926 32.5864C224.567 31.9064 224.924 31.0071 224.924 30.0726C224.924 29.1381 224.567 28.2389 223.926 27.5589C223.256 26.9184 222.366 26.561 221.439 26.561C220.513 26.561 219.622 26.9184 218.952 27.5589ZM218.188 33.3329C217.396 32.5753 216.893 31.5657 216.764 30.4774C216.635 29.3891 216.89 28.29 217.484 27.3689C218.077 26.4477 218.973 25.762 220.017 25.4295C221.061 25.0969 222.189 25.1383 223.206 25.5465C224.223 25.9547 225.066 26.7043 225.59 27.6664C226.115 28.6286 226.288 29.7434 226.08 30.8194C225.872 31.8953 225.296 32.8653 224.451 33.5628C223.606 34.2602 222.544 34.6416 221.448 34.6414C220.844 34.6577 220.243 34.55 219.682 34.3249C219.122 34.0999 218.613 33.7622 218.188 33.3329Z" fill="#02628C"/>
<path d="M229.272 30.4949V34.4836H228.22V25.6562H229.272V29.4741H235.145V25.6562H236.202V34.4836H235.145V30.4949H229.272Z" fill="#02628C"/>
<path d="M240.532 33.4677H245.812V26.6774H241.247V30.4638C241.303 31.513 241.055 32.5561 240.532 33.4677ZM239.089 34.4885V37.0382H238.037V33.4722H239.26C239.88 33.0225 240.195 32.0332 240.195 30.4818V25.6611H246.877V33.4677H248.51V37.0337H247.458V34.4885H239.089Z" fill="#02628C"/>
<path d="M97.964 43.064H94.1416V47.4124H97.964C98.2517 47.4206 98.538 47.3693 98.8049 47.2618C99.0719 47.1542 99.3138 46.9927 99.5154 46.7874C99.7177 46.5822 99.8762 46.3382 99.9813 46.0699C100.086 45.8017 100.136 45.5149 100.127 45.227C100.136 44.9405 100.086 44.6554 99.9801 44.389C99.8745 44.1226 99.7154 43.8807 99.5128 43.6781C99.3102 43.4754 99.0683 43.3164 98.8019 43.2108C98.5355 43.1052 98.2504 43.0552 97.964 43.064ZM94.1416 50.0431V55.2819H91.2861V40.4423H97.9505C99.3064 40.3902 100.628 40.8749 101.629 41.7913C102.098 42.2301 102.473 42.7607 102.729 43.3501C102.984 43.9396 103.117 44.5753 103.117 45.218C103.117 45.8606 102.984 46.4963 102.729 47.0858C102.473 47.6752 102.098 48.2058 101.629 48.6446C100.641 49.5647 99.3315 50.0604 97.982 50.0251L94.1416 50.0431Z" fill="#02628C"/>
<path d="M109.638 46.5893C109.227 46.5784 108.819 46.6527 108.439 46.8075C108.059 46.9623 107.715 47.1943 107.43 47.4887C106.857 48.1071 106.539 48.9189 106.539 49.7618C106.539 50.6047 106.857 51.4166 107.43 52.035C108.018 52.6145 108.811 52.9392 109.638 52.9392C110.464 52.9392 111.257 52.6145 111.845 52.035C112.418 51.4166 112.736 50.6047 112.736 49.7618C112.736 48.9189 112.418 48.1071 111.845 47.4887C111.56 47.1938 111.216 46.9616 110.836 46.8068C110.456 46.6519 110.048 46.5779 109.638 46.5893ZM105.455 53.9506C104.349 52.8421 103.729 51.3395 103.73 49.7735C103.732 48.2074 104.356 46.7061 105.464 45.6C106.573 44.4938 108.076 43.8733 109.642 43.875C111.208 43.8767 112.709 44.5004 113.815 45.609C114.367 46.1492 114.801 46.7975 115.09 47.5133C115.38 48.229 115.518 48.9968 115.497 49.7686C115.517 50.5436 115.379 51.3146 115.089 52.0339C114.8 52.7532 114.366 53.4056 113.815 53.9506C112.683 55.0136 111.188 55.6053 109.635 55.6053C108.082 55.6053 106.588 55.0136 105.455 53.9506Z" fill="#02628C"/>
<path d="M120.588 52.7636H125.085V46.7782H121.136V49.3055C121.175 50.4825 120.988 51.6561 120.588 52.7636ZM118.717 58.4746H116.086V52.7636H117.885C118.335 52.197 118.542 50.9648 118.542 49.1121V44.251H127.756V52.7636H129.73V58.4746H127.099V55.2818H118.717V58.4656V58.4746Z" fill="#02628C"/>
<path d="M138.948 48.707L133.345 55.2859H131.137V44.2461H133.768V50.8925L139.371 44.2461H141.579V55.2859H138.948V48.707Z" fill="#02628C"/>
<path d="M146.463 50.9378V55.2908H143.832V44.251H146.463V48.4106H151.639V44.251H154.269V55.2908H151.639V50.9378H146.463Z" fill="#02628C"/>
<path d="M164.333 48.707L158.73 55.2859H156.522V44.2461H159.153V50.8925L164.756 44.2461H166.964V55.2859H164.333V48.707Z" fill="#02628C"/>
<path d="M177.302 55.2903H173.754L179.893 47.6906L174.182 40.4326H177.725L182.924 47.0745V40.4326H185.765V47.0115L190.946 40.4326H194.467L188.76 47.6906L194.894 55.2903H191.369L185.765 48.3471V55.2903H182.924V48.3066L177.302 55.2903Z" fill="#02628C"/>
<path d="M197.889 48.6851H203.982C203.784 48.0153 203.374 47.4281 202.813 47.0122C202.257 46.591 201.577 46.3664 200.879 46.3737C200.203 46.3701 199.545 46.5951 199.013 47.0122C198.465 47.4316 198.07 48.0193 197.889 48.6851ZM206.631 50.7491H197.862C198.047 51.4481 198.462 52.0644 199.04 52.4984C199.629 52.9451 200.351 53.1811 201.09 53.1685C201.583 53.1896 202.073 53.0948 202.523 52.8918C202.972 52.6887 203.367 52.383 203.676 51.9993L206.244 52.7412C205.744 53.6281 205.005 54.3571 204.112 54.8458C203.188 55.3575 202.147 55.6209 201.09 55.6102C200.305 55.6316 199.523 55.4963 198.79 55.2121C198.058 54.928 197.389 54.5008 196.823 53.9554C195.741 52.8393 195.132 51.3487 195.123 49.7945C195.114 48.2403 195.705 46.7426 196.773 45.6137C197.587 44.7904 198.629 44.2292 199.764 44.0023C200.899 43.7753 202.077 43.893 203.144 44.3402C204.212 44.7873 205.122 45.5436 205.757 46.5117C206.392 47.4799 206.723 48.6157 206.707 49.7733C206.711 50.1002 206.685 50.4268 206.631 50.7491Z" fill="#02628C"/>
<path d="M214.145 52.975C214.543 52.9855 214.939 52.9106 215.306 52.7555C215.672 52.6004 216.002 52.3686 216.272 52.0757C216.831 51.4461 217.14 50.6333 217.14 49.7912C217.14 48.9492 216.831 48.1364 216.272 47.5069C216 47.2117 215.669 46.9761 215.302 46.815C214.934 46.6539 214.537 46.5707 214.136 46.5707C213.734 46.5707 213.337 46.6539 212.97 46.815C212.602 46.9761 212.272 47.2117 212 47.5069C211.441 48.1364 211.132 48.9492 211.132 49.7912C211.132 50.6333 211.441 51.4461 212 52.0757C212.273 52.3695 212.605 52.6017 212.975 52.7568C213.345 52.9119 213.744 52.9863 214.145 52.975ZM207.849 47.3539C207.849 44.8897 208.408 43.0145 209.526 41.7284C210.642 40.4423 212.4 39.6733 214.788 39.4125L218.484 39.0527V41.7059L214.833 42.0656C212.102 42.3654 210.645 43.6246 210.462 45.843C210.878 45.2248 211.446 44.7241 212.111 44.3894C212.777 44.0546 213.517 43.897 214.262 43.9318C215.005 43.9204 215.743 44.0659 216.426 44.3588C217.109 44.6517 217.723 45.0854 218.228 45.6316C218.765 46.1852 219.186 46.8401 219.467 47.5582C219.748 48.2762 219.883 49.0429 219.865 49.8137C219.882 50.5793 219.745 51.3405 219.46 52.0515C219.176 52.7625 218.751 53.4086 218.21 53.9508C217.678 54.4945 217.04 54.9222 216.335 55.207C215.63 55.4918 214.873 55.6275 214.113 55.6057C213.288 55.6177 212.47 55.4493 211.716 55.1122C210.963 54.7751 210.292 54.2775 209.751 53.6541C209.106 52.9031 208.632 52.0208 208.362 51.0684C208.007 49.863 207.838 48.6103 207.863 47.3539H207.849Z" fill="#02628C"/>
<path d="M229.475 47.4976C229.205 47.2096 228.879 46.9799 228.517 46.8229C228.155 46.6659 227.765 46.5849 227.37 46.5849C226.976 46.5849 226.585 46.6659 226.223 46.8229C225.861 46.9799 225.535 47.2096 225.266 47.4976C224.721 48.1296 224.421 48.9363 224.421 49.7708C224.421 50.6053 224.721 51.412 225.266 52.044C225.535 52.3321 225.861 52.5617 226.223 52.7187C226.585 52.8758 226.976 52.9568 227.37 52.9568C227.765 52.9568 228.155 52.8758 228.517 52.7187C228.879 52.5617 229.205 52.3321 229.475 52.044C230.034 51.4189 230.344 50.6096 230.344 49.7708C230.344 48.932 230.034 48.1227 229.475 47.4976ZM224.393 60.0664H221.74V44.2509H224.393V45.1188C225.331 44.3457 226.51 43.9257 227.726 43.9316C228.449 43.9174 229.167 44.0599 229.83 44.3494C230.492 44.639 231.085 45.0687 231.566 45.609C232.611 46.7364 233.167 48.232 233.113 49.7686C233.16 51.3093 232.605 52.8078 231.566 53.9462C231.08 54.4784 230.486 54.9012 229.824 55.1865C229.162 55.4718 228.446 55.6131 227.726 55.601C226.51 55.607 225.331 55.1869 224.393 54.4138V60.0664Z" fill="#02628C"/>
<path d="M237.578 55.2816H234.929V44.2508H237.578V55.2816ZM236.229 43.266C236.006 43.2723 235.783 43.2319 235.577 43.1475C235.37 43.0631 235.183 42.9365 235.028 42.7758C234.872 42.6165 234.749 42.4273 234.667 42.2195C234.585 42.0117 234.546 41.7895 234.551 41.5662C234.545 41.3444 234.584 41.1237 234.667 40.9177C234.749 40.7116 234.872 40.5245 235.029 40.3678C235.186 40.2112 235.374 40.0883 235.58 40.0067C235.786 39.9251 236.007 39.8865 236.229 39.8933C236.452 39.8875 236.674 39.9267 236.882 40.0086C237.09 40.0905 237.279 40.2134 237.438 40.37C237.598 40.5244 237.724 40.7106 237.808 40.9166C237.892 41.1227 237.931 41.3439 237.924 41.5662C237.93 41.7895 237.891 42.0117 237.809 42.2195C237.727 42.4273 237.604 42.6165 237.447 42.7758C237.292 42.9378 237.105 43.0658 236.897 43.1518C236.69 43.2377 236.467 43.2796 236.242 43.275L236.229 43.266Z" fill="#02628C"/>
<path d="M242.462 50.659V52.7815H246.176C246.353 52.8111 246.534 52.7778 246.688 52.6874C246.843 52.597 246.961 52.4553 247.021 52.2869C247.106 52.1115 247.15 51.9194 247.15 51.7248C247.15 51.5301 247.106 51.338 247.021 51.1627C246.962 50.9931 246.844 50.8499 246.69 50.7579C246.535 50.6659 246.354 50.6309 246.176 50.659H242.462ZM245.771 46.7557H242.462V48.5365H245.771C245.887 48.5408 246.001 48.5215 246.109 48.4797C246.216 48.4379 246.314 48.3746 246.396 48.2937C246.48 48.2084 246.544 48.1069 246.586 47.9954C246.628 47.8839 246.646 47.765 246.639 47.6461C246.644 47.5308 246.625 47.4159 246.583 47.3083C246.541 47.2008 246.478 47.103 246.396 47.021C246.318 46.9321 246.222 46.8608 246.114 46.8119C246.007 46.7631 245.89 46.7378 245.771 46.7377V46.7557ZM239.831 44.251H245.771C246.658 44.2161 247.529 44.4947 248.231 45.0379C248.552 45.265 248.819 45.5593 249.014 45.9003C249.209 46.2412 249.327 46.6207 249.36 47.012C249.37 47.0957 249.37 47.1802 249.36 47.2639C249.37 47.6719 249.287 48.077 249.118 48.4485C248.949 48.8201 248.698 49.1484 248.384 49.4089C248.839 49.6483 249.218 50.0092 249.48 50.4514C249.742 50.8936 249.876 51.3997 249.868 51.9136C249.88 52.3735 249.792 52.8304 249.608 53.2523C249.425 53.6741 249.151 54.0507 248.807 54.3554C248.078 54.9858 247.139 55.3196 246.176 55.2908H239.813L239.831 44.251Z" fill="#02628C"/>
<path d="M262.41 47.5823L259.761 48.3692C259.53 47.8304 259.142 47.3741 258.646 47.0606C258.14 46.7428 257.553 46.5788 256.955 46.5885C256.545 46.5776 256.137 46.6519 255.757 46.8067C255.377 46.9615 255.033 47.1934 254.747 47.4878C254.175 48.1063 253.856 48.9181 253.856 49.761C253.856 50.6039 254.175 51.4157 254.747 52.0342C255.033 52.3286 255.377 52.5605 255.757 52.7153C256.137 52.8701 256.545 52.9444 256.955 52.9336C257.553 52.9383 258.139 52.773 258.646 52.4569C259.142 52.1445 259.532 51.6879 259.761 51.1483L262.41 51.9352C262.01 53.0239 261.274 53.9576 260.31 54.6019C259.318 55.2631 258.148 55.6066 256.955 55.5867C256.183 55.6049 255.415 55.4678 254.696 55.1836C253.978 54.8993 253.324 54.4736 252.773 53.9319C252.229 53.3836 251.802 52.7307 251.518 52.0126C251.233 51.2946 251.097 50.5263 251.118 49.7543C251.097 48.9809 251.234 48.2112 251.52 47.4925C251.807 46.7737 252.237 46.1208 252.784 45.5737C253.331 45.0266 253.984 44.5968 254.702 44.3104C255.421 44.0241 256.191 43.8873 256.964 43.9084C258.157 43.8901 259.327 44.2351 260.319 44.8976C261.289 45.5414 262.023 46.4839 262.41 47.5823Z" fill="#02628C"/>
<path d="M266.664 50.3352V52.777H269.762C269.912 52.7784 270.061 52.7478 270.198 52.6873C270.335 52.6269 270.458 52.5379 270.558 52.4263C270.775 52.1933 270.892 51.8854 270.887 51.5674C270.895 51.2637 270.794 50.967 270.603 50.731C270.515 50.6182 270.404 50.5249 270.278 50.4568C270.152 50.3887 270.013 50.3473 269.87 50.3352H266.664ZM269.78 55.2818H264.029V44.251H266.664V47.7945H269.812C270.317 47.7851 270.82 47.876 271.29 48.062C271.76 48.2481 272.188 48.5255 272.55 48.8783C272.917 49.2229 273.205 49.642 273.396 50.1074C273.587 50.5728 273.676 51.0737 273.657 51.5764C273.668 52.0747 273.575 52.5698 273.384 53.0304C273.194 53.491 272.91 53.907 272.55 54.252C271.808 54.9419 270.825 55.3119 269.812 55.2818H269.78Z" fill="#02628C"/>
<path d="M277.906 49.8762V55.2859H275.275V44.2461H277.906V49.2781L281.832 44.2461H285.038L280.896 49.5749L285.501 55.2859H282.255L277.906 49.8762Z" fill="#02628C"/>
<path d="M294.63 48.707L289.031 55.2859H286.823V44.2461H289.454V50.8925L295.057 44.2461H297.26V55.2859H294.63V48.707Z" fill="#02628C"/>
<path d="M306.897 55.2908L304.289 51.7248L301.699 55.2908H298.578L302.72 49.6203L298.812 44.251H301.91L304.289 47.5202L306.686 44.251H309.789L305.859 49.6203L310 55.2908H306.897Z" fill="#02628C"/>
<path d="M6.72804 42.2714C9.41066 41.7548 11.1666 39.1614 10.65 36.4788C10.1334 33.7961 7.53992 32.0402 4.85731 32.5568C2.17469 33.0734 0.418779 35.6669 0.93537 38.3495C1.45196 41.0321 4.04543 42.788 6.72804 42.2714Z" fill="#00ADF1"/>
<path d="M5.882 22.3028C5.5395 22.3031 5.2006 22.374 4.8857 22.5113C4.57079 22.6485 4.28641 22.8493 4.04965 23.1016C3.81288 23.3538 3.62866 23.6523 3.50804 23.979C3.38743 24.3057 3.33292 24.6539 3.34782 25.0026C3.39057 25.6699 3.6817 26.2953 4.16174 26.7512C4.64178 27.207 5.27449 27.4587 5.93056 27.455C8.50658 27.455 10.9771 28.498 12.7986 30.3545C14.6201 32.211 15.6435 34.729 15.6435 37.3545C15.6435 39.98 14.6201 42.4979 12.7986 44.3544C10.9771 46.2109 8.50658 47.2539 5.93056 47.2539C5.27408 47.2514 4.64137 47.5041 4.16145 47.9607C3.68152 48.4172 3.39053 49.0431 3.34782 49.7108C3.33229 50.0597 3.38636 50.4082 3.50675 50.7352C3.62713 51.0622 3.81133 51.3609 4.04822 51.6132C4.2851 51.8656 4.56975 52.0664 4.88494 52.2035C5.20013 52.3405 5.53932 52.411 5.882 52.4106C8.29405 52.4101 10.6694 51.8084 12.8009 50.6578C14.9325 49.5072 16.7557 47.8428 18.1114 45.8095C19.771 43.307 22.0935 41.3362 24.8089 40.1263L29.6345 38.0024C29.7749 37.9417 29.8946 37.8402 29.9788 37.7105C30.0629 37.5809 30.1078 37.4289 30.1078 37.2735C30.1078 37.118 30.0629 36.966 29.9788 36.8364C29.8946 36.7068 29.7749 36.6053 29.6345 36.5445L24.703 34.3756C22.0243 33.1837 19.7291 31.2469 18.0805 28.7869C16.714 26.7805 14.89 25.1422 12.7652 24.0128C10.6404 22.8834 8.27839 22.2965 5.882 22.3028Z" fill="#00ADF1"/>
<path d="M72.2259 42.2971C74.9164 41.8232 76.7133 39.2579 76.2394 36.5674C75.7655 33.877 73.2002 32.0801 70.5097 32.554C67.8192 33.0279 66.0224 35.5932 66.4963 38.2837C66.9702 40.9741 69.5355 42.771 72.2259 42.2971Z" fill="#00ADF1"/>
<path d="M71.5568 52.4106C71.9063 52.4104 72.2523 52.3395 72.5737 52.2024C72.8951 52.0652 73.1854 51.8647 73.427 51.6127C73.6687 51.3607 73.8567 51.0626 73.9798 50.7362C74.1029 50.4098 74.1585 50.062 74.1433 49.7136C74.1054 49.0438 73.8122 48.4137 73.3238 47.9524C72.8354 47.4912 72.1888 47.2336 71.5162 47.2323C68.8869 47.2323 66.3653 46.1904 64.5061 44.3359C62.6469 42.4813 61.6024 39.966 61.6024 37.3432C61.6024 34.7204 62.6469 32.2051 64.5061 30.3505C66.3653 28.496 68.8869 27.4541 71.5162 27.4541C72.186 27.4556 72.8311 27.2027 73.3208 26.7469C73.8104 26.291 74.1077 25.6664 74.1524 24.9998C74.1669 24.6515 74.1108 24.304 73.9875 23.9779C73.8642 23.6518 73.6761 23.3539 73.4346 23.1021C73.193 22.8502 72.9031 22.6496 72.5819 22.5123C72.2608 22.3749 71.9152 22.3036 71.5658 22.3027C69.1032 22.3033 66.6782 22.9044 64.5018 24.0538C62.3254 25.2031 60.4638 26.8658 59.0789 28.897C57.3862 31.3979 55.0153 33.3669 52.2429 34.5743L47.3176 36.6959C47.1743 36.7566 47.0521 36.858 46.9662 36.9875C46.8803 37.117 46.8345 37.2688 46.8345 37.4241C46.8345 37.5794 46.8803 37.7312 46.9662 37.8607C47.0521 37.9902 47.1743 38.0916 47.3176 38.1523L52.3511 40.3189C55.086 41.5083 57.4289 43.4434 59.1105 45.9018C60.5018 47.9107 62.3614 49.5527 64.5294 50.6864C66.6974 51.8202 69.1089 52.4119 71.5568 52.4106Z" fill="#00ADF1"/>
<path d="M23.1206 70.6718C25.8032 70.1552 27.5591 67.5618 27.0426 64.8791C26.526 62.1965 23.9325 60.4406 21.2499 60.9572C18.5673 61.4738 16.8114 64.0673 17.3279 66.7499C17.8445 69.4325 20.438 71.1884 23.1206 70.6718Z" fill="#00ADF1"/>
<path d="M9.27233 58.4707C9.09612 58.7709 8.98318 59.1035 8.94033 59.4484C8.89749 59.7933 8.92565 60.1432 9.0231 60.4769C9.12055 60.8107 9.28524 61.1213 9.50722 61.3899C9.72919 61.6585 10.0038 61.8795 10.3144 62.0395C10.9122 62.3402 11.6035 62.4014 12.2454 62.2104C12.8873 62.0195 13.431 61.591 13.764 61.0135C15.0743 58.7572 17.2335 57.1104 19.7664 56.4353C22.2993 55.7602 24.9986 56.112 27.2703 57.4135C29.542 58.7149 31.2001 60.8593 31.8799 63.3749C32.5597 65.8906 32.2054 68.5713 30.895 70.8276C30.5574 71.3998 30.453 72.0786 30.6034 72.7248C30.7537 73.371 31.1473 73.9356 31.7035 74.3027C31.9984 74.4918 32.3291 74.619 32.6753 74.6764C33.0215 74.7339 33.3759 74.7205 33.7166 74.6369C34.0574 74.5533 34.3774 74.4014 34.6568 74.1905C34.9363 73.9796 35.1694 73.7141 35.3417 73.4105C36.5679 71.299 37.256 68.9219 37.346 66.486C37.436 64.0502 36.9253 61.6294 35.8583 59.4343C34.5352 56.7433 34.0117 53.7336 34.3491 50.7577L34.9734 45.4804C34.9905 45.3278 34.9624 45.1736 34.8926 45.0366C34.8228 44.8996 34.7143 44.7857 34.5804 44.7091C34.4464 44.6324 34.2929 44.5961 34.1385 44.6048C33.9841 44.6134 33.8357 44.6666 33.7113 44.7577L29.3409 48.0098C26.9455 49.7769 24.0962 50.8361 21.1212 51.0655C18.6899 51.2542 16.3412 52.0267 14.2772 53.3166C12.2131 54.6066 10.4956 56.3754 9.27233 58.4707Z" fill="#00ADF1"/>
<path d="M55.8295 13.8967C58.5199 13.4228 60.3168 10.8575 59.8429 8.16705C59.369 5.47657 56.8037 3.67969 54.1132 4.15361C51.4228 4.62753 49.6259 7.19279 50.0998 9.88327C50.5737 12.5737 53.139 14.3706 55.8295 13.8967Z" fill="#00ADF1"/>
<path d="M68.2307 16.5407C68.4061 16.2345 68.5182 15.8955 68.5604 15.5443C68.6026 15.193 68.5739 14.8367 68.4761 14.4969C68.3783 14.1572 68.2134 13.841 67.9913 13.5676C67.7693 13.2941 67.4946 13.0691 67.1841 12.9061C66.5863 12.5998 65.8951 12.5375 65.2532 12.732C64.6113 12.9264 64.0677 13.3628 63.7347 13.951C62.4244 16.2483 60.2656 17.9249 57.7331 18.6121C55.2007 19.2992 52.5022 18.9406 50.2311 17.6152C47.9601 16.2897 46.3026 14.106 45.6233 11.5444C44.9439 8.98275 45.2984 6.25306 46.6088 3.95582C46.9442 3.37251 47.0473 2.68181 46.8971 2.02431C46.7469 1.36681 46.3547 0.791898 45.8003 0.416584C45.5051 0.223894 45.174 0.0942796 44.8275 0.0356847C44.481 -0.0229101 44.1263 -0.00922735 43.7852 0.0758655C43.444 0.160958 43.1237 0.315676 42.8439 0.530526C42.564 0.745377 42.3305 1.0158 42.1577 1.32524C40.9311 3.47566 40.2432 5.89694 40.154 8.37797C40.0647 10.859 40.5769 13.3244 41.6457 15.5593C42.9653 18.3011 43.4871 21.3657 43.1503 24.396L42.5305 29.7707C42.5121 29.9261 42.5391 30.0834 42.6083 30.2234C42.6774 30.3633 42.7856 30.4796 42.9195 30.558C43.0534 30.6363 43.207 30.6732 43.3614 30.6641C43.5158 30.655 43.6641 30.6003 43.7881 30.5067L48.1718 27.2083C50.5653 25.4175 53.4093 24.3452 56.3777 24.1143C58.8123 23.9184 61.1634 23.1267 63.2283 21.8073C65.2932 20.4879 67.0099 18.6805 68.2307 16.5407Z" fill="#00ADF1"/>
<path d="M55.8295 70.6946C58.5199 70.2206 60.3168 67.6554 59.8429 64.9649C59.369 62.2744 56.8037 60.4775 54.1132 60.9515C51.4228 61.4254 49.6259 63.9906 50.0998 66.6811C50.5737 69.3716 53.139 71.1685 55.8295 70.6946Z" fill="#00ADF1"/>
<path d="M42.16 73.4099C42.3333 73.7137 42.5672 73.9792 42.8472 74.1902C43.1273 74.4011 43.4477 74.553 43.7888 74.6367C44.1299 74.7203 44.4846 74.7339 44.8311 74.6767C45.1777 74.6194 45.5089 74.4924 45.8045 74.3035C46.3592 73.9344 46.7516 73.369 46.9019 72.7223C47.0522 72.0756 46.949 71.3964 46.6134 70.8227C45.3023 68.5633 44.9477 65.8786 45.6274 63.3592C46.307 60.8397 47.9654 58.692 50.2376 57.3884C52.5099 56.0848 55.2098 55.7321 57.7436 56.4079C60.2773 57.0838 62.4373 58.7328 63.7483 60.9922C63.9159 61.2856 64.14 61.5432 64.4078 61.7505C64.6755 61.9578 64.9817 62.1106 65.3089 62.2003C65.636 62.2899 65.9777 62.3146 66.3144 62.2729C66.6512 62.2312 66.9764 62.124 67.2715 61.9573C67.5665 61.7907 67.8257 61.5679 68.0342 61.3016C68.2427 61.0354 68.3963 60.7309 68.4865 60.4056C68.5766 60.0803 68.6014 59.7405 68.5595 59.4057C68.5176 59.0708 68.4098 58.7475 68.2422 58.4541C67.0154 56.3426 65.2884 54.561 63.2113 53.2643C61.1343 51.9677 58.7702 51.1953 56.3245 51.0142C53.3153 50.8028 50.4287 49.7443 48.0019 47.9623L43.6969 44.7584C43.5721 44.6667 43.4231 44.6133 43.2681 44.6047C43.1132 44.5962 42.9592 44.6329 42.825 44.7103C42.6908 44.7877 42.5822 44.9025 42.5128 45.0404C42.4433 45.1784 42.416 45.3335 42.4341 45.4868L43.0677 50.8846C43.4062 53.8262 42.9031 56.803 41.6162 59.4729C40.562 61.6653 40.0606 64.0799 40.1554 66.5082C40.2501 68.9365 40.9381 71.3053 42.16 73.4099Z" fill="#00ADF1"/>
<path d="M23.124 13.8759C25.8067 13.3593 27.5626 10.7659 27.046 8.08325C26.5294 5.40063 23.9359 3.64472 21.2533 4.16131C18.5707 4.6779 16.8148 7.27137 17.3314 9.95398C17.848 12.6366 20.4414 14.3925 23.124 13.8759Z" fill="#00ADF1"/>
<path d="M35.3291 1.30125C35.1564 0.997549 34.9232 0.732133 34.6438 0.521246C34.3644 0.31036 34.0447 0.158437 33.7043 0.0747807C33.3639 -0.00887584 33.0099 -0.0225095 32.664 0.0347185C32.3181 0.0919464 31.9876 0.218833 31.6926 0.407605C31.1369 0.775314 30.7432 1.34044 30.5921 1.98743C30.4411 2.63442 30.5441 3.3144 30.8801 3.88833C32.1898 6.14761 32.5441 8.83218 31.8651 11.3515C31.1861 13.8708 29.5293 16.0184 27.2593 17.322C24.9892 18.6255 22.2919 18.9782 19.7606 18.3024C17.2293 17.6266 15.0714 15.9777 13.7616 13.7184C13.4288 13.1399 12.8855 12.7107 12.2438 12.5195C11.6022 12.3282 10.9113 12.3895 10.3137 12.6907C10.0033 12.8509 9.7288 13.0723 9.50694 13.3413C9.28507 13.6104 9.12045 13.9215 9.02305 14.2558C8.92565 14.59 8.8975 14.9405 8.94033 15.286C8.98315 15.6314 9.09604 15.9646 9.27216 16.2653C10.4988 18.3796 12.2268 20.163 14.3053 21.4598C16.3838 22.7566 18.7496 23.5273 21.1962 23.7048C24.2027 23.9154 27.0868 24.974 29.5108 26.7566L33.8207 29.9514C33.9449 30.0438 34.0936 30.0978 34.2485 30.1066C34.4033 30.1155 34.5573 30.0788 34.6913 30.0012C34.8253 29.9235 34.9334 29.8083 35.0021 29.67C35.0708 29.5316 35.0971 29.3762 35.0777 29.223L34.4447 23.8254C34.1057 20.8836 34.61 17.9063 35.8993 15.2376C36.9473 13.0428 37.443 10.6273 37.3437 8.19931C37.2444 5.77134 36.5529 3.40391 35.3291 1.30125Z" fill="#00ADF1"/>
</svg>
