<svg width="310" height="75" viewBox="0 0 310 75" fill="none" xmlns="http://www.w3.org/2000/svg">
<path d="M92.4139 28.494V33.4406H96.3891C97.0566 33.4564 97.7033 33.2074 98.1878 32.7481C98.4238 32.5134 98.6088 32.2324 98.7311 31.9229C98.8533 31.6134 98.9103 31.2819 98.8984 30.9493C98.9083 30.6243 98.8502 30.3008 98.7279 29.9996C98.6055 29.6984 98.4216 29.426 98.1878 29.2C97.9525 28.9649 97.6715 28.7806 97.3621 28.6584C97.0527 28.5362 96.7216 28.4787 96.3891 28.4895H92.4139V28.494ZM91.2852 22.5986H98.9793V23.6554H92.4049V27.4418H96.3801C96.8614 27.4277 97.3407 27.5104 97.7895 27.6849C98.2383 27.8595 98.6475 28.1224 98.9928 28.458C99.3382 28.7741 99.6123 29.1602 99.7969 29.5906C99.9814 30.0209 100.072 30.4857 100.063 30.9538C100.072 31.4246 99.981 31.8919 99.7966 32.3251C99.6121 32.7583 99.3382 33.1476 98.9928 33.4675C98.6478 33.804 98.2388 34.0677 97.79 34.2431C97.3412 34.4184 96.8617 34.5018 96.3801 34.4883H91.2852V22.5986Z" fill="white"/>
<path d="M102.029 34.4885H101.534V33.4722H101.957C102.877 33.4722 103.337 32.5443 103.337 30.6886V25.6611H109.925V34.493H108.873V26.6864H104.376V30.8775C104.437 31.8192 104.218 32.7579 103.747 33.5756C103.563 33.8625 103.308 34.0972 103.007 34.2571C102.706 34.417 102.369 34.4967 102.029 34.4885Z" fill="white"/>
<path d="M119.027 27.5769C118.712 27.2553 118.337 26.9998 117.923 26.8253C117.509 26.6509 117.064 26.561 116.614 26.561C116.164 26.561 115.72 26.6509 115.305 26.8253C114.891 26.9998 114.516 27.2553 114.201 27.5769C113.882 27.9075 113.632 28.2986 113.466 28.7272C113.3 29.1557 113.221 29.6132 113.235 30.0726C113.222 30.5347 113.301 30.9947 113.467 31.4261C113.633 31.8576 113.882 32.2519 114.201 32.5864C114.841 33.2259 115.709 33.5852 116.614 33.5852C117.519 33.5852 118.387 33.2259 119.027 32.5864C119.346 32.2521 119.596 31.8577 119.762 31.4263C119.928 30.9948 120.006 30.5347 119.993 30.0726C120.006 29.6133 119.927 29.1559 119.761 28.7274C119.595 28.2989 119.345 27.9078 119.027 27.5769ZM116.508 25.5083C117.2 25.4797 117.887 25.6303 118.503 25.9455C119.119 26.2606 119.643 26.7296 120.025 27.3071V25.6612H121.077V34.4886H120.025V32.8427C119.638 33.4014 119.119 33.8556 118.514 34.1648C117.894 34.4845 117.206 34.6481 116.508 34.6414C115.925 34.656 115.345 34.5474 114.807 34.3226C114.268 34.0979 113.783 33.7622 113.383 33.3374C112.583 32.4396 112.142 31.2794 112.142 30.0771C112.142 28.8749 112.583 27.7146 113.383 26.8169C113.783 26.3913 114.268 26.0547 114.806 25.8292C115.345 25.6037 115.925 25.4944 116.508 25.5083Z" fill="white"/>
<path d="M124.881 26.677V34.4836H123.829V25.6562H129.464V26.6725H124.881V26.677Z" fill="white"/>
<path d="M132.319 27.5589C131.716 28.1364 131.332 28.906 131.234 29.7355C131.136 30.5651 131.33 31.4029 131.782 32.1053C132.234 32.8077 132.916 33.3308 133.712 33.585C134.508 33.8392 135.367 33.8085 136.143 33.4983C136.918 33.188 137.562 32.6175 137.963 31.8847C138.364 31.1519 138.497 30.3024 138.34 29.482C138.183 28.6615 137.745 27.9213 137.102 27.3882C136.459 26.8552 135.651 26.5626 134.815 26.5606C134.353 26.5491 133.894 26.6317 133.465 26.8033C133.036 26.9749 132.646 27.232 132.319 27.5589ZM131.555 33.3329C130.763 32.5753 130.26 31.5657 130.131 30.4774C130.003 29.3891 130.257 28.29 130.851 27.3689C131.444 26.4477 132.34 25.762 133.384 25.4295C134.429 25.0969 135.556 25.1383 136.573 25.5465C137.59 25.9547 138.433 26.7043 138.958 27.6664C139.482 28.6286 139.655 29.7434 139.447 30.8194C139.239 31.8953 138.663 32.8653 137.818 33.5628C136.973 34.2602 135.911 34.6416 134.815 34.6414C134.211 34.6577 133.61 34.55 133.05 34.3249C132.489 34.0999 131.98 33.7622 131.555 33.3329Z" fill="white"/>
<path d="M142.729 33.4677H148.008V26.6774H143.449V30.4638C143.501 31.5133 143.252 32.5559 142.729 33.4677ZM141.286 34.4885V37.0382H140.233V33.4722H141.457C142.077 33.0225 142.392 32.0332 142.392 30.4818V25.6611H149.061V33.4677H150.693V37.0337H149.641V34.4885H141.286Z" fill="white"/>
<path d="M153.576 34.4884H152.524V25.661H153.576V34.4884ZM152.254 23.471C152.233 23.3309 152.26 23.188 152.329 23.0644C152.398 22.9408 152.506 22.8435 152.636 22.7875C152.764 22.7205 152.907 22.6855 153.052 22.6855C153.197 22.6855 153.34 22.7205 153.468 22.7875C153.597 22.8453 153.703 22.9429 153.772 23.066C153.841 23.1891 153.868 23.3312 153.85 23.471C153.856 23.5795 153.836 23.6878 153.793 23.7876C153.751 23.8873 153.685 23.976 153.603 24.0466C153.449 24.1784 153.253 24.2517 153.05 24.2535C152.847 24.2533 152.65 24.1798 152.497 24.0466C152.415 23.9755 152.351 23.8867 152.309 23.787C152.266 23.6872 152.248 23.5791 152.254 23.471Z" fill="white"/>
<path d="M157.654 21.9424H158.554C158.55 22.1563 158.594 22.3683 158.682 22.5634C158.77 22.7585 158.899 22.9318 159.062 23.0711C159.415 23.3749 159.869 23.5354 160.334 23.5208C160.799 23.536 161.252 23.3754 161.603 23.0711C161.763 22.9308 161.891 22.757 161.977 22.562C162.063 22.367 162.106 22.1555 162.102 21.9424H163.001C163.009 22.2714 162.945 22.5983 162.813 22.8997C162.681 23.2012 162.484 23.47 162.237 23.6872C161.709 24.156 161.022 24.4054 160.316 24.3842C159.608 24.4008 158.918 24.1522 158.383 23.6872C158.14 23.4682 157.949 23.1982 157.823 22.8965C157.697 22.5948 157.639 22.269 157.654 21.9424ZM163.307 27.4016L157.245 34.4841H156.346V25.6568H157.389V32.7529L163.451 25.6568H164.35V34.4886H163.298L163.307 27.4016Z" fill="white"/>
<path d="M168.164 30.4949V34.4836H167.111V25.6562H168.164V29.4741H174.041V25.6562H175.093V34.4836H174.041V30.4949H168.164Z" fill="white"/>
<path d="M184.82 27.4055L178.758 34.4881H177.841V25.6562H178.893V32.7523L184.955 25.6562H185.872V34.4881H184.82V27.4055Z" fill="white"/>
<path d="M189.951 21.9424H190.85C190.847 22.1563 190.891 22.3683 190.979 22.5634C191.066 22.7585 191.196 22.9318 191.358 23.0711C191.714 23.3744 192.169 23.5347 192.636 23.5208C193.099 23.5362 193.55 23.3755 193.899 23.0711C194.061 22.9316 194.19 22.7581 194.277 22.563C194.364 22.3679 194.407 22.156 194.403 21.9424H195.302C195.31 22.2714 195.246 22.5983 195.114 22.8997C194.982 23.2012 194.785 23.47 194.538 23.6872C194.01 24.156 193.323 24.4054 192.618 24.3842C191.909 24.4008 191.219 24.1522 190.684 23.6872C190.44 23.4691 190.247 23.1993 190.121 22.8975C189.994 22.5957 189.936 22.2694 189.951 21.9424ZM195.612 27.4016L189.551 34.4841H188.651V25.6568H189.708V32.7529L195.765 25.6568H196.665V34.4886H195.612V27.4016Z" fill="white"/>
<path d="M210.578 26.5603C210.367 26.5616 210.157 26.5782 209.948 26.6097V33.5394C210.157 33.571 210.367 33.5875 210.578 33.5889C211.037 33.6003 211.494 33.5176 211.92 33.3459C212.346 33.1742 212.732 32.9171 213.056 32.5906C213.7 31.9121 214.059 31.0123 214.059 30.0768C214.059 29.1414 213.7 28.2416 213.056 27.5631C212.733 27.235 212.347 26.9767 211.921 26.8042C211.495 26.6317 211.037 26.5487 210.578 26.5603ZM208.284 26.5603C207.353 26.5603 206.46 26.9303 205.801 27.5889C205.142 28.2476 204.772 29.1409 204.772 30.0723C204.772 31.0038 205.142 31.8971 205.801 32.5557C206.46 33.2144 207.353 33.5844 208.284 33.5844C208.489 33.586 208.694 33.5694 208.896 33.5349V26.6097C208.694 26.5775 208.489 26.5609 208.284 26.5603ZM210.578 34.6546C210.367 34.6541 210.157 34.6421 209.948 34.6187V38.3196H208.896V34.5962C208.693 34.6208 208.489 34.6328 208.284 34.6322C207.673 34.6514 207.063 34.5474 206.492 34.3266C205.922 34.1057 205.401 33.7724 204.962 33.3465C204.522 32.9206 204.173 32.4107 203.934 31.8471C203.695 31.2835 203.572 30.6776 203.572 30.0656C203.572 29.4535 203.695 28.8477 203.934 28.2841C204.173 27.7205 204.522 27.2106 204.962 26.7847C205.401 26.3587 205.922 26.0255 206.492 25.8046C207.063 25.5837 207.673 25.4798 208.284 25.499C208.489 25.497 208.693 25.5075 208.896 25.5305V21.7441H209.948V25.5305C210.157 25.5086 210.368 25.4981 210.578 25.499C211.19 25.4798 211.799 25.5837 212.37 25.8046C212.941 26.0255 213.461 26.3587 213.901 26.7847C214.34 27.2106 214.69 27.7205 214.928 28.2841C215.167 28.8477 215.29 29.4535 215.29 30.0656C215.29 30.6776 215.167 31.2835 214.928 31.8471C214.69 32.4107 214.34 32.9206 213.901 33.3465C213.461 33.7724 212.941 34.1057 212.37 34.3266C211.799 34.5474 211.19 34.6514 210.578 34.6322V34.6546Z" fill="white"/>
<path d="M218.951 27.5589C218.449 28.0491 218.105 28.6787 217.963 29.3663C217.822 30.054 217.89 30.7682 218.159 31.4168C218.428 32.0654 218.884 32.6186 219.471 33.005C220.057 33.3915 220.745 33.5934 221.447 33.5847C221.906 33.5961 222.363 33.5134 222.789 33.3417C223.215 33.17 223.602 32.913 223.925 32.5864C224.566 31.9064 224.923 31.0071 224.923 30.0726C224.923 29.1381 224.566 28.2389 223.925 27.5589C223.255 26.9184 222.365 26.561 221.438 26.561C220.512 26.561 219.621 26.9184 218.951 27.5589ZM218.187 33.3329C217.395 32.5753 216.892 31.5657 216.763 30.4774C216.635 29.3891 216.889 28.29 217.483 27.3689C218.076 26.4477 218.972 25.762 220.016 25.4295C221.06 25.0969 222.188 25.1383 223.205 25.5465C224.222 25.9547 225.065 26.7043 225.589 27.6664C226.114 28.6286 226.287 29.7434 226.079 30.8194C225.871 31.8953 225.295 32.8653 224.45 33.5628C223.605 34.2602 222.543 34.6416 221.447 34.6414C220.843 34.6577 220.242 34.55 219.681 34.3249C219.121 34.0999 218.612 33.7622 218.187 33.3329Z" fill="white"/>
<path d="M229.272 30.4949V34.4836H228.22V25.6562H229.272V29.4741H235.145V25.6562H236.202V34.4836H235.145V30.4949H229.272Z" fill="white"/>
<path d="M240.532 33.4677H245.811V26.6774H241.247V30.4638C241.303 31.513 241.055 32.5561 240.532 33.4677ZM239.088 34.4885V37.0382H238.036V33.4722H239.259C239.88 33.0225 240.195 32.0332 240.195 30.4818V25.6611H246.877V33.4677H248.509V37.0337H247.457V34.4885H239.088Z" fill="white"/>
<path d="M97.963 43.064H94.1407V47.4124H97.963C98.2507 47.4206 98.537 47.3693 98.804 47.2618C99.0709 47.1542 99.3128 46.9927 99.5144 46.7874C99.7167 46.5822 99.8752 46.3382 99.9804 46.0699C100.085 45.8017 100.135 45.5149 100.126 45.227C100.135 44.9405 100.085 44.6554 99.9791 44.389C99.8735 44.1226 99.7145 43.8807 99.5119 43.6781C99.3092 43.4754 99.0673 43.3164 98.8009 43.2108C98.5346 43.1052 98.2494 43.0552 97.963 43.064ZM94.1407 50.0431V55.2819H91.2852V40.4423H97.9495C99.3054 40.3902 100.627 40.8749 101.628 41.7913C102.097 42.2301 102.472 42.7607 102.728 43.3501C102.984 43.9396 103.116 44.5753 103.116 45.218C103.116 45.8606 102.984 46.4963 102.728 47.0858C102.472 47.6752 102.097 48.2058 101.628 48.6446C100.64 49.5647 99.3305 50.0604 97.981 50.0251L94.1407 50.0431Z" fill="white"/>
<path d="M109.637 46.5893C109.226 46.5784 108.818 46.6527 108.438 46.8075C108.058 46.9623 107.714 47.1943 107.429 47.4887C106.856 48.1071 106.538 48.9189 106.538 49.7618C106.538 50.6047 106.856 51.4166 107.429 52.035C108.017 52.6145 108.81 52.9392 109.637 52.9392C110.463 52.9392 111.256 52.6145 111.844 52.035C112.417 51.4166 112.735 50.6047 112.735 49.7618C112.735 48.9189 112.417 48.1071 111.844 47.4887C111.559 47.1938 111.215 46.9616 110.835 46.8068C110.455 46.6519 110.047 46.5779 109.637 46.5893ZM105.454 53.9506C104.348 52.8421 103.728 51.3395 103.729 49.7735C103.731 48.2074 104.355 46.7061 105.463 45.6C106.572 44.4938 108.075 43.8733 109.641 43.875C111.207 43.8767 112.708 44.5004 113.814 45.609C114.366 46.1492 114.8 46.7975 115.089 47.5133C115.379 48.229 115.517 48.9968 115.496 49.7686C115.516 50.5436 115.378 51.3146 115.088 52.0339C114.799 52.7532 114.365 53.4056 113.814 53.9506C112.682 55.0136 111.187 55.6053 109.634 55.6053C108.081 55.6053 106.587 55.0136 105.454 53.9506Z" fill="white"/>
<path d="M120.586 52.7636H125.083V46.7782H121.135V49.3055C121.173 50.4825 120.987 51.6561 120.586 52.7636ZM118.716 58.4746H116.085V52.7636H117.884C118.333 52.197 118.54 50.9648 118.54 49.1121V44.251H127.754V52.7636H129.728V58.4746H127.098V55.2818H118.716V58.4656V58.4746Z" fill="white"/>
<path d="M138.948 48.707L133.345 55.2859H131.137V44.2461H133.767V50.8925L139.37 44.2461H141.578V55.2859H138.948V48.707Z" fill="white"/>
<path d="M146.462 50.9378V55.2908H143.831V44.251H146.462V48.4106H151.638V44.251H154.268V55.2908H151.638V50.9378H146.462Z" fill="white"/>
<path d="M164.333 48.707L158.729 55.2859H156.521V44.2461H159.152V50.8925L164.755 44.2461H166.963V55.2859H164.333V48.707Z" fill="white"/>
<path d="M177.301 55.2903H173.753L179.891 47.6906L174.18 40.4326H177.724L182.922 47.0745V40.4326H185.764V47.0115L190.944 40.4326H194.465L188.759 47.6906L194.893 55.2903H191.367L185.764 48.3471V55.2903H182.922V48.3066L177.301 55.2903Z" fill="white"/>
<path d="M197.888 48.6851H203.981C203.783 48.0153 203.373 47.4281 202.812 47.0122C202.256 46.591 201.576 46.3664 200.878 46.3737C200.202 46.3701 199.544 46.5951 199.012 47.0122C198.464 47.4316 198.069 48.0193 197.888 48.6851ZM206.63 50.7491H197.861C198.046 51.4481 198.461 52.0644 199.039 52.4984C199.628 52.9451 200.35 53.1811 201.09 53.1685C201.582 53.1896 202.072 53.0948 202.522 52.8918C202.971 52.6887 203.366 52.383 203.675 51.9993L206.243 52.7412C205.743 53.6281 205.005 54.3571 204.111 54.8458C203.187 55.3575 202.146 55.6209 201.09 55.6102C200.304 55.6316 199.522 55.4963 198.789 55.2121C198.057 54.928 197.388 54.5008 196.822 53.9554C195.74 52.8393 195.131 51.3487 195.122 49.7945C195.113 48.2403 195.704 46.7426 196.772 45.6137C197.586 44.7904 198.628 44.2292 199.763 44.0023C200.898 43.7753 202.076 43.893 203.143 44.3402C204.211 44.7873 205.121 45.5436 205.756 46.5117C206.391 47.4799 206.722 48.6157 206.706 49.7733C206.71 50.1002 206.684 50.4268 206.63 50.7491Z" fill="white"/>
<path d="M214.144 52.975C214.542 52.9855 214.938 52.9106 215.305 52.7555C215.672 52.6004 216.001 52.3686 216.271 52.0757C216.83 51.4461 217.139 50.6333 217.139 49.7912C217.139 48.9492 216.83 48.1364 216.271 47.5069C215.999 47.2117 215.669 46.9761 215.301 46.815C214.934 46.6539 214.537 46.5707 214.135 46.5707C213.734 46.5707 213.337 46.6539 212.969 46.815C212.602 46.9761 212.271 47.2117 211.999 47.5069C211.44 48.1364 211.131 48.9492 211.131 49.7912C211.131 50.6333 211.44 51.4461 211.999 52.0757C212.272 52.3695 212.605 52.6017 212.975 52.7568C213.345 52.9119 213.743 52.9863 214.144 52.975ZM207.849 47.3539C207.849 44.8897 208.408 43.0145 209.526 41.7284C210.641 40.4423 212.399 39.6733 214.787 39.4125L218.484 39.0527V41.7059L214.832 42.0656C212.101 42.3654 210.644 43.6246 210.461 45.843C210.877 45.2248 211.445 44.7241 212.111 44.3894C212.776 44.0546 213.517 43.897 214.261 43.9318C215.005 43.9204 215.742 44.0659 216.426 44.3588C217.109 44.6517 217.723 45.0854 218.227 45.6316C218.764 46.1852 219.185 46.8401 219.466 47.5582C219.747 48.2762 219.883 49.0429 219.864 49.8137C219.882 50.5793 219.744 51.3405 219.46 52.0515C219.175 52.7625 218.75 53.4086 218.209 53.9508C217.678 54.4945 217.039 54.9222 216.334 55.207C215.629 55.4918 214.873 55.6275 214.113 55.6057C213.287 55.6177 212.469 55.4493 211.716 55.1122C210.963 54.7751 210.292 54.2775 209.751 53.6541C209.106 52.9031 208.631 52.0208 208.361 51.0684C208.006 49.863 207.838 48.6103 207.862 47.3539H207.849Z" fill="white"/>
<path d="M229.474 47.4976C229.204 47.2096 228.878 46.9799 228.516 46.8229C228.154 46.6659 227.764 46.5849 227.369 46.5849C226.975 46.5849 226.584 46.6659 226.222 46.8229C225.86 46.9799 225.534 47.2096 225.265 47.4976C224.72 48.1296 224.42 48.9363 224.42 49.7708C224.42 50.6053 224.72 51.412 225.265 52.044C225.534 52.3321 225.86 52.5617 226.222 52.7187C226.584 52.8758 226.975 52.9568 227.369 52.9568C227.764 52.9568 228.154 52.8758 228.516 52.7187C228.878 52.5617 229.204 52.3321 229.474 52.044C230.033 51.4189 230.343 50.6096 230.343 49.7708C230.343 48.932 230.033 48.1227 229.474 47.4976ZM224.392 60.0664H221.739V44.2509H224.392V45.1188C225.33 44.3457 226.509 43.9257 227.725 43.9316C228.448 43.9174 229.166 44.0599 229.829 44.3494C230.491 44.639 231.084 45.0687 231.565 45.609C232.61 46.7364 233.166 48.232 233.112 49.7686C233.159 51.3093 232.604 52.8078 231.565 53.9462C231.079 54.4784 230.485 54.9012 229.823 55.1865C229.161 55.4718 228.445 55.6131 227.725 55.601C226.509 55.607 225.33 55.1869 224.392 54.4138V60.0664Z" fill="white"/>
<path d="M237.577 55.2816H234.928V44.2508H237.577V55.2816ZM236.228 43.266C236.005 43.2723 235.782 43.2319 235.576 43.1475C235.369 43.0631 235.182 42.9365 235.027 42.7758C234.871 42.6165 234.748 42.4273 234.666 42.2195C234.584 42.0117 234.545 41.7895 234.55 41.5662C234.544 41.3444 234.583 41.1237 234.666 40.9177C234.748 40.7116 234.871 40.5245 235.028 40.3678C235.185 40.2112 235.373 40.0883 235.579 40.0067C235.785 39.9251 236.006 39.8865 236.228 39.8933C236.451 39.8875 236.673 39.9267 236.881 40.0086C237.089 40.0905 237.278 40.2134 237.437 40.37C237.597 40.5244 237.723 40.7106 237.807 40.9166C237.891 41.1227 237.93 41.3439 237.923 41.5662C237.929 41.7895 237.89 42.0117 237.808 42.2195C237.726 42.4273 237.603 42.6165 237.446 42.7758C237.291 42.9378 237.104 43.0658 236.896 43.1518C236.689 43.2377 236.466 43.2796 236.241 43.275L236.228 43.266Z" fill="white"/>
<path d="M242.461 50.659V52.7815H246.176C246.352 52.8111 246.533 52.7778 246.688 52.6874C246.842 52.597 246.96 52.4553 247.021 52.2869C247.105 52.1115 247.149 51.9194 247.149 51.7248C247.149 51.5301 247.105 51.338 247.021 51.1627C246.961 50.9931 246.844 50.8499 246.689 50.7579C246.535 50.6659 246.353 50.6309 246.176 50.659H242.461ZM245.771 46.7557H242.461V48.5365H245.771C245.886 48.5408 246.001 48.5215 246.108 48.4797C246.216 48.4379 246.314 48.3746 246.396 48.2937C246.479 48.2084 246.544 48.1069 246.585 47.9954C246.627 47.8839 246.645 47.765 246.639 47.6461C246.643 47.5308 246.624 47.4159 246.582 47.3083C246.541 47.2008 246.477 47.103 246.396 47.021C246.318 46.9321 246.222 46.8608 246.114 46.8119C246.006 46.7631 245.889 46.7378 245.771 46.7377V46.7557ZM239.83 44.251H245.771C246.658 44.2161 247.529 44.4947 248.231 45.0379C248.551 45.265 248.818 45.5593 249.013 45.9003C249.208 46.2412 249.326 46.6207 249.359 47.012C249.37 47.0957 249.37 47.1802 249.359 47.2639C249.37 47.6719 249.287 48.077 249.118 48.4485C248.949 48.8201 248.698 49.1484 248.383 49.4089C248.838 49.6483 249.218 50.0092 249.48 50.4514C249.742 50.8936 249.876 51.3997 249.867 51.9136C249.88 52.3735 249.791 52.8304 249.608 53.2523C249.424 53.6741 249.151 54.0507 248.806 54.3554C248.078 54.9858 247.139 55.3196 246.176 55.2908H239.812L239.83 44.251Z" fill="white"/>
<path d="M262.409 47.5823L259.76 48.3692C259.529 47.8304 259.141 47.3741 258.645 47.0606C258.139 46.7428 257.552 46.5788 256.954 46.5885C256.544 46.5776 256.136 46.6519 255.756 46.8067C255.376 46.9615 255.032 47.1934 254.746 47.4878C254.174 48.1063 253.855 48.9181 253.855 49.761C253.855 50.6039 254.174 51.4157 254.746 52.0342C255.032 52.3286 255.376 52.5605 255.756 52.7153C256.136 52.8701 256.544 52.9444 256.954 52.9336C257.552 52.9383 258.138 52.773 258.645 52.4569C259.141 52.1445 259.531 51.6879 259.76 51.1483L262.409 51.9352C262.009 53.0239 261.273 53.9576 260.309 54.6019C259.317 55.2631 258.147 55.6066 256.954 55.5867C256.182 55.6049 255.414 55.4678 254.695 55.1836C253.977 54.8993 253.323 54.4736 252.772 53.9319C252.228 53.3836 251.801 52.7307 251.517 52.0126C251.232 51.2946 251.096 50.5263 251.117 49.7543C251.096 48.9809 251.233 48.2112 251.519 47.4925C251.806 46.7737 252.236 46.1208 252.783 45.5737C253.33 45.0266 253.983 44.5968 254.701 44.3104C255.42 44.0241 256.19 43.8873 256.963 43.9084C258.156 43.8901 259.326 44.2351 260.318 44.8976C261.288 45.5414 262.022 46.4839 262.409 47.5823Z" fill="white"/>
<path d="M266.662 50.3352V52.777H269.761C269.911 52.7784 270.059 52.7478 270.197 52.6873C270.334 52.6269 270.457 52.5379 270.557 52.4263C270.773 52.1933 270.891 51.8854 270.885 51.5674C270.893 51.2637 270.793 50.967 270.602 50.731C270.513 50.6182 270.403 50.5249 270.276 50.4568C270.15 50.3887 270.012 50.3473 269.869 50.3352H266.662ZM269.779 55.2818H264.027V44.251H266.662V47.7945H269.81C270.316 47.7851 270.818 47.876 271.288 48.062C271.758 48.2481 272.187 48.5255 272.549 48.8783C272.915 49.2229 273.204 49.642 273.394 50.1074C273.585 50.5728 273.674 51.0737 273.655 51.5764C273.666 52.0747 273.573 52.5698 273.383 53.0304C273.193 53.491 272.909 53.907 272.549 54.252C271.807 54.9419 270.823 55.3119 269.81 55.2818H269.779Z" fill="white"/>
<path d="M277.905 49.8762V55.2859H275.274V44.2461H277.905V49.2781L281.831 44.2461H285.037L280.895 49.5749L285.5 55.2859H282.254L277.905 49.8762Z" fill="white"/>
<path d="M294.629 48.707L289.03 55.2859H286.822V44.2461H289.453V50.8925L295.056 44.2461H297.26V55.2859H294.629V48.707Z" fill="white"/>
<path d="M306.896 55.2908L304.288 51.7248L301.698 55.2908H298.577L302.719 49.6203L298.811 44.251H301.909L304.288 47.5202L306.685 44.251H309.788L305.858 49.6203L309.999 55.2908H306.896Z" fill="white"/>
<path d="M6.72804 42.2714C9.41066 41.7548 11.1666 39.1614 10.65 36.4788C10.1334 33.7961 7.53992 32.0402 4.85731 32.5568C2.17469 33.0734 0.418779 35.6669 0.93537 38.3495C1.45196 41.0321 4.04543 42.788 6.72804 42.2714Z" fill="white"/>
<path d="M5.88249 22.3028C5.53999 22.3031 5.20109 22.374 4.88618 22.5113C4.57128 22.6485 4.28689 22.8493 4.05013 23.1016C3.81337 23.3538 3.62914 23.6523 3.50853 23.979C3.38792 24.3057 3.33341 24.6539 3.3483 25.0026C3.39106 25.6699 3.68219 26.2953 4.16223 26.7512C4.64227 27.207 5.27497 27.4587 5.93105 27.455C8.50707 27.455 10.9776 28.498 12.7991 30.3545C14.6206 32.211 15.644 34.729 15.644 37.3545C15.644 39.98 14.6206 42.4979 12.7991 44.3544C10.9776 46.2109 8.50707 47.2539 5.93105 47.2539C5.27457 47.2514 4.64186 47.5041 4.16194 47.9607C3.68201 48.4172 3.39102 49.0431 3.3483 49.7108C3.33278 50.0597 3.38685 50.4082 3.50724 50.7352C3.62762 51.0622 3.81182 51.3609 4.04871 51.6132C4.28559 51.8656 4.57024 52.0664 4.88543 52.2035C5.20062 52.3405 5.53981 52.411 5.88249 52.4106C8.29454 52.4101 10.6699 51.8084 12.8014 50.6578C14.933 49.5072 16.7561 47.8428 18.1119 45.8095C19.7715 43.307 22.094 41.3362 24.8094 40.1263L29.635 38.0024C29.7754 37.9417 29.8951 37.8402 29.9792 37.7105C30.0634 37.5809 30.1083 37.4289 30.1083 37.2735C30.1083 37.118 30.0634 36.966 29.9792 36.8364C29.8951 36.7068 29.7754 36.6053 29.635 36.5445L24.7035 34.3756C22.0247 33.1837 19.7296 31.2469 18.081 28.7869C16.7145 26.7805 14.8905 25.1422 12.7657 24.0128C10.6409 22.8834 8.27888 22.2965 5.88249 22.3028Z" fill="white"/>
<path d="M72.2264 42.2971C74.9169 41.8232 76.7138 39.2579 76.2399 36.5674C75.766 33.877 73.2007 32.0801 70.5102 32.554C67.8197 33.0279 66.0229 35.5932 66.4968 38.2837C66.9707 40.9741 69.536 42.771 72.2264 42.2971Z" fill="white"/>
<path d="M71.5563 52.4106C71.9058 52.4104 72.2518 52.3395 72.5732 52.2024C72.8946 52.0652 73.1849 51.8647 73.4265 51.6127C73.6682 51.3607 73.8562 51.0626 73.9793 50.7362C74.1024 50.4098 74.1581 50.062 74.1429 49.7136C74.1049 49.0438 73.8117 48.4137 73.3233 47.9524C72.835 47.4912 72.1883 47.2336 71.5157 47.2323C68.8864 47.2323 66.3648 46.1904 64.5056 44.3359C62.6464 42.4813 61.6019 39.966 61.6019 37.3432C61.6019 34.7204 62.6464 32.2051 64.5056 30.3505C66.3648 28.496 68.8864 27.4541 71.5157 27.4541C72.1855 27.4556 72.8306 27.2027 73.3203 26.7469C73.8099 26.291 74.1072 25.6664 74.1519 24.9998C74.1664 24.6515 74.1104 24.304 73.987 23.9779C73.8637 23.6518 73.6756 23.3539 73.4341 23.1021C73.1925 22.8502 72.9026 22.6496 72.5815 22.5123C72.2603 22.3749 71.9147 22.3036 71.5653 22.3027C69.1027 22.3033 66.6777 22.9044 64.5013 24.0538C62.3249 25.2031 60.4633 26.8658 59.0785 28.897C57.3857 31.3979 55.0148 33.3669 52.2424 34.5743L47.3171 36.6959C47.1738 36.7566 47.0516 36.858 46.9657 36.9875C46.8798 37.117 46.834 37.2688 46.834 37.4241C46.834 37.5794 46.8798 37.7312 46.9657 37.8607C47.0516 37.9902 47.1738 38.0916 47.3171 38.1523L52.3506 40.3189C55.0855 41.5083 57.4284 43.4434 59.11 45.9018C60.5013 47.9107 62.3609 49.5527 64.5289 50.6864C66.6969 51.8202 69.1084 52.4119 71.5563 52.4106Z" fill="white"/>
<path d="M23.1206 70.6718C25.8032 70.1552 27.5591 67.5618 27.0426 64.8791C26.526 62.1965 23.9325 60.4406 21.2499 60.9572C18.5673 61.4738 16.8114 64.0673 17.3279 66.7499C17.8445 69.4325 20.438 71.1884 23.1206 70.6718Z" fill="white"/>
<path d="M9.27233 58.4707C9.09612 58.7709 8.98318 59.1035 8.94033 59.4484C8.89749 59.7933 8.92565 60.1432 9.0231 60.4769C9.12055 60.8107 9.28524 61.1213 9.50722 61.3899C9.72919 61.6585 10.0038 61.8795 10.3144 62.0395C10.9122 62.3402 11.6035 62.4014 12.2454 62.2104C12.8873 62.0195 13.431 61.591 13.764 61.0135C15.0743 58.7572 17.2335 57.1104 19.7664 56.4353C22.2993 55.7602 24.9986 56.112 27.2703 57.4135C29.542 58.7149 31.2001 60.8593 31.8799 63.3749C32.5597 65.8906 32.2054 68.5713 30.895 70.8276C30.5574 71.3998 30.453 72.0786 30.6034 72.7248C30.7537 73.371 31.1473 73.9356 31.7035 74.3027C31.9984 74.4918 32.3291 74.619 32.6753 74.6764C33.0215 74.7339 33.3759 74.7205 33.7166 74.6369C34.0574 74.5533 34.3774 74.4014 34.6568 74.1905C34.9363 73.9796 35.1694 73.7141 35.3417 73.4105C36.5679 71.299 37.256 68.9219 37.346 66.486C37.436 64.0502 36.9253 61.6294 35.8583 59.4343C34.5352 56.7433 34.0117 53.7336 34.3491 50.7577L34.9734 45.4804C34.9905 45.3278 34.9624 45.1736 34.8926 45.0366C34.8228 44.8996 34.7143 44.7857 34.5804 44.7091C34.4464 44.6324 34.2929 44.5961 34.1385 44.6048C33.9841 44.6134 33.8357 44.6666 33.7113 44.7577L29.3409 48.0098C26.9455 49.7769 24.0962 50.8361 21.1212 51.0655C18.6899 51.2542 16.3412 52.0267 14.2772 53.3166C12.2131 54.6066 10.4956 56.3754 9.27233 58.4707Z" fill="white"/>
<path d="M55.83 13.8967C58.5204 13.4228 60.3173 10.8575 59.8434 8.16705C59.3695 5.47657 56.8042 3.67969 54.1137 4.15361C51.4233 4.62753 49.6264 7.19279 50.1003 9.88327C50.5742 12.5737 53.1395 14.3706 55.83 13.8967Z" fill="white"/>
<path d="M68.2302 16.5407C68.4056 16.2345 68.5177 15.8955 68.5599 15.5443C68.6021 15.193 68.5734 14.8367 68.4756 14.4969C68.3778 14.1572 68.2129 13.841 67.9908 13.5676C67.7688 13.2941 67.4941 13.0691 67.1837 12.9061C66.5858 12.5998 65.8947 12.5375 65.2527 12.732C64.6108 12.9264 64.0672 13.3628 63.7342 13.951C62.4239 16.2483 60.2651 17.9249 57.7327 18.6121C55.2002 19.2992 52.5017 18.9406 50.2306 17.6152C47.9596 16.2897 46.3021 14.106 45.6228 11.5444C44.9434 8.98275 45.2979 6.25306 46.6083 3.95582C46.9437 3.37251 47.0468 2.68181 46.8966 2.02431C46.7464 1.36681 46.3542 0.791898 45.7998 0.416584C45.5046 0.223894 45.1736 0.0942796 44.827 0.0356847C44.4805 -0.0229101 44.1258 -0.00922735 43.7847 0.0758655C43.4436 0.160958 43.1232 0.315676 42.8434 0.530526C42.5635 0.745377 42.33 1.0158 42.1572 1.32524C40.9306 3.47566 40.2428 5.89694 40.1535 8.37797C40.0643 10.859 40.5764 13.3244 41.6452 15.5593C42.9648 18.3011 43.4866 21.3657 43.1498 24.396L42.53 29.7707C42.5116 29.9261 42.5387 30.0834 42.6078 30.2234C42.6769 30.3633 42.7851 30.4796 42.919 30.558C43.0529 30.6363 43.2065 30.6732 43.3609 30.6641C43.5153 30.655 43.6637 30.6003 43.7876 30.5067L48.1713 27.2083C50.5648 25.4175 53.4088 24.3452 56.3772 24.1143C58.8119 23.9184 61.1629 23.1267 63.2278 21.8073C65.2927 20.4879 67.0094 18.6805 68.2302 16.5407Z" fill="white"/>
<path d="M55.83 70.6946C58.5204 70.2206 60.3173 67.6554 59.8434 64.9649C59.3695 62.2744 56.8042 60.4775 54.1137 60.9515C51.4233 61.4254 49.6264 63.9906 50.1003 66.6811C50.5742 69.3716 53.1395 71.1685 55.83 70.6946Z" fill="white"/>
<path d="M42.1605 73.4099C42.3338 73.7137 42.5677 73.9792 42.8477 74.1902C43.1278 74.4011 43.4482 74.553 43.7893 74.6367C44.1304 74.7203 44.4851 74.7339 44.8316 74.6767C45.1782 74.6194 45.5094 74.4924 45.805 74.3035C46.3597 73.9344 46.7521 73.369 46.9024 72.7223C47.0526 72.0756 46.9495 71.3964 46.6139 70.8227C45.3028 68.5633 44.9482 65.8786 45.6278 63.3592C46.3075 60.8397 47.9659 58.692 50.2381 57.3884C52.5104 56.0848 55.2103 55.7321 57.7441 56.4079C60.2778 57.0838 62.4378 58.7328 63.7488 60.9922C63.9164 61.2856 64.1405 61.5432 64.4082 61.7505C64.676 61.9578 64.9822 62.1106 65.3094 62.2003C65.6365 62.2899 65.9782 62.3146 66.3149 62.2729C66.6517 62.2312 66.9769 62.124 67.272 61.9573C67.567 61.7907 67.8262 61.5679 68.0347 61.3016C68.2432 61.0354 68.3968 60.7309 68.487 60.4056C68.5771 60.0803 68.6019 59.7405 68.56 59.4057C68.5181 59.0708 68.4102 58.7475 68.2426 58.4541C67.0159 56.3426 65.2888 54.561 63.2118 53.2643C61.1348 51.9677 58.7707 51.1953 56.325 51.0142C53.3158 50.8028 50.4291 49.7443 48.0024 47.9623L43.6974 44.7584C43.5726 44.6667 43.4236 44.6133 43.2686 44.6047C43.1137 44.5962 42.9597 44.6329 42.8255 44.7103C42.6912 44.7877 42.5827 44.9025 42.5133 45.0404C42.4438 45.1784 42.4165 45.3335 42.4346 45.4868L43.0682 50.8846C43.4067 53.8262 42.9036 56.803 41.6167 59.4729C40.5625 61.6653 40.0611 64.0799 40.1558 66.5082C40.2506 68.9365 40.9386 71.3053 42.1605 73.4099Z" fill="white"/>
<path d="M23.1245 13.8759C25.8071 13.3593 27.5631 10.7659 27.0465 8.08325C26.5299 5.40063 23.9364 3.64472 21.2538 4.16131C18.5712 4.6779 16.8153 7.27137 17.3319 9.95398C17.8484 12.6366 20.4419 14.3925 23.1245 13.8759Z" fill="white"/>
<path d="M35.3291 1.30125C35.1564 0.997549 34.9232 0.732133 34.6438 0.521246C34.3644 0.31036 34.0447 0.158437 33.7043 0.0747807C33.3639 -0.00887584 33.0099 -0.0225095 32.664 0.0347185C32.3181 0.0919464 31.9876 0.218833 31.6926 0.407605C31.1369 0.775314 30.7432 1.34044 30.5921 1.98743C30.4411 2.63442 30.5441 3.3144 30.8801 3.88833C32.1898 6.14761 32.5441 8.83218 31.8651 11.3515C31.1861 13.8708 29.5293 16.0184 27.2593 17.322C24.9892 18.6255 22.2919 18.9782 19.7606 18.3024C17.2293 17.6266 15.0714 15.9777 13.7616 13.7184C13.4288 13.1399 12.8855 12.7107 12.2438 12.5195C11.6022 12.3282 10.9113 12.3895 10.3137 12.6907C10.0033 12.8509 9.7288 13.0723 9.50694 13.3413C9.28507 13.6104 9.12045 13.9215 9.02305 14.2558C8.92565 14.59 8.8975 14.9405 8.94033 15.286C8.98315 15.6314 9.09604 15.9646 9.27216 16.2653C10.4988 18.3796 12.2268 20.163 14.3053 21.4598C16.3838 22.7566 18.7496 23.5273 21.1962 23.7048C24.2027 23.9154 27.0868 24.974 29.5108 26.7566L33.8207 29.9514C33.9449 30.0438 34.0936 30.0978 34.2485 30.1066C34.4033 30.1155 34.5573 30.0788 34.6913 30.0012C34.8253 29.9235 34.9334 29.8083 35.0021 29.67C35.0708 29.5316 35.0971 29.3762 35.0777 29.223L34.4447 23.8254C34.1057 20.8836 34.61 17.9063 35.8993 15.2376C36.9473 13.0428 37.443 10.6273 37.3437 8.19931C37.2444 5.77134 36.5529 3.40391 35.3291 1.30125Z" fill="white"/>
</svg>
