<svg width="422" height="206" viewBox="0 0 422 206" fill="none" xmlns="http://www.w3.org/2000/svg">
<path d="M150.997 97.083C153.415 93.3575 156.931 88.9745 165.283 88.9745C175.833 88.9745 185.065 97.083 185.065 113.519C185.065 126.449 179.13 138.721 165.064 138.721C156.272 138.721 153.195 133.9 151.876 131.489H151.656V156.472H139.348V90.2894H151.217V97.083H150.997ZM224.627 122.066H225.067L236.276 90.0702H255.398V137.187H242.21V108.26C242.21 105.63 242.65 102.781 242.65 102.781H242.21L229.902 137.187H219.792L207.483 102.781H207.044C207.044 102.781 207.483 105.849 207.483 108.26V137.187H194.296V90.0702H213.198L224.627 122.066ZM128.798 128.202V102.562C128.798 90.9468 116.05 88.9745 109.236 88.9745C99.5656 88.9745 89.675 90.7277 87.4771 103.657H100.005C100.665 101.247 102.423 98.8362 107.698 98.8362C110.995 98.8362 116.27 99.0553 116.27 104.315C116.27 106.506 114.292 108.04 108.797 108.479C96.2688 109.574 85.7188 113.957 85.7188 124.915C85.7188 134.557 93.1917 138.721 100.665 138.721C109.456 138.721 113.632 134.777 116.709 131.928C116.929 134.557 117.149 135.215 117.808 137.626H131.655V135.653C130.117 134.996 128.798 133.681 128.798 128.202ZM116.27 120.532C116.27 126.23 110.335 129.736 104.621 129.736C101.983 129.736 98.4667 128.421 98.4667 124.038C98.4667 118.998 102.423 117.683 107.258 117.026C112.533 116.149 114.731 115.491 116.05 114.396V120.532H116.27ZM306.829 128.202V102.562C306.829 90.9468 294.081 88.9745 287.268 88.9745C277.597 88.9745 267.706 90.7277 265.508 103.657H278.036C278.696 101.247 280.454 98.8362 285.729 98.8362C289.026 98.8362 294.301 99.0553 294.301 104.315C294.301 106.506 292.323 108.04 286.828 108.479C274.3 109.574 263.75 113.957 263.75 124.915C263.75 134.557 271.223 138.721 278.696 138.721C287.488 138.721 291.664 134.777 294.741 131.928C294.96 134.557 295.18 135.215 295.84 137.626H309.686V135.653C308.148 134.996 306.829 133.681 306.829 128.202ZM294.301 120.532C294.301 126.23 288.367 129.736 282.872 129.736C280.234 129.736 276.718 128.421 276.718 124.038C276.718 118.998 280.674 117.683 285.509 117.026C290.784 116.149 292.982 115.491 294.301 114.396V120.532ZM47.0354 75.1681C59.3438 75.1681 80.4437 81.7426 80.4437 102.781C80.4437 123.819 59.5635 129.955 47.0354 129.955V137.406H33.1885V129.955C21.1 129.955 0 123.819 0 102.781C0 81.7426 21.1 75.1681 33.4083 75.1681V68.1553H47.2552V75.1681H47.0354ZM33.4083 118.34V86.783C25.9354 86.783 14.5063 89.6319 14.5063 102.781C14.5063 115.711 25.9354 118.34 33.4083 118.34ZM47.0354 86.783V118.34C54.2885 118.34 65.9375 115.711 65.9375 102.781C65.9375 89.6319 54.5083 86.783 47.0354 86.783ZM329.248 32.8723C373.866 32.8723 410.131 69.0319 410.131 113.519C410.131 131.489 404.197 147.926 394.306 161.294L342.875 113.519L369.909 77.3596H354.744L329.248 111.766V32.8723ZM329.248 21.2574V0H316.94V22.134C284.191 26.517 256.717 48.2128 244.189 77.3596H257.156C268.805 54.5681 290.784 37.9128 316.94 33.9681V137.626H329.248V116.368L386.614 170.498C371.888 185.181 351.667 194.166 329.468 194.166C297.818 194.166 270.564 175.977 257.156 149.679H243.969C258.035 182.77 291.004 205.781 329.248 205.781C354.964 205.781 378.261 195.262 394.966 178.387L403.977 186.934H421.78L402.878 169.183C414.747 153.623 421.78 134.338 421.78 113.3C422 62.6766 380.459 21.2574 329.248 21.2574ZM150.997 114.177C150.997 119.874 153.195 128.421 161.327 128.421C169.24 128.421 172.317 121.847 172.317 114.834C172.317 107.383 170.119 99.7128 161.767 99.7128C153.634 99.7128 150.997 106.726 150.997 114.177Z" fill="#0054A6"/>
</svg>
