<svg width="18" height="18" viewBox="0 0 18 18" fill="none" xmlns="http://www.w3.org/2000/svg">
<path d="M16 2.4541H2C0.895431 2.4541 0 3.34953 0 4.4541V13.545C0 14.6496 0.89543 15.545 2 15.545H16C17.1046 15.545 18 14.6496 18 13.545V4.4541C18 3.34953 17.1046 2.4541 16 2.4541Z" fill="#3F3F4E"/>
<circle cx="6.54599" cy="9.00009" r="4.09091" fill="#EB001A"/>
<circle cx="11.4542" cy="9.00009" r="4.09091" fill="#F79E1C"/>
<path d="M8.99964 12.2726C9.99326 11.5262 10.636 10.338 10.636 8.99959C10.636 7.66115 9.99326 6.47293 8.99964 5.72656C8.00603 6.47293 7.36328 7.66115 7.36328 8.99959C7.36328 10.338 8.00603 11.5262 8.99964 12.2726Z" fill="#FF5F00"/>
</svg>
