<svg width="74" height="91" viewBox="0 0 74 91" fill="none" xmlns="http://www.w3.org/2000/svg">
<path d="M13.1126 25.2734C13.1155 25.2642 13.1286 25.2642 13.1316 25.2734L15.8414 33.6134C15.8427 33.6175 15.8466 33.6203 15.8509 33.6203L24.6201 33.6203C24.6297 33.6203 24.6338 33.6327 24.6259 33.6384L17.5315 38.7928C17.528 38.7953 17.5266 38.7998 17.5279 38.8039L20.2377 47.1439C20.2407 47.1531 20.2302 47.1608 20.2223 47.1551L13.1279 42.0007C13.1244 41.9981 13.1197 41.9981 13.1162 42.0007L6.02179 47.1551C6.01396 47.1608 6.00341 47.1531 6.0064 47.1439L8.71622 38.8039C8.71756 38.7998 8.71609 38.7953 8.71259 38.7928L1.61819 33.6384C1.61036 33.6327 1.61439 33.6203 1.62407 33.6203L10.3932 33.6203C10.3976 33.6203 10.4014 33.6175 10.4027 33.6134L13.1126 25.2734Z" stroke="#02628C" stroke-width="1.5"/>
<path d="M36.1448 1.02927C36.1478 1.02006 36.1608 1.02006 36.1638 1.02927L38.8736 9.36923C38.875 9.37335 38.8788 9.37614 38.8831 9.37614L47.6523 9.37614C47.662 9.37614 47.666 9.38854 47.6582 9.39423L40.5638 14.5486C40.5603 14.5512 40.5588 14.5557 40.5601 14.5598L43.27 22.8998C43.2729 22.909 43.2624 22.9166 43.2546 22.9109L36.1602 17.7566C36.1567 17.754 36.1519 17.754 36.1484 17.7566L29.054 22.9109C29.0462 22.9166 29.0356 22.909 29.0386 22.8998L31.7484 14.5598C31.7498 14.5557 31.7483 14.5512 31.7448 14.5486L24.6504 9.39423C24.6426 9.38854 24.6466 9.37614 24.6563 9.37614L33.4255 9.37614C33.4298 9.37614 33.4336 9.37335 33.435 9.36923L36.1448 1.02927Z" stroke="#02628C" stroke-width="1.5"/>
<path d="M61.6008 25.2734C61.6038 25.2642 61.6169 25.2642 61.6199 25.2734L64.3297 33.6134C64.331 33.6175 64.3349 33.6203 64.3392 33.6203L73.1083 33.6203C73.118 33.6203 73.1221 33.6327 73.1142 33.6384L66.0198 38.7928C66.0163 38.7953 66.0149 38.7998 66.0162 38.8039L68.726 47.1439C68.729 47.1531 68.7185 47.1608 68.7106 47.1551L61.6162 42.0007C61.6127 41.9981 61.608 41.9981 61.6045 42.0007L54.5101 47.1551C54.5022 47.1608 54.4917 47.1531 54.4947 47.1439L57.2045 38.8039C57.2058 38.7998 57.2044 38.7953 57.2009 38.7928L50.1065 33.6384C50.0986 33.6327 50.1027 33.6203 50.1124 33.6203L58.8815 33.6203C58.8858 33.6203 58.8897 33.6175 58.891 33.6134L61.6008 25.2734Z" stroke="#02628C" stroke-width="1.5"/>
<path d="M47.0643 55.9099C47.0643 61.9352 42.1798 66.8197 36.1545 66.8197C30.1291 66.8197 25.2446 61.9352 25.2446 55.9099C25.2446 49.8845 30.1291 45 36.1545 45C42.1798 45 47.0643 49.8845 47.0643 55.9099ZM27.4278 55.9099C27.4278 60.7295 31.3349 64.6366 36.1545 64.6366C40.9741 64.6366 44.8812 60.7295 44.8812 55.9099C44.8812 51.0902 40.9741 47.1831 36.1545 47.1831C31.3349 47.1831 27.4278 51.0902 27.4278 55.9099Z" fill="#02628C"/>
<mask id="path-5-inside-1_1009_2001" fill="white">
<path d="M17 77.9971C17 73.5788 20.5817 69.9971 25 69.9971H47C51.4183 69.9971 55 73.5788 55 77.9971V89.9971C55 90.5494 54.5523 90.9971 54 90.9971H18C17.4477 90.9971 17 90.5494 17 89.9971V77.9971Z"/>
</mask>
<path d="M17 77.9971C17 73.5788 20.5817 69.9971 25 69.9971H47C51.4183 69.9971 55 73.5788 55 77.9971V89.9971C55 90.5494 54.5523 90.9971 54 90.9971H18C17.4477 90.9971 17 90.5494 17 89.9971V77.9971Z" stroke="#02628C" stroke-width="4" mask="url(#path-5-inside-1_1009_2001)"/>
<rect x="27" y="80.9971" width="2.42441" height="8.48545" rx="1" fill="#02628C"/>
<rect x="43" y="81.3662" width="2.42441" height="8.48545" rx="1" fill="#02628C"/>
</svg>
