<svg width="193" height="191" viewBox="0 0 193 191" fill="none" xmlns="http://www.w3.org/2000/svg">
<path d="M13.4613 108.394C15.9489 108.394 18.3806 107.657 20.449 106.275C22.5174 104.893 24.1294 102.928 25.0814 100.63C26.0333 98.3317 26.2824 95.8028 25.7971 93.363C25.3118 90.9232 24.1139 88.6821 22.3549 86.9231C20.5959 85.1641 18.3549 83.9662 15.9151 83.4809C13.4753 82.9956 10.9463 83.2447 8.64806 84.1967C6.34982 85.1486 4.38556 86.7607 3.00352 88.8291C1.62149 90.8974 0.883791 93.3292 0.883791 95.8168C0.882849 97.4687 1.20754 99.1047 1.83929 100.631C2.47103 102.157 3.39743 103.544 4.56554 104.712C5.73366 105.881 7.12061 106.807 8.64701 107.439C10.1734 108.071 11.8094 108.395 13.4613 108.394Z" fill="white"/>
<path d="M13.1746 57.5332C12.284 57.533 11.4027 57.714 10.5843 58.0652C9.76586 58.4164 9.02748 58.9304 8.41405 59.5761C7.80061 60.2217 7.32499 60.9854 7.01606 61.8206C6.70713 62.6559 6.57135 63.5453 6.61704 64.4347C6.72659 66.1293 7.47883 67.7181 8.72015 68.8769C9.96148 70.0356 11.5982 70.6769 13.2963 70.6697C19.8934 70.7811 26.1826 73.4799 30.8086 78.1846C35.4345 82.8893 38.0268 89.2231 38.0268 95.8211C38.0268 102.419 35.4345 108.753 30.8086 113.458C26.1826 118.162 19.8934 120.861 13.2963 120.973C11.5982 120.965 9.96148 121.607 8.72015 122.765C7.47883 123.924 6.72659 125.513 6.61704 127.208C6.57239 128.097 6.70885 128.986 7.01816 129.82C7.32747 130.655 7.80318 131.419 8.41641 132.064C9.02964 132.709 9.76756 133.223 10.5855 133.575C11.4034 133.927 12.2843 134.108 13.1746 134.109C19.4196 134.108 25.5695 132.579 31.0882 129.656C36.6069 126.733 41.3269 122.504 44.8368 117.339C49.1284 110.984 55.1385 105.981 62.1659 102.913L74.6573 97.5232C75.0179 97.366 75.3249 97.107 75.5404 96.7779C75.7559 96.4488 75.8707 96.064 75.8707 95.6706C75.8707 95.2772 75.7559 94.8924 75.5404 94.5634C75.3249 94.2343 75.0179 93.9753 74.6573 93.818L61.8935 88.314C54.9399 85.2956 48.9784 80.3774 44.6936 74.124C41.1763 69.0127 36.4701 64.8323 30.9797 61.9423C25.4893 59.0523 19.3791 57.5392 13.1746 57.5332Z" fill="white"/>
<path d="M180.093 108.394C182.581 108.394 185.012 107.657 187.081 106.275C189.149 104.893 190.761 102.928 191.713 100.63C192.665 98.3317 192.914 95.8028 192.429 93.363C191.944 90.9232 190.746 88.6821 188.987 86.9231C187.228 85.1641 184.987 83.9662 182.547 83.4809C180.107 82.9956 177.578 83.2447 175.28 84.1967C172.982 85.1486 171.017 86.7607 169.635 88.8291C168.253 90.8974 167.516 93.3292 167.516 95.8168C167.516 99.1525 168.841 102.352 171.199 104.71C173.558 107.069 176.757 108.394 180.093 108.394Z" fill="white"/>
<path d="M180.373 134.115C181.264 134.116 182.146 133.936 182.965 133.585C183.784 133.234 184.524 132.72 185.138 132.075C185.752 131.429 186.228 130.665 186.538 129.829C186.847 128.993 186.983 128.103 186.937 127.213C186.828 125.518 186.075 123.928 184.832 122.769C183.589 121.61 181.95 120.969 180.251 120.978C173.654 120.867 167.365 118.168 162.739 113.464C158.113 108.759 155.521 102.425 155.521 95.827C155.521 89.229 158.113 82.8951 162.739 78.1905C167.365 73.4858 173.654 70.7869 180.251 70.6756C181.95 70.6846 183.589 70.0442 184.832 68.8852C186.075 67.7263 186.828 66.1364 186.937 64.4405C186.982 63.5508 186.845 62.6612 186.536 61.8259C186.226 60.9906 185.75 60.227 185.136 59.5815C184.522 58.936 183.783 58.4221 182.964 58.071C182.145 57.7199 181.264 57.5389 180.373 57.5391C174.129 57.5417 167.98 59.0711 162.463 61.994C156.946 64.917 152.227 69.1448 148.718 74.3091C144.425 80.6659 138.412 85.6697 131.381 88.7356L118.897 94.1464C118.534 94.3012 118.224 94.5593 118.007 94.8887C117.789 95.2181 117.673 95.6042 117.673 95.999C117.673 96.3938 117.789 96.7799 118.007 97.1092C118.224 97.4386 118.534 97.6968 118.897 97.8516L131.654 103.356C138.607 106.375 144.568 111.293 148.854 117.546C152.374 122.652 157.082 126.828 162.572 129.714C168.062 132.6 174.17 134.11 180.373 134.115Z" fill="white"/>
<path d="M55.1215 180.551C57.6088 180.551 60.0402 179.814 62.1084 178.432C64.1766 177.051 65.7886 175.087 66.7408 172.789C67.693 170.491 67.9426 167.962 67.4578 165.523C66.9731 163.083 65.7759 160.842 64.0176 159.083C62.2593 157.324 60.0189 156.125 57.5796 155.639C55.1403 155.153 52.6116 155.401 50.3132 156.352C48.0148 157.303 46.05 158.914 44.6671 160.981C43.2842 163.048 42.5454 165.48 42.544 167.967C42.5421 169.619 42.866 171.256 43.4974 172.783C44.1287 174.311 45.055 175.698 46.2232 176.867C47.3914 178.036 48.7786 178.963 50.3055 179.595C51.8324 180.228 53.4689 180.552 55.1215 180.551Z" fill="white"/>
<path d="M21.81 149.065C21.3663 149.833 21.083 150.683 20.9769 151.564C20.8707 152.445 20.9441 153.339 21.1925 154.19C21.441 155.042 21.8594 155.835 22.4225 156.521C22.9855 157.206 23.6817 157.771 24.4689 158.181C25.9898 158.95 27.7481 159.107 29.3814 158.619C31.0148 158.131 32.3987 157.036 33.248 155.558C36.5809 149.779 42.0727 145.562 48.5152 143.833C54.9577 142.104 61.8232 143.005 67.6014 146.338C73.3796 149.671 77.5972 155.162 79.3262 161.605C81.0553 168.047 80.1542 174.913 76.8213 180.691C75.9656 182.159 75.702 183.897 76.0842 185.553C76.4664 187.208 77.4656 188.655 78.8781 189.599C79.6262 190.084 80.465 190.411 81.3435 190.561C82.2221 190.711 83.122 190.68 83.9883 190.471C84.8547 190.262 85.6693 189.878 86.3827 189.344C87.096 188.81 87.6931 188.136 88.1375 187.363C91.2635 181.951 93.0173 175.856 93.2459 169.61C93.4746 163.363 92.1709 157.156 89.449 151.53C86.0863 144.639 84.7563 136.933 85.6148 129.313L87.1916 115.797C87.2373 115.406 87.1676 115.011 86.991 114.659C86.8145 114.307 86.5387 114.015 86.198 113.819C85.8573 113.622 85.4664 113.529 85.0737 113.552C84.6809 113.575 84.3035 113.713 83.988 113.948L72.8367 122.247C66.7457 126.748 59.5113 129.445 51.9602 130.03C45.7678 130.52 39.7874 132.508 34.5348 135.825C29.2823 139.141 24.9151 143.685 21.81 149.065Z" fill="white"/>
<path d="M138.434 36.24C140.922 36.24 143.353 35.5023 145.422 34.1203C147.49 32.7382 149.102 30.7739 150.054 28.4757C151.006 26.1774 151.255 23.6485 150.77 21.2087C150.284 18.7689 149.087 16.5278 147.328 14.7688C145.569 13.0098 143.328 11.8119 140.888 11.3266C138.448 10.8413 135.919 11.0904 133.621 12.0424C131.322 12.9943 129.358 14.6064 127.976 16.6748C126.594 18.7431 125.856 21.1749 125.856 23.6625C125.856 25.3144 126.18 26.9504 126.812 28.4768C127.444 30.0032 128.37 31.3901 129.538 32.5582C130.706 33.7263 132.093 34.6527 133.62 35.2845C135.146 35.9162 136.782 36.2409 138.434 36.24Z" fill="white"/>
<path d="M171.737 42.5469C172.18 41.779 172.464 40.9292 172.57 40.0487C172.676 39.1683 172.602 38.2755 172.354 37.4243C172.105 36.573 171.687 35.781 171.124 35.0959C170.561 34.4107 169.865 33.8468 169.078 33.438C167.559 32.6668 165.801 32.509 164.168 32.9972C162.535 33.4854 161.153 34.5822 160.306 36.061C156.912 41.7161 151.432 45.8117 145.047 47.4658C138.662 49.1199 131.883 48.2002 126.17 44.9047C120.456 41.6092 116.266 36.2016 114.501 29.8465C112.736 23.4915 113.537 16.6974 116.733 10.9275C117.588 9.4599 117.852 7.72112 117.47 6.0658C117.088 4.41048 116.088 2.9633 114.676 2.01937C113.928 1.53335 113.089 1.20478 112.21 1.05377C111.331 0.902758 110.431 0.932442 109.563 1.14101C108.696 1.34959 107.881 1.73269 107.166 2.26691C106.452 2.80113 105.854 3.47526 105.409 4.2482C102.285 9.6614 100.533 15.7569 100.306 22.0028C100.078 28.2488 101.383 34.4555 104.105 40.0815C107.465 46.9734 108.795 54.6789 107.939 62.2982L106.355 75.8074C106.31 76.1989 106.38 76.5951 106.557 76.9472C106.734 77.2993 107.01 77.592 107.352 77.7893C107.693 77.9865 108.084 78.0797 108.478 78.0574C108.871 78.035 109.249 77.8981 109.566 77.6635L120.717 69.3645C126.808 64.8622 134.043 62.165 141.594 61.5815C147.785 61.0918 153.765 59.103 159.016 55.7868C164.268 52.4707 168.633 47.9267 171.737 42.5469Z" fill="white"/>
<path d="M138.434 180.551C140.921 180.551 143.353 179.814 145.421 178.432C147.489 177.051 149.101 175.087 150.053 172.789C151.005 170.491 151.255 167.962 150.77 165.523C150.286 163.083 149.088 160.842 147.33 159.083C145.572 157.324 143.331 156.125 140.892 155.639C138.453 155.153 135.924 155.401 133.626 156.352C131.327 157.303 129.362 158.914 127.98 160.981C126.597 163.048 125.858 165.48 125.856 167.967C125.855 169.619 126.179 171.256 126.81 172.783C127.441 174.311 128.367 175.698 129.536 176.867C130.704 178.036 132.091 178.963 133.618 179.595C135.145 180.228 136.781 180.552 138.434 180.551Z" fill="white"/>
<path d="M105.41 187.363C105.855 188.135 106.454 188.808 107.168 189.342C107.882 189.876 108.697 190.259 109.563 190.468C110.43 190.677 111.33 190.708 112.209 190.559C113.088 190.409 113.927 190.083 114.676 189.599C116.087 188.654 117.085 187.207 117.467 185.552C117.85 183.897 117.587 182.159 116.733 180.691C115.083 177.83 114.012 174.672 113.582 171.397C113.152 168.122 113.372 164.795 114.228 161.605C115.957 155.162 120.175 149.67 125.953 146.338C131.731 143.005 138.597 142.104 145.039 143.833C151.482 145.562 156.973 149.779 160.306 155.557C161.154 157.035 162.537 158.131 164.169 158.619C165.801 159.107 167.558 158.95 169.078 158.18C169.865 157.77 170.56 157.205 171.123 156.519C171.685 155.834 172.103 155.041 172.351 154.189C172.6 153.338 172.673 152.445 172.568 151.564C172.462 150.683 172.18 149.833 171.737 149.064C168.614 143.658 164.216 139.097 158.925 135.78C153.635 132.464 147.614 130.492 141.386 130.037C133.735 129.5 126.394 126.796 120.223 122.24L109.315 114.113C108.999 113.877 108.621 113.739 108.228 113.716C107.834 113.693 107.443 113.787 107.101 113.984C106.76 114.182 106.485 114.475 106.309 114.828C106.133 115.181 106.064 115.577 106.112 115.969L107.724 129.772C108.579 137.298 107.298 144.913 104.026 151.745C101.35 157.348 100.077 163.519 100.318 169.725C100.559 175.93 102.306 181.984 105.41 187.363Z" fill="white"/>
<path d="M55.1215 36.24C57.6091 36.24 60.0408 35.5023 62.1092 34.1203C64.1775 32.7382 65.7895 30.7739 66.7415 28.4757C67.6935 26.1774 67.9426 23.6485 67.4573 21.2087C66.972 18.7689 65.7741 16.5278 64.0151 14.7688C62.2561 13.0098 60.015 11.8119 57.5752 11.3266C55.1354 10.8413 52.6065 11.0904 50.3082 12.0424C48.01 12.9943 46.0457 14.6064 44.6637 16.6748C43.2816 18.7431 42.5439 21.1749 42.5439 23.6625C42.5439 25.3142 42.8693 26.9497 43.5014 28.4757C44.1334 30.0016 45.0599 31.3882 46.2278 32.5561C47.3957 33.724 48.7822 34.6505 50.3082 35.2826C51.8342 35.9146 53.4698 36.24 55.1215 36.24Z" fill="white"/>
<path d="M88.1376 4.27017C87.6918 3.49901 87.0939 2.82653 86.3802 2.29356C85.6665 1.76059 84.852 1.37827 83.986 1.16981C83.12 0.961357 82.2206 0.931108 81.3425 1.08093C80.4645 1.23075 79.6261 1.55752 78.8782 2.04135C77.4657 2.98527 76.4665 4.43245 76.0843 6.08778C75.702 7.7431 75.9657 9.48187 76.8214 10.9495C80.0169 16.7194 80.8184 23.5135 79.0534 29.8685C77.2883 36.2236 73.0978 41.6312 67.3845 44.9267C61.6712 48.2222 54.892 49.1419 48.5072 47.4878C42.1223 45.8337 36.6426 41.7381 33.2481 36.083C32.4 34.6037 31.0161 33.5067 29.3823 33.0185C27.7485 32.5304 25.9896 32.6884 24.4689 33.46C23.6856 33.8696 22.9929 34.4331 22.4324 35.1166C21.8719 35.8002 21.4551 36.5898 21.2069 37.4382C20.9586 38.2866 20.8841 39.1764 20.9877 40.0543C21.0914 40.9321 21.3711 41.7801 21.8101 42.5473C24.9331 47.9548 29.3314 52.5162 34.6216 55.8339C39.9118 59.1517 45.9332 61.1251 52.161 61.582C59.8152 62.1172 67.1585 64.8219 73.3312 69.3793L84.239 77.4992C84.5549 77.7349 84.933 77.8727 85.3266 77.8956C85.7201 77.9184 86.1117 77.8252 86.4528 77.6276C86.7939 77.4299 87.0695 77.1366 87.2454 76.7838C87.4213 76.431 87.4898 76.0344 87.4424 75.643L85.8228 61.8973C84.9668 54.3703 86.251 46.7545 89.5279 39.9243C92.2084 34.3151 93.4827 28.1375 93.2404 21.9254C92.9982 15.7133 91.2468 9.65364 88.1376 4.27017Z" fill="white"/>
</svg>
