<svg width="144" height="144" viewBox="0 0 144 144" fill="none" xmlns="http://www.w3.org/2000/svg">
<path d="M83.0643 108.91C83.0643 114.935 78.1798 119.82 72.1545 119.82C66.1291 119.82 61.2446 114.935 61.2446 108.91C61.2446 102.885 66.1291 98 72.1545 98C78.1798 98 83.0643 102.885 83.0643 108.91ZM63.4278 108.91C63.4278 113.729 67.3349 117.637 72.1545 117.637C76.9741 117.637 80.8812 113.729 80.8812 108.91C80.8812 104.09 76.9741 100.183 72.1545 100.183C67.3349 100.183 63.4278 104.09 63.4278 108.91Z" fill="#02628C"/>
<mask id="path-2-inside-1_1001_938" fill="white">
<path d="M53 130.997C53 126.579 56.5817 122.997 61 122.997H83C87.4183 122.997 91 126.579 91 130.997V142.997C91 143.549 90.5523 143.997 90 143.997H54C53.4477 143.997 53 143.549 53 142.997V130.997Z"/>
</mask>
<path d="M53 130.997C53 126.579 56.5817 122.997 61 122.997H83C87.4183 122.997 91 126.579 91 130.997V142.997C91 143.549 90.5523 143.997 90 143.997H54C53.4477 143.997 53 143.549 53 142.997V130.997Z" stroke="#02628C" stroke-width="4" mask="url(#path-2-inside-1_1001_938)"/>
<rect x="63" y="133.997" width="2.42441" height="8.48545" rx="1" fill="#02628C"/>
<rect x="79" y="134.366" width="2.42441" height="8.48545" rx="1" fill="#02628C"/>
<path d="M136.064 86.9099C136.064 92.9352 131.18 97.8197 125.154 97.8197C119.129 97.8197 114.245 92.9352 114.245 86.9099C114.245 80.8845 119.129 76 125.154 76C131.18 76 136.064 80.8845 136.064 86.9099ZM116.428 86.9099C116.428 91.7295 120.335 95.6366 125.154 95.6366C129.974 95.6366 133.881 91.7295 133.881 86.9099C133.881 82.0902 129.974 78.1831 125.154 78.1831C120.335 78.1831 116.428 82.0902 116.428 86.9099Z" fill="#02628C"/>
<mask id="path-6-inside-2_1001_938" fill="white">
<path d="M106 108.997C106 104.579 109.582 100.997 114 100.997H136C140.418 100.997 144 104.579 144 108.997V120.997C144 121.549 143.552 121.997 143 121.997H107C106.448 121.997 106 121.549 106 120.997V108.997Z"/>
</mask>
<path d="M106 108.997C106 104.579 109.582 100.997 114 100.997H136C140.418 100.997 144 104.579 144 108.997V120.997C144 121.549 143.552 121.997 143 121.997H107C106.448 121.997 106 121.549 106 120.997V108.997Z" stroke="#02628C" stroke-width="4" mask="url(#path-6-inside-2_1001_938)"/>
<rect x="116" y="111.997" width="2.42441" height="8.48545" rx="1" fill="#02628C"/>
<rect x="132" y="112.366" width="2.42441" height="8.48545" rx="1" fill="#02628C"/>
<path d="M30.0643 86.9099C30.0643 92.9352 25.1798 97.8197 19.1545 97.8197C13.1291 97.8197 8.24463 92.9352 8.24463 86.9099C8.24463 80.8845 13.1291 76 19.1545 76C25.1798 76 30.0643 80.8845 30.0643 86.9099ZM10.4278 86.9099C10.4278 91.7295 14.3349 95.6366 19.1545 95.6366C23.9741 95.6366 27.8812 91.7295 27.8812 86.9099C27.8812 82.0902 23.9741 78.1831 19.1545 78.1831C14.3349 78.1831 10.4278 82.0902 10.4278 86.9099Z" fill="#02628C"/>
<mask id="path-10-inside-3_1001_938" fill="white">
<path d="M0 108.997C0 104.579 3.58172 100.997 8 100.997H30C34.4183 100.997 38 104.579 38 108.997V120.997C38 121.549 37.5523 121.997 37 121.997H1C0.447716 121.997 0 121.549 0 120.997V108.997Z"/>
</mask>
<path d="M0 108.997C0 104.579 3.58172 100.997 8 100.997H30C34.4183 100.997 38 104.579 38 108.997V120.997C38 121.549 37.5523 121.997 37 121.997H1C0.447716 121.997 0 121.549 0 120.997V108.997Z" stroke="#02628C" stroke-width="4" mask="url(#path-10-inside-3_1001_938)"/>
<rect x="10" y="111.997" width="2.42441" height="8.48545" rx="1" fill="#02628C"/>
<rect x="26" y="112.366" width="2.42441" height="8.48545" rx="1" fill="#02628C"/>
<path d="M76.8731 69.8827C76.8731 68.3495 76.8937 66.8175 76.861 65.2855C76.8501 64.7724 76.9989 64.5606 77.5169 64.4299C83.3109 62.9693 87.9044 59.7638 91.2443 54.8084C93.3039 51.7528 94.6217 48.3875 94.9424 44.7076C95.8186 34.6637 91.8663 27.0013 83.2346 21.8729C78.5685 19.1017 73.4194 18.3236 68.0732 19.3062C60.4689 20.7051 54.9338 24.9586 51.3773 31.7788C49.9083 34.5947 49.0975 37.6345 49.0237 40.8195C48.7998 50.3915 52.8936 57.5614 61.1586 62.3534C62.8734 63.3481 64.7418 63.9979 66.667 64.459C67.1136 64.5655 67.2382 64.7482 67.2358 65.1899C67.2189 68.3555 67.2176 71.5224 67.2358 74.688C67.2382 75.1914 67.0966 75.2919 66.6102 75.2035C62.5321 74.4666 58.6719 73.1403 55.1057 71.0093C54.7717 70.8096 54.5648 70.9185 54.3022 71.117C52.0671 72.8063 49.8187 74.4787 47.5897 76.1764C47.2521 76.433 47.0657 76.4463 46.7499 76.1281C43.8263 73.1766 40.8893 70.2397 37.9367 67.3172C37.6136 66.9978 37.6438 66.8223 37.8991 66.4871C39.5848 64.2738 41.2354 62.0363 42.9187 59.8218C43.191 59.4636 43.2333 59.195 42.9864 58.8053C42.6319 58.2463 42.31 57.6582 42.045 57.0507C41.8441 56.5921 41.6239 56.5921 41.2136 56.776C35.8347 59.195 30.4449 61.5886 25.072 64.0209C24.5589 64.2533 24.3859 64.1577 24.214 63.6748C24.0253 63.146 23.7832 62.6329 23.5255 62.1319C23.3331 61.758 23.3512 61.568 23.7869 61.3744C28.7386 59.1829 33.6795 56.9696 38.624 54.7612C39.1565 54.5228 39.6828 54.2687 40.2226 54.0472C40.5202 53.925 40.605 53.7882 40.4924 53.4579C40.1536 52.4692 39.8462 51.4685 39.5509 50.4653C39.4771 50.2136 39.3658 50.1035 39.1056 50.0672C36.2764 49.6702 33.4496 49.2503 30.6179 48.874C30.1678 48.8147 30.0613 48.6659 30.0625 48.2387C30.077 44.0844 30.0782 39.9301 30.0625 35.7758C30.0613 35.3668 30.1738 35.2458 30.5853 35.1901C33.377 34.8137 36.1626 34.3975 38.9519 34.0042C39.2859 33.957 39.4687 33.8493 39.5655 33.4802C40.3472 30.5263 41.498 27.7201 43.0518 25.0869C43.226 24.7916 43.1861 24.5871 42.9913 24.3294C41.2911 22.0774 39.609 19.812 37.9004 17.5673C37.645 17.2321 37.6232 17.0518 37.9427 16.7347C40.8954 13.8123 43.8323 10.8742 46.7559 7.92273C47.0766 7.59963 47.2642 7.62625 47.5994 7.88038C49.7969 9.55274 52.0163 11.1961 54.2126 12.8684C54.5793 13.148 54.8455 13.1988 55.2715 12.9471C57.8163 11.4441 60.5294 10.3296 63.3876 9.58179C63.8039 9.47288 63.9733 9.29015 64.0314 8.86903C64.3993 6.17775 64.8047 3.49252 65.1641 0.801244C65.2391 0.243384 65.3698 -0.00710739 66.0257 0.000153256C70.0783 0.0376666 74.1322 0.0291944 78.1861 0.00620232C78.6749 0.0037821 78.8492 0.152625 78.9121 0.618517C79.2715 3.29044 79.6636 5.95751 80.0194 8.62943C80.0932 9.18366 80.2674 9.4753 80.8773 9.63503C83.6945 10.3708 86.3664 11.4901 88.8725 12.9749C89.261 13.2048 89.5006 13.154 89.8273 12.9072C92.0285 11.2396 94.2466 9.59631 96.4418 7.92152C96.812 7.63836 97.0226 7.60568 97.3784 7.96508C100.285 10.9044 103.21 13.8268 106.148 16.7359C106.467 17.0518 106.449 17.2321 106.193 17.5685C104.496 19.7975 102.83 22.0495 101.138 24.2834C100.912 24.5823 100.872 24.8074 101.069 25.1438C102.599 27.7443 103.744 30.5094 104.507 33.4282C104.612 33.8323 104.817 33.963 105.203 34.0175C108.013 34.4072 110.819 34.8234 113.63 35.2095C113.947 35.253 114.027 35.3668 114.026 35.662C114.02 39.8974 114.019 44.1316 114.026 48.367C114.026 48.6949 113.922 48.8183 113.589 48.8631C110.759 49.254 107.932 49.6739 105.101 50.0563C104.729 50.1071 104.595 50.2584 104.502 50.5899C104.251 51.4806 103.994 52.3712 103.681 53.2401C103.511 53.7108 103.569 53.9262 104.059 54.1428C108.277 56.0039 112.479 57.8953 116.688 59.7771C117.901 60.3192 119.108 60.8734 120.332 61.3901C120.73 61.5583 120.778 61.7326 120.583 62.1053C120.295 62.6571 120.039 63.2295 119.822 63.814C119.664 64.24 119.466 64.2182 119.107 64.056C113.727 61.6394 108.34 59.241 102.962 56.8183C102.486 56.6042 102.236 56.5775 102.013 57.133C101.775 57.7271 101.436 58.2862 101.095 58.8308C100.866 59.1962 100.897 59.4552 101.156 59.7964C102.852 62.0267 104.517 64.2799 106.212 66.5101C106.449 66.8223 106.486 66.9905 106.182 67.2918C103.232 70.2167 100.294 73.1536 97.3699 76.1038C97.0456 76.4318 96.8435 76.4366 96.4841 76.1631C94.2563 74.4641 92.0055 72.7966 89.7753 71.1C89.4655 70.8641 89.2428 70.8653 88.9161 71.0589C85.3426 73.1778 81.4739 74.4859 77.3995 75.2229C77.0159 75.2919 76.8562 75.212 76.861 74.7836C76.8791 73.15 76.8683 71.5163 76.8683 69.8827H76.8731ZM79.7677 69.199C79.7677 69.8246 79.7979 70.4514 79.7592 71.0746C79.7229 71.6422 79.9093 71.6954 80.4187 71.5478C83.4791 70.6596 86.3446 69.3575 88.9911 67.5847C89.3626 67.3354 89.6058 67.316 89.9834 67.6065C92.0611 69.2014 94.174 70.7527 96.2566 72.344C96.5918 72.6006 96.7745 72.5715 97.0541 72.2896C98.7833 70.5386 100.519 68.7948 102.273 67.0704C102.612 66.7376 102.59 66.5234 102.317 66.1664C100.74 64.0996 99.1887 62.0109 97.6252 59.9344C97.4231 59.6669 97.2683 59.4576 97.5139 59.0897C99.778 55.7026 101.332 52.0142 102.121 48.0124C102.197 47.6276 102.394 47.5005 102.762 47.4497C105.394 47.0915 108.022 46.7103 110.653 46.3485C111.028 46.2977 111.153 46.1379 111.151 45.7592C111.136 43.2785 111.136 40.7977 111.151 38.317C111.153 37.9128 111.028 37.7664 110.613 37.7107C108.021 37.361 105.435 36.9714 102.844 36.618C102.402 36.5575 102.187 36.3796 102.101 35.9367C101.337 31.9906 99.7841 28.3675 97.5708 25.0228C97.3372 24.6694 97.3735 24.4455 97.6168 24.1249C99.202 22.0386 100.757 19.9294 102.347 17.8468C102.618 17.4923 102.589 17.2902 102.284 16.9889C100.546 15.2753 98.8196 13.5509 97.1085 11.8132C96.7975 11.4974 96.5942 11.4466 96.2155 11.7358C94.1195 13.3416 91.9946 14.9099 89.8914 16.5072C89.6071 16.7226 89.4062 16.7432 89.1049 16.5423C85.7166 14.277 82.0269 12.7305 78.0251 11.9391C77.6935 11.8737 77.5387 11.7322 77.489 11.3534C77.1502 8.80127 76.7678 6.25399 76.4145 3.70308C76.3467 3.2142 76.2438 2.93225 75.6206 2.94435C73.2815 2.99033 70.9411 2.99154 68.6032 2.94435C67.9437 2.93104 67.7537 3.15369 67.6739 3.76237C67.3435 6.27577 66.9514 8.7807 66.6211 11.2941C66.5654 11.7176 66.402 11.8749 66.0172 11.9512C62.0577 12.7402 58.4032 14.271 55.0476 16.5097C54.7027 16.7396 54.4873 16.7202 54.1618 16.4721C52.078 14.8833 49.9663 13.3307 47.8862 11.737C47.5074 11.4466 47.3053 11.495 46.9931 11.812C45.2965 13.5364 43.5854 15.2487 41.8586 16.9441C41.5174 17.2793 41.4871 17.5032 41.7872 17.8952C43.3555 19.9439 44.8815 22.0241 46.4486 24.074C46.7245 24.4359 46.7559 24.6851 46.4994 25.0736C44.297 28.4002 42.7614 32.0099 41.999 35.9343C41.9131 36.3748 41.7025 36.5587 41.2572 36.6192C38.6664 36.9714 36.0791 37.3598 33.4871 37.7071C33.0708 37.7628 32.9486 37.9116 32.951 38.3134C32.9655 40.7941 32.9655 43.2748 32.951 45.7555C32.9486 46.1355 33.0757 46.294 33.4496 46.3461C36.061 46.7055 38.6688 47.0915 41.2814 47.4364C41.7098 47.4933 41.9143 47.6361 41.9978 48.0644C42.771 52.0287 44.3236 55.6748 46.5502 59.0365C46.768 59.3644 46.7438 59.5822 46.5139 59.8848C44.9299 61.9722 43.3725 64.0802 41.7836 66.164C41.5113 66.521 41.4895 66.7364 41.8284 67.068C43.5842 68.7912 45.3195 70.5349 47.0488 72.286C47.3271 72.5679 47.5098 72.5982 47.845 72.3428C49.9264 70.7515 52.0393 69.199 54.1182 67.6053C54.4921 67.3185 54.7317 67.333 55.1081 67.5835C57.774 69.3623 60.654 70.6801 63.7398 71.5575C64.196 71.687 64.3521 71.6434 64.3412 71.1351C64.3158 69.8645 64.3194 68.5939 64.3412 67.3233C64.3473 66.9591 64.2299 66.7739 63.8802 66.6723C62.9895 66.4145 62.134 66.0563 61.2917 65.6739C51.3459 61.1614 45.2723 50.7944 46.1509 40.0245C46.4086 36.8564 47.1541 33.8287 48.5118 30.9656C53.2893 20.8854 63.8753 14.8796 75.0628 16.2071C80.7563 16.8824 85.742 19.1235 89.8491 23.1023C96.6729 29.7107 99.219 37.787 97.5151 47.1133C96.5434 52.4341 93.9622 56.9672 90.073 60.7343C87.2486 63.4691 83.9607 65.4513 80.2215 66.6723C79.8766 66.7848 79.7435 66.9578 79.7604 67.3221C79.7882 67.9465 79.7677 68.5721 79.7677 69.1978V69.199Z" fill="#02628C"/>
<path d="M52.6453 42.0476C52.7021 31.1143 61.4197 22.9085 71.5024 22.623C82.0823 22.3241 91.4074 30.7307 91.4401 41.9786C91.4716 52.555 83.0565 61.2508 72.295 61.4045C61.4863 61.5582 52.7336 52.8781 52.644 42.0464L52.6453 42.0476ZM72.0118 58.476C81.1481 58.4772 88.5189 51.1283 88.5346 42.0319C88.5504 33.1461 81.4059 25.6083 72.2405 25.5321C62.9856 25.4546 55.5652 32.8556 55.5689 42.0162C55.5737 51.1016 62.9396 58.476 72.0118 58.4772V58.476Z" fill="#02628C"/>
<path d="M73.4984 75.927C73.4984 79.4133 73.4911 82.9008 73.508 86.3871C73.5105 86.8482 73.4076 87.0394 72.9115 87.0031C72.31 86.9595 71.7026 86.9765 71.0987 86.9983C70.7466 87.0104 70.6074 86.9184 70.6074 86.5312C70.6183 79.4762 70.6195 72.4225 70.6074 65.3676C70.6074 64.944 70.7659 64.8642 71.1362 64.8787C71.7401 64.9029 72.3476 64.9186 72.949 64.8751C73.4306 64.84 73.5093 65.0372 73.5068 65.4644C73.4911 68.9507 73.4984 72.4382 73.4996 75.9246L73.4984 75.927Z" fill="#02628C"/>
<path d="M84.4943 37.8306C84.3575 37.9831 84.2317 38.1368 84.0925 38.2759C81.7376 40.6235 79.3791 42.9687 77.0255 45.3176C74.9417 47.3965 72.8567 49.4719 70.7898 51.5678C70.4655 51.8969 70.2828 51.9308 69.9367 51.5811C66.9005 48.5183 63.8486 45.4688 60.7846 42.4327C60.4748 42.1253 60.4869 41.9619 60.7955 41.686C61.2614 41.271 61.7091 40.8293 62.1206 40.361C62.4171 40.0233 62.5925 40.0923 62.8769 40.3803C65.1894 42.7146 67.5286 45.0223 69.8326 47.3651C70.2452 47.7838 70.4679 47.7765 70.8781 47.3651C74.5859 43.6319 78.3203 39.9265 82.0293 36.1946C82.3899 35.8315 82.5859 35.8206 82.9139 36.2006C83.3205 36.6725 83.79 37.09 84.2305 37.5329C84.3152 37.6176 84.3902 37.712 84.4955 37.8294L84.4943 37.8306Z" fill="#02628C"/>
</svg>
