<svg width="72" height="70" viewBox="0 0 72 70" fill="none" xmlns="http://www.w3.org/2000/svg">
<path d="M3.22308 35.0717C6.42759 40.4802 11.6024 44.3499 17.7953 45.9678C23.9882 47.5853 30.4569 46.7577 36.01 43.6368C41.5632 40.516 45.5363 35.4757 47.1975 29.4444C48.8586 23.413 48.0085 17.1126 44.804 11.7041C41.5995 6.29569 36.4242 2.42597 30.2317 0.808059C24.0393 -0.809372 17.5701 0.018184 12.017 3.13905C6.46384 6.25991 2.49076 11.3001 0.829589 17.3315C-0.831586 23.3629 0.0185641 29.6633 3.22308 35.0717ZM42.3633 13.0754C48.2017 22.9298 44.7195 35.5731 34.6017 41.2596C24.4834 46.9456 11.5022 43.5548 5.66379 33.7004C-0.174655 23.8461 3.30704 11.2028 13.4253 5.51631C23.5431 -0.169745 36.5248 3.22109 42.3633 13.0754Z" fill="#02628C"/>
<path d="M15.773 8.7559C16.0926 9.3755 16.8517 9.65023 17.5072 9.37979C21.4459 7.75282 25.4376 7.64836 29.3892 9.07261C32.6362 10.2426 34.5922 12.018 34.6117 12.0361C37.9403 15.115 39.5991 19.0271 39.5394 23.661C39.5113 25.826 39.0967 27.6619 38.7761 28.768C38.5882 29.4157 38.9302 30.0973 39.5709 30.3501L39.5991 30.3611C40.3476 30.6563 41.1916 30.2523 41.4115 29.4958C41.7784 28.2338 42.2321 26.208 42.275 23.7993C42.3714 18.4252 40.3719 13.6879 36.4933 10.1C36.3941 10.0089 34.1032 7.9293 30.3395 6.57278C27.0964 5.40418 22.142 4.58092 16.4443 6.92478C15.7229 7.22146 15.4095 8.05141 15.7611 8.73301L15.7735 8.75686L15.773 8.7559Z" fill="#02628C"/>
<path d="M71.3849 63.6819C71.9555 64.2385 71.955 65.14 71.3835 65.6957L67.3856 69.5835C66.8141 70.1392 65.8885 70.1387 65.318 69.5821L64.442 68.7274L70.509 62.8271L71.3849 63.6819Z" fill="#02628C"/>
<path d="M38.9549 42.7882C39.8308 42.1424 40.6671 41.4331 41.4585 40.6637C42.3416 39.8047 43.1474 38.8918 43.8721 37.9297L45.6988 39.7112C46.2011 39.559 46.7712 39.6759 47.1696 40.0642L69.7725 62.1105L63.7055 68.0108L41.1026 45.9644C40.7048 45.5761 40.585 45.0204 40.7425 44.5315L38.9553 42.7882H38.9549Z" fill="#02628C"/>
</svg>
