<svg width="63" height="61" viewBox="0 0 63 61" fill="none" xmlns="http://www.w3.org/2000/svg">
<path d="M2.80401 30.5078C5.59151 35.2125 10.0929 38.5786 15.48 39.986C20.867 41.3929 26.4939 40.6731 31.3244 37.9583C36.1549 35.2436 39.6109 30.8592 41.0559 25.6127C42.5009 20.3662 41.7614 14.8857 38.9739 10.1811C36.1864 5.47642 31.6846 2.11027 26.298 0.702905C20.9114 -0.704048 15.2841 0.0158177 10.4536 2.73056C5.62305 5.4453 2.16699 9.82963 0.721989 15.0761C-0.723015 20.3227 0.0165024 25.8032 2.80401 30.5078ZM36.8508 11.3739C41.9295 19.9459 38.9005 30.9439 30.0993 35.8904C21.2977 40.8365 10.0058 37.8869 4.9271 29.315C-0.151573 20.743 2.87704 9.74499 11.6786 4.79846C20.4798 -0.147656 31.7721 2.80192 36.8508 11.3739Z" fill="#02628C"/>
<path d="M13.7207 7.61649C13.9988 8.15546 14.659 8.39445 15.2292 8.15919C18.6554 6.74394 22.1276 6.65308 25.565 7.89199C28.3895 8.90976 30.0909 10.454 30.1079 10.4698C33.0033 13.148 34.4463 16.5511 34.3944 20.582C34.3699 22.4652 34.0093 24.0622 33.7304 25.0244C33.5669 25.5878 33.8644 26.1807 34.4218 26.4006L34.4463 26.4102C35.0974 26.667 35.8315 26.3156 36.0228 25.6575C36.342 24.5597 36.7366 22.7976 36.774 20.7023C36.8578 16.0275 35.1186 11.9066 31.7447 8.7857C31.6583 8.70646 29.6656 6.89746 26.3917 5.71746C23.5706 4.70094 19.2609 3.98481 14.3046 6.02366C13.6771 6.28174 13.4045 7.00367 13.7103 7.59658L13.7211 7.61732L13.7207 7.61649Z" fill="#02628C"/>
<path d="M62.0953 55.3949C62.5917 55.8791 62.5913 56.6633 62.0941 57.1466L58.6165 60.5285C58.1193 61.0119 57.3142 61.0115 56.8179 60.5273L56.056 59.7838L61.3334 54.6514L62.0953 55.3949Z" fill="#02628C"/>
<path d="M33.8851 37.2194C34.647 36.6576 35.3745 36.0407 36.063 35.3714C36.8311 34.6242 37.5321 33.83 38.1624 32.9932L39.7514 34.5428C40.1884 34.4105 40.6844 34.5121 41.0309 34.8499L60.6924 54.0273L55.4149 59.1597L35.7534 39.9823C35.4073 39.6446 35.3031 39.1612 35.4401 38.7359L33.8855 37.2194H33.8851Z" fill="#02628C"/>
</svg>
