<svg width="141" height="120" viewBox="0 0 141 120" fill="none" xmlns="http://www.w3.org/2000/svg">
<path d="M79.6844 89.3607C79.6844 94.6222 75.4103 98.8875 70.1379 98.8875C64.8654 98.8875 60.5913 94.6222 60.5913 89.3607C60.5913 84.0993 64.8654 79.834 70.1379 79.834C75.4103 79.834 79.6844 84.0993 79.6844 89.3607ZM62.5016 89.3607C62.5016 93.5694 65.9205 96.9811 70.1379 96.9811C74.3552 96.9811 77.7741 93.5694 77.7741 89.3607C77.7741 85.1521 74.3552 81.7404 70.1379 81.7404C65.9205 81.7404 62.5016 85.1521 62.5016 89.3607Z" fill="#02628C"/>
<mask id="path-2-inside-1_1009_2016" fill="white">
<path d="M53.377 109.662C53.377 105.244 56.9587 101.662 61.377 101.662H78.6284C83.0467 101.662 86.6284 105.244 86.6284 109.662V119C86.6284 119.552 86.1807 120 85.6284 120H54.377C53.8247 120 53.377 119.552 53.377 119V109.662Z"/>
</mask>
<path d="M53.377 109.662C53.377 105.244 56.9587 101.662 61.377 101.662H78.6284C83.0467 101.662 86.6284 105.244 86.6284 109.662V119C86.6284 119.552 86.1807 120 85.6284 120H54.377C53.8247 120 53.377 119.552 53.377 119V109.662Z" stroke="#02628C" stroke-width="4" mask="url(#path-2-inside-1_1009_2016)"/>
<rect x="62.127" y="111.268" width="2.12145" height="7.4097" rx="1" fill="#02628C"/>
<rect x="76.1279" y="111.59" width="2.12145" height="7.4097" rx="1" fill="#02628C"/>
<path d="M133.307 59.4232C133.307 64.6847 129.033 68.95 123.761 68.95C118.488 68.95 114.214 64.6847 114.214 59.4232C114.214 54.1618 118.488 49.8965 123.761 49.8965C129.033 49.8965 133.307 54.1618 133.307 59.4232ZM116.125 59.4232C116.125 63.6319 119.544 67.0436 123.761 67.0436C127.978 67.0436 131.397 63.6319 131.397 59.4232C131.397 55.2146 127.978 51.8029 123.761 51.8029C119.544 51.8029 116.125 55.2146 116.125 59.4232Z" fill="#02628C"/>
<mask id="path-6-inside-2_1009_2016" fill="white">
<path d="M107 79.7236C107 75.3054 110.582 71.7236 115 71.7236H132.251C136.67 71.7236 140.251 75.3054 140.251 79.7236V89.0614C140.251 89.6136 139.804 90.0614 139.251 90.0614H108C107.448 90.0614 107 89.6136 107 89.0614V79.7236Z"/>
</mask>
<path d="M107 79.7236C107 75.3054 110.582 71.7236 115 71.7236H132.251C136.67 71.7236 140.251 75.3054 140.251 79.7236V89.0614C140.251 89.6136 139.804 90.0614 139.251 90.0614H108C107.448 90.0614 107 89.6136 107 89.0614V79.7236Z" stroke="#02628C" stroke-width="4" mask="url(#path-6-inside-2_1009_2016)"/>
<rect x="115.75" y="81.3301" width="2.12145" height="7.4097" rx="1" fill="#02628C"/>
<rect x="129.751" y="81.6523" width="2.12145" height="7.4097" rx="1" fill="#02628C"/>
<path d="M26.3074 59.4232C26.3074 64.6847 22.0333 68.95 16.7609 68.95C11.4885 68.95 7.21436 64.6847 7.21436 59.4232C7.21436 54.1618 11.4885 49.8965 16.7609 49.8965C22.0333 49.8965 26.3074 54.1618 26.3074 59.4232ZM9.12468 59.4232C9.12468 63.6319 12.5435 67.0436 16.7609 67.0436C20.9783 67.0436 24.3971 63.6319 24.3971 59.4232C24.3971 55.2146 20.9783 51.8029 16.7609 51.8029C12.5435 51.8029 9.12468 55.2146 9.12468 59.4232Z" fill="#02628C"/>
<mask id="path-10-inside-3_1009_2016" fill="white">
<path d="M0 79.7236C0 75.3054 3.58172 71.7236 8 71.7236H25.2515C29.6697 71.7236 33.2514 75.3054 33.2514 79.7236V89.0614C33.2514 89.6136 32.8037 90.0614 32.2514 90.0614H1C0.447715 90.0614 0 89.6136 0 89.0614V79.7236Z"/>
</mask>
<path d="M0 79.7236C0 75.3054 3.58172 71.7236 8 71.7236H25.2515C29.6697 71.7236 33.2514 75.3054 33.2514 79.7236V89.0614C33.2514 89.6136 32.8037 90.0614 32.2514 90.0614H1C0.447715 90.0614 0 89.6136 0 89.0614V79.7236Z" stroke="#02628C" stroke-width="4" mask="url(#path-10-inside-3_1009_2016)"/>
<rect x="8.75049" y="81.3301" width="2.12145" height="7.4097" rx="1" fill="#02628C"/>
<rect x="22.751" y="81.6523" width="2.12145" height="7.4097" rx="1" fill="#02628C"/>
<path d="M74.2668 61.0233C74.2668 59.6845 74.2848 58.3467 74.2562 57.0089C74.2467 56.5609 74.3769 56.3759 74.8301 56.2618C79.9001 54.9864 83.9196 52.1872 86.8422 47.86C88.6444 45.1919 89.7975 42.2532 90.0781 39.0398C90.8448 30.2692 87.3864 23.5782 79.8334 19.0999C75.7503 16.6801 71.2447 16.0006 66.5665 16.8587C59.9125 18.0802 55.0691 21.7945 51.957 27.75C50.6715 30.209 49.9621 32.8634 49.8975 35.6446C49.7016 44.0031 53.2838 50.264 60.516 54.4485C62.0165 55.3171 63.6514 55.8846 65.3361 56.2872C65.7268 56.3802 65.8359 56.5397 65.8338 56.9254C65.819 59.6897 65.8179 62.4551 65.8338 65.2194C65.8359 65.659 65.712 65.7467 65.2863 65.6696C61.7179 65.0261 58.34 63.8679 55.2195 62.0071C54.9272 61.8327 54.7461 61.9278 54.5164 62.1011C52.5606 63.5763 50.5932 65.0366 48.6427 66.5192C48.3473 66.7432 48.1842 66.7548 47.9078 66.4769C45.3495 63.8996 42.7796 61.335 40.1959 58.7831C39.9132 58.5041 39.9397 58.3509 40.1631 58.0582C41.6381 56.1255 43.0825 54.1717 44.5554 52.2379C44.7936 51.9251 44.8307 51.6905 44.6147 51.3503C44.3044 50.8621 44.0228 50.3485 43.7909 49.8181C43.6151 49.4176 43.4224 49.4176 43.0634 49.5782C38.3566 51.6905 33.6403 53.7807 28.9389 55.9047C28.4899 56.1075 28.3385 56.0241 28.1881 55.6024C28.0229 55.1407 27.8111 54.6926 27.5856 54.2552C27.4172 53.9286 27.4331 53.7627 27.8143 53.5937C32.1473 51.68 36.4707 49.7473 40.7974 47.8188C41.2633 47.6106 41.7239 47.3887 42.1962 47.1954C42.4567 47.0886 42.5308 46.9692 42.4323 46.6808C42.1358 45.8174 41.8669 44.9435 41.6085 44.0675C41.5439 43.8477 41.4465 43.7516 41.2188 43.7199C38.7431 43.3733 36.2696 43.0066 33.7918 42.678C33.3978 42.6262 33.3047 42.4962 33.3057 42.1232C33.3184 38.4956 33.3195 34.8679 33.3057 31.2403C33.3047 30.8831 33.4031 30.7775 33.7632 30.7289C36.206 30.4002 38.6436 30.0367 41.0843 29.6933C41.3766 29.6521 41.5365 29.558 41.6212 29.2357C42.3052 26.6564 43.3122 24.2059 44.6719 21.9065C44.8243 21.6487 44.7894 21.4701 44.6189 21.245C43.1312 19.2785 41.6593 17.3004 40.1642 15.3402C39.9407 15.0475 39.9217 14.89 40.2012 14.6132C42.7849 12.0613 45.3548 9.4956 47.9131 6.91832C48.1937 6.63618 48.3579 6.65943 48.6512 6.88134C50.5741 8.34169 52.5161 9.77668 54.438 11.237C54.7589 11.4811 54.9918 11.5255 55.3645 11.3057C57.5914 9.99331 59.9654 9.02009 62.4665 8.36705C62.8308 8.27195 62.979 8.11239 63.0298 7.74466C63.3517 5.39457 63.7065 3.04976 64.021 0.699666C64.0866 0.212529 64.201 -0.00620635 64.7749 0.000133827C68.3211 0.0328914 71.8684 0.0254932 75.4157 0.00541602C75.8435 0.00330263 75.996 0.133276 76.051 0.540104C76.3655 2.87329 76.7086 5.20225 77.0199 7.53544C77.0845 8.0194 77.237 8.27407 77.7707 8.41355C80.2357 9.05602 82.5738 10.0335 84.7667 11.33C85.1067 11.5308 85.3163 11.4864 85.6022 11.2709C87.5283 9.81473 89.4693 8.37974 91.3901 6.91727C91.7141 6.67 91.8984 6.64147 92.2097 6.95531C94.7532 9.52203 97.3125 12.0739 99.8835 14.6142C100.163 14.89 100.147 15.0475 99.9227 15.3413C98.4381 17.2877 96.98 19.2542 95.4997 21.2049C95.3017 21.4659 95.2667 21.6624 95.4393 21.9562C96.7777 24.227 97.7795 26.6416 98.4476 29.1903C98.5397 29.5432 98.7187 29.6574 99.0565 29.7049C101.515 30.0452 103.971 30.4087 106.431 30.7458C106.708 30.7838 106.778 30.8831 106.777 31.141C106.772 34.8394 106.77 38.5368 106.777 42.2352C106.777 42.5216 106.686 42.6294 106.395 42.6685C103.918 43.0098 101.444 43.3765 98.9675 43.7104C98.6414 43.7548 98.5249 43.8868 98.4434 44.1764C98.2231 44.9541 97.9986 45.7318 97.7244 46.4905C97.5761 46.9016 97.627 47.0897 98.0558 47.2788C101.746 48.904 105.424 50.5557 109.106 52.1988C110.167 52.6722 111.224 53.1562 112.295 53.6074C112.643 53.7543 112.685 53.9064 112.515 54.2319C112.263 54.7138 112.038 55.2136 111.849 55.724C111.71 56.0959 111.538 56.0769 111.223 55.9353C106.515 53.8251 101.801 51.7307 97.0954 49.6152C96.6793 49.4282 96.4601 49.4049 96.2652 49.8899C96.0566 50.4088 95.7602 50.897 95.4615 51.3725C95.2614 51.6916 95.2889 51.9177 95.5155 52.2157C96.9991 54.1632 98.4561 56.1308 99.9396 58.0783C100.147 58.3509 100.179 58.4978 99.9131 58.7609C97.3315 61.3149 94.7606 63.8795 92.2023 66.4558C91.9185 66.7421 91.7417 66.7464 91.4272 66.5075C89.4778 65.0239 87.5082 63.5678 85.5567 62.0863C85.2856 61.8803 85.0908 61.8813 84.8049 62.0504C81.678 63.9007 78.2927 65.043 74.7274 65.6865C74.3917 65.7467 74.252 65.677 74.2562 65.3029C74.2721 63.8764 74.2626 62.4498 74.2626 61.0233H74.2668ZM76.7997 60.4263C76.7997 60.9726 76.8261 61.5199 76.7922 62.0641C76.7605 62.5597 76.9235 62.6062 77.3693 62.4773C80.0473 61.7017 82.5547 60.5647 84.8705 59.0166C85.1956 58.7989 85.4084 58.782 85.7388 59.0356C87.5569 60.4284 89.4058 61.7831 91.2281 63.1726C91.5214 63.3966 91.6813 63.3713 91.9259 63.1251C93.4391 61.596 94.9575 60.0733 96.4929 58.5675C96.7894 58.2769 96.7703 58.0899 96.531 57.7782C95.1513 55.9733 93.7938 54.1495 92.4257 52.3362C92.2489 52.1027 92.1133 51.9198 92.3283 51.5986C94.3095 48.6409 95.6691 45.4201 96.3595 41.9256C96.4262 41.5896 96.5988 41.4786 96.9207 41.4343C99.2238 41.1215 101.524 40.7886 103.826 40.4727C104.154 40.4283 104.263 40.2888 104.261 39.958C104.248 37.7918 104.248 35.6256 104.261 33.4594C104.263 33.1064 104.154 32.9786 103.791 32.93C101.523 32.6246 99.2598 32.2843 96.9927 31.9758C96.6051 31.9229 96.4177 31.7676 96.3425 31.3808C95.6733 27.935 94.3148 24.7712 92.3781 21.8505C92.1737 21.5419 92.2055 21.3465 92.4183 21.0664C93.8054 19.2447 95.1661 17.4029 96.5575 15.5843C96.7947 15.2747 96.7693 15.0982 96.5024 14.8351C94.9819 13.3388 93.4708 11.833 91.9736 10.3156C91.7014 10.0398 91.5235 9.99542 91.1921 10.248C89.3581 11.6502 87.4987 13.0197 85.6583 14.4145C85.4095 14.6026 85.2337 14.6206 84.9701 14.4452C82.0052 12.467 78.7766 11.1166 75.2749 10.4255C74.9847 10.3684 74.8492 10.2448 74.8058 9.91406C74.5093 7.68549 74.1747 5.46114 73.8655 3.23362C73.8062 2.80672 73.7162 2.56051 73.1708 2.57108C71.124 2.61123 69.0761 2.61229 67.0303 2.57108C66.4532 2.55945 66.287 2.75388 66.2171 3.2854C65.928 5.48016 65.5849 7.66752 65.2959 9.86228C65.2472 10.2321 65.1042 10.3695 64.7675 10.4361C61.3028 11.125 58.1049 12.4618 55.1686 14.4166C54.8669 14.6174 54.6784 14.6005 54.3935 14.3839C52.5701 12.9964 50.7224 11.6407 48.9021 10.249C48.5707 9.99542 48.3939 10.0377 48.1207 10.3145C46.6361 11.8203 45.1388 13.3156 43.6278 14.796C43.3292 15.0887 43.3027 15.2842 43.5653 15.6266C44.9376 17.4155 46.2729 19.232 47.6442 21.0221C47.8856 21.338 47.9131 21.5557 47.6886 21.8949C45.7615 24.7997 44.4177 27.9519 43.7506 31.3787C43.6754 31.7634 43.4912 31.924 43.1015 31.9768C40.8344 32.2843 38.5705 32.6235 36.3024 32.9268C35.9381 32.9754 35.8312 33.1054 35.8333 33.4562C35.846 35.6224 35.846 37.7886 35.8333 39.9549C35.8312 40.2867 35.9424 40.4251 36.2696 40.4705C38.5546 40.7844 40.8366 41.1215 43.1227 41.4226C43.4975 41.4723 43.6765 41.597 43.7496 41.9711C44.4262 45.4328 45.7848 48.6166 47.7331 51.5521C47.9237 51.8385 47.9025 52.0287 47.7013 52.2929C46.3153 54.1157 44.9525 55.9564 43.5621 57.7761C43.3239 58.0878 43.3048 58.2759 43.6013 58.5654C45.1378 60.0702 46.6562 61.5929 48.1694 63.1219C48.4129 63.3681 48.5728 63.3945 48.8661 63.1716C50.6874 61.782 52.5362 60.4263 54.3554 59.0346C54.6826 58.7842 54.8923 58.7968 55.2216 59.0156C57.5543 60.5689 60.0745 61.7197 62.7747 62.4858C63.1739 62.5988 63.3104 62.5608 63.3009 62.117C63.2787 61.0074 63.2819 59.8979 63.3009 58.7884C63.3062 58.4703 63.2035 58.3086 62.8975 58.2199C62.1181 57.9948 61.3695 57.682 60.6325 57.3481C51.9295 53.4077 46.6149 44.355 47.3837 34.9504C47.6092 32.1839 48.2615 29.5401 49.4496 27.0399C53.6301 18.2377 62.8932 12.9933 72.6827 14.1525C77.6648 14.7421 82.0274 16.6991 85.6213 20.1735C91.5924 25.9441 93.8203 32.9965 92.3294 41.1405C91.4791 45.7868 89.2204 49.7452 85.8172 53.0347C83.3457 55.4228 80.4687 57.1537 77.1967 58.2199C76.895 58.3182 76.7785 58.4693 76.7933 58.7873C76.8177 59.3326 76.7997 59.8789 76.7997 60.4252V60.4263Z" fill="#02628C"/>
<path d="M53.0665 36.7169C53.1163 27.1696 60.7445 20.0042 69.5672 19.7548C78.8251 19.4938 86.9849 26.8347 87.0135 36.6566C87.041 45.8922 79.6775 53.4856 70.2608 53.6198C60.8027 53.754 53.1438 46.1743 53.0654 36.7158L53.0665 36.7169ZM70.013 51.0626C78.0076 51.0636 84.4573 44.6463 84.4711 36.7031C84.4848 28.9438 78.2331 22.3617 70.2131 22.2951C62.1147 22.2275 55.6216 28.6902 55.6248 36.6894C55.629 44.6231 62.0745 51.0626 70.013 51.0636V51.0626Z" fill="#02628C"/>
<path d="M71.3134 66.3017C71.3134 69.3461 71.307 72.3915 71.3218 75.4358C71.324 75.8384 71.234 76.0054 70.7998 75.9737C70.2735 75.9356 69.742 75.9504 69.2136 75.9694C68.9055 75.98 68.7837 75.8997 68.7837 75.5616C68.7932 69.401 68.7943 63.2415 68.7837 57.081C68.7837 56.7112 68.9224 56.6414 69.2464 56.6541C69.7748 56.6752 70.3064 56.689 70.8326 56.6509C71.2541 56.6203 71.3229 56.7925 71.3208 57.1655C71.307 60.2099 71.3134 63.2553 71.3144 66.2996L71.3134 66.3017Z" fill="#02628C"/>
<path d="M80.9353 33.0346C80.8156 33.1677 80.7055 33.3019 80.5837 33.4234C78.5231 35.4734 76.4594 37.5213 74.3998 39.5723C72.5764 41.3877 70.7519 43.2 68.9434 45.0302C68.6596 45.3176 68.4997 45.3472 68.1968 45.0418C65.5401 42.3673 62.8696 39.7044 60.1885 37.0532C59.9174 36.7848 59.928 36.6421 60.198 36.4012C60.6057 36.0387 60.9974 35.653 61.3575 35.2441C61.6169 34.9493 61.7704 35.0095 62.0193 35.261C64.0428 37.2994 66.0896 39.3145 68.1058 41.3603C68.4669 41.7259 68.6617 41.7195 69.0207 41.3603C72.2651 38.1004 75.5328 34.8648 78.7783 31.6059C79.0939 31.2889 79.2654 31.2794 79.5524 31.6112C79.9082 32.0233 80.319 32.3879 80.7045 32.7746C80.7786 32.8486 80.8442 32.931 80.9363 33.0335L80.9353 33.0346Z" fill="#02628C"/>
</svg>
